<svg width="330" height="188" viewBox="0 0 330 188" fill="none" xmlns="http://www.w3.org/2000/svg">
<path d="M264.473 176.089H58.3496V57.6758C58.3496 55.2891 60.2845 53.3542 62.6712 53.3542H260.152C262.539 53.3542 264.473 55.2891 264.473 57.6758V176.089Z" fill="#263238"/>
<path d="M257.57 170.216H65.2539V59.2271H257.57V170.216Z" fill="white"/>
<rect width="57.087" height="2.3973" rx="1.19865" transform="matrix(1 0 0 -1 132.869 82.0145)" fill="#465E9C"/>
<rect width="80.3947" height="2.3973" rx="1.19865" transform="matrix(1 0 0 -1 121.215 71.724)" fill="#7E8EAD"/>
<path d="M246.015 115.926L199.692 115.931C199.474 115.931 199.258 115.889 199.057 115.805C198.855 115.722 198.672 115.599 198.518 115.445C198.364 115.291 198.241 115.108 198.158 114.906C198.074 114.705 198.031 114.489 198.031 114.271C198.031 114.053 198.074 113.837 198.158 113.635C198.241 113.434 198.363 113.251 198.517 113.097C198.672 112.942 198.855 112.82 199.056 112.737C199.258 112.653 199.474 112.61 199.692 112.61L246.014 112.605C246.455 112.605 246.877 112.779 247.188 113.091C247.5 113.402 247.675 113.825 247.675 114.265C247.675 114.705 247.5 115.128 247.189 115.439C246.877 115.751 246.455 115.926 246.015 115.926Z" fill="#B9CAF7"/>
<path d="M189.78 116.571L189.568 116.571C189.266 116.571 188.967 116.511 188.687 116.396C188.408 116.28 188.154 116.11 187.94 115.897C187.726 115.683 187.557 115.429 187.441 115.15C187.325 114.87 187.266 114.571 187.266 114.269C187.266 113.966 187.325 113.667 187.441 113.388C187.556 113.108 187.726 112.854 187.94 112.64C188.154 112.427 188.407 112.257 188.687 112.141C188.966 112.026 189.265 111.966 189.568 111.966L189.779 111.966C190.39 111.966 190.976 112.208 191.408 112.64C191.839 113.072 192.082 113.657 192.082 114.268C192.082 114.57 192.023 114.87 191.907 115.149C191.791 115.429 191.622 115.682 191.408 115.896C191.194 116.11 190.94 116.28 190.661 116.395C190.382 116.511 190.082 116.571 189.78 116.571Z" fill="#2A4E96"/>
<path d="M190.189 121.665H190.401C190.703 121.665 191.003 121.725 191.282 121.84C191.561 121.956 191.815 122.126 192.029 122.339C192.243 122.553 192.412 122.807 192.528 123.086C192.644 123.366 192.703 123.665 192.703 123.968V123.968C192.703 124.27 192.644 124.569 192.528 124.849C192.412 125.128 192.243 125.382 192.029 125.596C191.815 125.809 191.561 125.979 191.282 126.095C191.003 126.21 190.703 126.27 190.401 126.27H190.189C189.578 126.27 188.993 126.027 188.561 125.596C188.129 125.164 187.887 124.578 187.887 123.968V123.968C187.887 123.665 187.946 123.366 188.062 123.087C188.178 122.807 188.347 122.553 188.561 122.34C188.775 122.126 189.029 121.956 189.308 121.84C189.588 121.725 189.887 121.665 190.189 121.665Z" fill="#F99746"/>
<path d="M246.017 125.625L199.694 125.631C199.254 125.631 198.831 125.456 198.52 125.144C198.208 124.833 198.033 124.411 198.033 123.97C198.033 123.53 198.208 123.107 198.519 122.796C198.831 122.484 199.253 122.309 199.694 122.309L246.016 122.304C246.234 122.304 246.45 122.347 246.652 122.43C246.853 122.514 247.036 122.636 247.19 122.79C247.345 122.944 247.467 123.127 247.55 123.329C247.634 123.53 247.677 123.746 247.677 123.964C247.677 124.182 247.634 124.398 247.551 124.6C247.467 124.801 247.345 124.984 247.191 125.138C247.037 125.293 246.853 125.415 246.652 125.499C246.451 125.582 246.235 125.625 246.017 125.625Z" fill="#B9CAF7"/>
<path d="M174.301 148.688H72.0781V149.546H174.301V148.688Z" fill="#8EB2DD"/>
<path d="M76.8391 97.8766L76.8457 154.88L77.7016 154.88L77.695 97.8765L76.8391 97.8766Z" fill="#8EB2DD"/>
<path d="M169.585 102.227L163.714 102.741L164.486 104.338L146.059 113.438L128.844 143.786L108.528 125.519L92.1392 133.854L92.0927 133.878L81.6445 144.085L82.1216 144.577L92.495 134.442L108.42 126.342L129.019 144.864L146.549 113.96L164.784 104.955L165.546 106.531L169.585 102.227Z" fill="#699FF0"/>
<path d="M92.2594 136.616L92.0641 136.616C91.7851 136.616 91.5089 136.559 91.2511 136.447C90.9934 136.335 90.7591 136.171 90.5618 135.964C90.3646 135.757 90.208 135.511 90.1013 135.241C89.9945 134.971 89.9395 134.681 89.9395 134.388C89.9394 134.096 89.9943 133.806 90.1011 133.536C90.2078 133.265 90.3642 133.02 90.5615 132.813C90.7587 132.606 90.9929 132.442 91.2506 132.33C91.5084 132.218 91.7846 132.16 92.0636 132.16L92.2588 132.16C92.8223 132.16 93.3626 132.395 93.7611 132.812C94.1595 133.23 94.3834 133.797 94.3835 134.388V134.388C94.3835 134.68 94.3286 134.97 94.2219 135.241C94.1152 135.511 93.9587 135.757 93.7615 135.964C93.5642 136.17 93.33 136.335 93.0723 136.447C92.8146 136.559 92.5383 136.616 92.2594 136.616Z" fill="#2A4E96"/>
<path d="M146.304 116.383L146.109 116.383C145.546 116.384 145.005 116.149 144.607 115.731C144.208 115.313 143.984 114.746 143.984 114.156V114.156C143.984 113.863 144.039 113.573 144.146 113.303C144.253 113.032 144.409 112.787 144.606 112.58C144.804 112.373 145.038 112.209 145.296 112.097C145.553 111.985 145.83 111.927 146.109 111.927L146.304 111.927C146.583 111.927 146.859 111.985 147.117 112.097C147.375 112.208 147.609 112.373 147.806 112.579C148.003 112.786 148.16 113.032 148.267 113.302C148.373 113.573 148.428 113.862 148.428 114.155C148.429 114.746 148.205 115.313 147.806 115.731C147.408 116.149 146.868 116.383 146.304 116.383Z" fill="#2A4E96"/>
<path d="M108.474 128.727L108.279 128.727C107.716 128.727 107.175 128.493 106.777 128.075C106.378 127.657 106.154 127.09 106.154 126.499C106.154 125.908 106.378 125.342 106.776 124.924C107.175 124.506 107.715 124.271 108.278 124.271L108.474 124.271C109.037 124.271 109.577 124.505 109.976 124.923C110.374 125.341 110.598 125.908 110.598 126.499C110.598 126.791 110.543 127.081 110.437 127.351C110.33 127.622 110.174 127.867 109.976 128.074C109.779 128.281 109.545 128.445 109.287 128.557C109.029 128.669 108.753 128.727 108.474 128.727Z" fill="#2A4E96"/>
<path d="M128.933 145.923L128.738 145.923C128.175 145.923 127.634 145.688 127.236 145.271C126.837 144.853 126.613 144.286 126.613 143.695V143.695C126.613 143.104 126.837 142.537 127.235 142.119C127.634 141.701 128.174 141.467 128.737 141.467L128.933 141.467C129.212 141.467 129.488 141.524 129.746 141.636C130.003 141.748 130.238 141.912 130.435 142.119C130.632 142.326 130.789 142.571 130.896 142.842C131.002 143.112 131.057 143.402 131.057 143.694C131.057 144.285 130.834 144.852 130.435 145.27C130.037 145.688 129.497 145.923 128.933 145.923Z" fill="#F99746"/>
<path d="M264.608 187.247H55.8669C52.7944 187.247 50.0713 185.27 49.1191 182.35L47.7041 178.01C47.017 175.903 48.5869 173.74 50.8032 173.74H269.672C271.888 173.74 273.458 175.903 272.771 178.01L271.356 182.35C270.403 185.27 267.68 187.247 264.608 187.247Z" fill="#2754F3"/>
<g filter="url(#filter0_d_280_438)">
<circle cx="28.67" cy="52.3165" r="23.67" fill="#2754F3"/>
</g>
<path fill-rule="evenodd" clip-rule="evenodd" d="M19.3152 59.6294V65.8908H15.5254V59.6294H19.3152Z" fill="white"/>
<path fill-rule="evenodd" clip-rule="evenodd" d="M26.2351 56.7362V65.8915H22.4453V56.7362H26.2351Z" fill="white"/>
<path fill-rule="evenodd" clip-rule="evenodd" d="M33.1453 52.1633V65.8911H29.3555V52.1633H33.1453Z" fill="white"/>
<rect x="35.957" y="47.8998" width="4.40773" height="18.3003" fill="white"/>
<path fill-rule="evenodd" clip-rule="evenodd" d="M41.8585 38.5081C41.7865 38.4463 41.6938 38.4257 41.6114 38.436L38.7278 38.8994C38.5631 38.9303 38.4395 39.0848 38.4704 39.2496C38.5013 39.4144 38.6557 39.5276 38.8205 39.507L40.7051 39.2084L35.0822 45.7376L32.7856 43.5337C32.7238 43.4719 32.6415 43.441 32.5591 43.4513C32.4767 43.4513 32.3943 43.4925 32.3428 43.5543L24.8044 52.308L22.6211 50.6705C22.4975 50.5778 22.3327 50.5881 22.2195 50.6911L15.4534 57.1791C15.3298 57.2924 15.3298 57.4881 15.4431 57.6117C15.5049 57.6735 15.5873 57.7044 15.6697 57.7044C15.7417 57.7044 15.8241 57.6735 15.8859 57.622L22.4666 51.309L24.6808 52.9671C24.8147 53.0598 24.9897 53.0495 25.103 52.9259L32.6106 44.2031L34.9071 46.407C34.9689 46.4688 35.0513 46.4997 35.1337 46.4894C35.2161 46.4894 35.2985 46.4482 35.3499 46.3864L41.3539 39.4144L41.3127 41.8551C41.3127 42.0302 41.4466 42.164 41.6217 42.164C41.7865 42.164 41.9306 42.0302 41.9306 41.8551L41.9821 38.7347C41.9718 38.6626 41.9306 38.5699 41.8585 38.5081Z" fill="white"/>
<g filter="url(#filter1_d_280_438)">
<circle cx="236.896" cy="26.4151" r="23.4151" fill="#2754F3"/>
</g>
<path d="M224.126 22.5733C224.126 21.2394 225.207 20.1579 226.541 20.1579C227.875 20.1579 228.956 21.2394 228.956 22.5733C228.956 23.9065 227.875 24.9888 226.541 24.9888C225.207 24.9888 224.126 23.9065 224.126 22.5733ZM230.767 25.3341L234.021 25.7816L234.587 23.2974L231.579 22.3262C231.556 21.8592 231.472 21.4087 231.332 20.9832L233.646 18.7794L232.058 16.7872L229.497 18.4847C229.106 18.202 228.674 17.9745 228.212 17.812L227.937 14.7066H225.39L225.124 17.7289C224.644 17.8687 224.193 18.0781 223.783 18.3456L221.195 16.6293L219.606 18.6222L221.837 20.7467C221.668 21.1805 221.556 21.643 221.513 22.1259L218.494 23.1009L219.061 25.585L222.206 25.1528C222.432 25.5344 222.707 25.8843 223.023 26.1919L221.869 29.2467L224.165 30.3524L225.823 27.5659C226.058 27.5999 226.297 27.6226 226.541 27.6226C226.725 27.6226 226.907 27.612 227.086 27.5924L228.78 30.4401L231.075 29.3344L229.932 26.3068C230.249 26.0189 230.531 25.6939 230.767 25.3341Z" fill="#D9D9D9"/>
<path d="M240.571 27.2789C240.571 25.2829 242.189 23.6656 244.185 23.6656C246.181 23.6656 247.799 25.2829 247.799 27.2789C247.799 29.2748 246.181 30.8929 244.185 30.8929C242.189 30.8929 240.571 29.2748 240.571 27.2789ZM250.832 30.8725L254.667 31.4L255.295 28.646L251.729 27.495C251.732 27.4224 251.741 27.3514 251.741 27.2789C251.741 26.2102 251.516 25.1945 251.115 24.2724L253.765 21.7489L252.005 19.5406L249.048 21.5003C248.17 20.7604 247.119 20.2223 245.967 19.9434L245.658 16.4359H242.833L242.528 19.9109C241.365 20.1717 240.302 20.6962 239.41 21.4247L236.449 19.462L234.689 21.6703L237.306 24.1636C236.876 25.1144 236.629 26.1671 236.629 27.2789C236.629 27.3197 236.634 27.359 236.635 27.399L233.074 28.5485L233.702 31.3025L237.493 30.781C237.98 31.7091 238.652 32.5223 239.463 33.1723L238.074 36.8528L240.618 38.0779L242.642 34.6762C243.14 34.7798 243.656 34.835 244.185 34.835C244.684 34.835 245.17 34.7836 245.643 34.6906L247.683 38.1218L250.229 36.8959L248.841 33.2214C249.654 32.5835 250.337 31.7877 250.832 30.8725Z" fill="white"/>
<g filter="url(#filter2_d_280_438)">
<circle cx="300.824" cy="117.126" r="23.3885" fill="#2754F3"/>
</g>
<path d="M290.266 106.567C290.266 105.634 290.636 104.739 291.296 104.079C291.957 103.418 292.852 103.048 293.785 103.048H301.856C302.789 103.048 303.684 103.419 304.344 104.079L310.352 110.087C311.012 110.747 311.383 111.642 311.383 112.575V127.685C311.383 128.619 311.013 129.514 310.353 130.174C309.692 130.834 308.797 131.205 307.864 131.205H305.175C306.973 129.193 307.933 126.569 307.857 123.872C307.782 121.175 306.677 118.609 304.769 116.701C302.861 114.794 300.295 113.688 297.598 113.613C294.901 113.537 292.277 114.497 290.266 116.296V106.567Z" fill="white"/>
<path fill-rule="evenodd" clip-rule="evenodd" d="M297.305 117.126C296.064 117.126 294.845 117.454 293.771 118.077C292.698 118.7 291.808 119.596 291.192 120.674C290.576 121.751 290.257 122.973 290.265 124.214C290.274 125.455 290.61 126.672 291.241 127.741L289.022 129.959C288.858 130.122 288.729 130.316 288.64 130.53C288.552 130.743 288.506 130.972 288.506 131.203C288.506 131.434 288.551 131.663 288.64 131.877C288.728 132.09 288.858 132.284 289.021 132.448C289.184 132.611 289.378 132.741 289.592 132.83C289.805 132.918 290.034 132.964 290.265 132.964C290.497 132.964 290.725 132.919 290.939 132.83C291.153 132.742 291.347 132.612 291.51 132.449L293.729 130.23C294.662 130.779 295.708 131.106 296.788 131.186C297.867 131.265 298.95 131.094 299.953 130.687C300.956 130.28 301.851 129.646 302.569 128.837C303.288 128.027 303.81 127.063 304.094 126.019C304.379 124.974 304.42 123.879 304.212 122.816C304.005 121.754 303.555 120.754 302.899 119.894C302.242 119.033 301.395 118.336 300.425 117.856C299.455 117.376 298.388 117.126 297.305 117.126ZM293.786 124.165C293.786 123.232 294.156 122.337 294.817 121.677C295.477 121.017 296.372 120.646 297.305 120.646C298.239 120.646 299.134 121.017 299.794 121.677C300.454 122.337 300.825 123.232 300.825 124.165C300.825 125.099 300.454 125.994 299.794 126.654C299.134 127.314 298.239 127.685 297.305 127.685C296.372 127.685 295.477 127.314 294.817 126.654C294.156 125.994 293.786 125.099 293.786 124.165Z" fill="white"/>
<defs>
<filter id="filter0_d_280_438" x="0" y="25.6465" width="57.3398" height="57.34" filterUnits="userSpaceOnUse" color-interpolation-filters="sRGB">
<feFlood flood-opacity="0" result="BackgroundImageFix"/>
<feColorMatrix in="SourceAlpha" type="matrix" values="0 0 0 0 0 0 0 0 0 0 0 0 0 0 0 0 0 0 127 0" result="hardAlpha"/>
<feOffset dy="2"/>
<feGaussianBlur stdDeviation="2.5"/>
<feColorMatrix type="matrix" values="0 0 0 0 0 0 0 0 0 0 0 0 0 0 0 0 0 0 0.25 0"/>
<feBlend mode="normal" in2="BackgroundImageFix" result="effect1_dropShadow_280_438"/>
<feBlend mode="normal" in="SourceGraphic" in2="effect1_dropShadow_280_438" result="shape"/>
</filter>
<filter id="filter1_d_280_438" x="208.48" y="0" width="56.8301" height="56.8301" filterUnits="userSpaceOnUse" color-interpolation-filters="sRGB">
<feFlood flood-opacity="0" result="BackgroundImageFix"/>
<feColorMatrix in="SourceAlpha" type="matrix" values="0 0 0 0 0 0 0 0 0 0 0 0 0 0 0 0 0 0 127 0" result="hardAlpha"/>
<feOffset dy="2"/>
<feGaussianBlur stdDeviation="2.5"/>
<feColorMatrix type="matrix" values="0 0 0 0 0 0 0 0 0 0 0 0 0 0 0 0 0 0 0.25 0"/>
<feBlend mode="normal" in2="BackgroundImageFix" result="effect1_dropShadow_280_438"/>
<feBlend mode="normal" in="SourceGraphic" in2="effect1_dropShadow_280_438" result="shape"/>
</filter>
<filter id="filter2_d_280_438" x="272.436" y="90.738" width="56.7773" height="56.7769" filterUnits="userSpaceOnUse" color-interpolation-filters="sRGB">
<feFlood flood-opacity="0" result="BackgroundImageFix"/>
<feColorMatrix in="SourceAlpha" type="matrix" values="0 0 0 0 0 0 0 0 0 0 0 0 0 0 0 0 0 0 127 0" result="hardAlpha"/>
<feOffset dy="2"/>
<feGaussianBlur stdDeviation="2.5"/>
<feColorMatrix type="matrix" values="0 0 0 0 0 0 0 0 0 0 0 0 0 0 0 0 0 0 0.25 0"/>
<feBlend mode="normal" in2="BackgroundImageFix" result="effect1_dropShadow_280_438"/>
<feBlend mode="normal" in="SourceGraphic" in2="effect1_dropShadow_280_438" result="shape"/>
</filter>
</defs>
</svg>
