<svg width="247" height="215" viewBox="0 0 247 215" fill="none" xmlns="http://www.w3.org/2000/svg">
<path d="M71.8338 150.622L37.3959 164.52C35.7855 165.17 33.9527 164.391 33.3028 162.781L12.6082 111.503C11.9583 109.893 12.7371 108.06 14.3475 107.41L48.7855 93.5121C50.3959 92.8623 52.2286 93.6411 52.8794 95.2515L73.5731 146.528C74.223 148.139 73.4442 149.972 71.8338 150.622Z" fill="#FCFCFC"/>
<path d="M49.959 93.4134C49.5835 93.4134 49.2027 93.4835 48.8341 93.6324L14.3961 107.531C12.855 108.153 12.1064 109.914 12.7286 111.455L33.4232 162.731C34.0454 164.274 35.8055 165.021 37.3475 164.4L71.7855 150.502L71.834 150.622L71.7855 150.502C73.3275 149.879 74.0752 148.118 73.453 146.576L52.7593 95.2999C52.285 94.1265 51.1523 93.4134 49.959 93.4134ZM36.2235 164.878C34.9263 164.878 33.6967 164.103 33.1827 162.829L12.4881 111.553C11.8122 109.877 12.6248 107.966 14.2992 107.29L48.7372 93.3918C50.4116 92.7151 52.324 93.5285 52.9998 95.2029L73.6936 146.48C74.3694 148.154 73.5568 150.066 71.8824 150.742L37.4445 164.64C37.0447 164.802 36.6302 164.878 36.2235 164.878Z" fill="#292526"/>
<path d="M114.596 133.364L80.1576 147.263C78.5472 147.913 76.7144 147.134 76.0637 145.523L55.3699 94.2459C54.72 92.6355 55.4988 90.8027 57.1092 90.1529L91.5472 76.2546C93.1576 75.6048 94.9904 76.3827 95.6402 77.994L116.335 129.271C116.985 130.882 116.206 132.714 114.596 133.364Z" fill="#FCFCFC"/>
<path d="M92.7242 76.1543C92.3426 76.1543 91.961 76.2278 91.5958 76.3749L57.1579 90.2731C56.4111 90.5743 55.8261 91.1489 55.5111 91.8896C55.1962 92.6312 55.1893 93.4507 55.4904 94.1975L76.1841 145.474C76.4861 146.221 77.0598 146.806 77.8014 147.121C78.543 147.436 79.3625 147.444 80.1093 147.142L114.546 133.244C115.294 132.942 115.878 132.368 116.193 131.627C116.508 130.885 116.516 130.066 116.215 129.319L95.5201 78.0424C95.219 77.2956 94.6444 76.7107 93.9037 76.3957C93.5247 76.2347 93.1249 76.1543 92.7242 76.1543ZM78.98 147.623C78.5456 147.623 78.1121 147.535 77.7002 147.36C76.8946 147.018 76.2715 146.383 75.9436 145.572L55.2498 94.2952C54.9219 93.4835 54.9305 92.5931 55.2723 91.7884C55.615 90.9836 56.2502 90.3597 57.061 90.0326L91.4989 76.1344C92.3097 75.8064 93.2002 75.8142 94.0049 76.1568C94.8097 76.4987 95.4336 77.1338 95.7616 77.9455L116.455 129.222C116.782 130.033 116.775 130.923 116.433 131.728C116.09 132.534 115.455 133.157 114.644 133.485L80.2062 147.383C79.8099 147.543 79.3954 147.623 78.98 147.623Z" fill="#292526"/>
<path d="M57.0803 96.6584L53.2286 98.2135C52.8167 98.3796 52.3486 98.1806 52.1824 97.7687L52.0821 97.5203C51.9159 97.1084 52.115 96.6394 52.5269 96.4733L56.3785 94.9191C56.7904 94.753 57.2585 94.952 57.4247 95.3639L57.5251 95.6122C57.6912 96.0242 57.4922 96.4923 57.0803 96.6584Z" fill="#E1E1E1"/>
<path d="M56.6786 94.9901C56.5947 94.9901 56.5099 95.0065 56.4277 95.0394L52.5761 96.5935C52.2308 96.7329 52.0638 97.1266 52.2031 97.471L52.3035 97.7202C52.371 97.8872 52.499 98.0179 52.6643 98.088C52.8305 98.1581 53.0139 98.1598 53.1809 98.0932L57.0326 96.5382C57.377 96.3988 57.544 96.0051 57.4055 95.6607L57.3052 95.4123C57.1987 95.1502 56.946 94.9901 56.6786 94.9901ZM52.9283 98.4021C52.8045 98.4021 52.6808 98.377 52.5631 98.3268C52.3338 98.229 52.1555 98.0482 52.0629 97.8171L51.9625 97.5688C51.7696 97.0911 52.0015 96.5459 52.4783 96.353L56.3308 94.7988C56.8076 94.6058 57.3527 94.8378 57.5457 95.3154L57.6461 95.5638C57.8391 96.0415 57.6071 96.5866 57.1295 96.7787L53.2779 98.3337C53.1645 98.3787 53.0468 98.4021 52.9283 98.4021Z" fill="#292526"/>
<path d="M58.6233 100.482L54.7716 102.037C54.3597 102.203 53.8916 102.004 53.7254 101.592L53.625 101.343C53.4589 100.932 53.6579 100.463 54.0698 100.296L57.9214 98.7422C58.3333 98.5761 58.8015 98.7751 58.9676 99.187L59.068 99.4354C59.2342 99.8473 59.0352 100.315 58.6233 100.482Z" fill="#E1E1E1"/>
<path d="M58.2221 98.8132C58.1364 98.8132 58.0508 98.8296 57.9694 98.8625L54.1178 100.417C53.9508 100.484 53.8201 100.613 53.7491 100.778C53.6791 100.944 53.6773 101.127 53.7448 101.294L53.8452 101.543C53.9845 101.888 54.3774 102.055 54.7227 101.916L58.5743 100.361C58.9187 100.222 59.0866 99.8282 58.9473 99.4838L58.8469 99.2354C58.7794 99.0684 58.6513 98.9378 58.4852 98.8677C58.4004 98.8313 58.3112 98.8132 58.2221 98.8132ZM54.4717 102.224C54.1013 102.224 53.7509 102.004 53.6046 101.64L53.5043 101.392C53.4108 101.16 53.4125 100.906 53.5103 100.677C53.6081 100.448 53.789 100.27 54.02 100.176L57.8725 98.6219C58.1035 98.5285 58.3571 98.5311 58.5864 98.628C58.8166 98.7258 58.994 98.9066 59.0874 99.1385L59.1878 99.3869C59.3808 99.8645 59.1489 100.41 58.6712 100.602L54.8196 102.157C54.7054 102.203 54.5877 102.224 54.4717 102.224Z" fill="#292526"/>
<path d="M60.1662 104.305L56.3146 105.86C55.9027 106.026 55.4345 105.827 55.2684 105.415L55.168 105.167C55.0019 104.755 55.2009 104.286 55.6128 104.119L59.4644 102.565C59.8763 102.399 60.3445 102.598 60.5106 103.01L60.611 103.258C60.7771 103.67 60.5781 104.138 60.1662 104.305Z" fill="#E1E1E1"/>
<path d="M59.7651 102.636C59.6794 102.636 59.5937 102.653 59.5124 102.686L55.6608 104.241C55.4937 104.307 55.3631 104.436 55.2921 104.601C55.222 104.768 55.2203 104.951 55.2878 105.117L55.3882 105.366C55.4557 105.533 55.5837 105.664 55.7499 105.734C55.9152 105.805 56.0986 105.806 56.2656 105.739L60.1173 104.184C60.2843 104.117 60.4149 103.989 60.485 103.823C60.556 103.657 60.5577 103.474 60.4902 103.307L60.3898 103.058C60.3223 102.891 60.1943 102.761 60.0281 102.691C59.9433 102.654 59.8542 102.636 59.7651 102.636ZM56.0129 106.048C55.8892 106.048 55.7655 106.023 55.6478 105.973C55.4185 105.876 55.2402 105.694 55.1476 105.463L55.0472 105.215C54.9538 104.983 54.9555 104.729 55.0533 104.5C55.1511 104.271 55.3319 104.093 55.563 103.999L59.4155 102.445C59.6465 102.352 59.9001 102.354 60.1294 102.451C60.3596 102.549 60.537 102.73 60.6304 102.962L60.7308 103.21C60.8242 103.441 60.8216 103.695 60.7239 103.925C60.6269 104.154 60.4452 104.331 60.2142 104.425L56.3625 105.98C56.2492 106.025 56.1315 106.048 56.0129 106.048Z" fill="#292526"/>
<path d="M61.7092 108.128L57.8575 109.683C57.4456 109.849 56.9775 109.65 56.8114 109.238L56.711 108.99C56.5448 108.578 56.7438 108.11 57.1557 107.943L61.0074 106.388C61.4193 106.222 61.8874 106.421 62.0536 106.833L62.154 107.082C62.3201 107.493 62.1211 107.962 61.7092 108.128Z" fill="#E1E1E1"/>
<path d="M61.3063 106.46C61.2232 106.46 61.1376 106.476 61.0554 106.509L57.2037 108.064C57.0367 108.131 56.906 108.259 56.8351 108.425C56.765 108.591 56.7633 108.774 56.8308 108.941L56.9312 109.189C57.0696 109.534 57.4633 109.701 57.8086 109.562L61.6602 108.007C61.8272 107.94 61.9579 107.812 62.028 107.646C62.099 107.48 62.1007 107.297 62.0332 107.13L61.9328 106.882C61.8272 106.619 61.5737 106.46 61.3063 106.46ZM57.5576 109.87C57.1873 109.87 56.8368 109.65 56.6906 109.286L56.5902 109.038C56.4967 108.807 56.4985 108.553 56.5963 108.323C56.694 108.094 56.8749 107.916 57.1059 107.822L60.9584 106.268C61.4352 106.075 61.9804 106.307 62.1734 106.785L62.2737 107.033C62.3672 107.264 62.3646 107.518 62.2677 107.748C62.1699 107.977 61.9882 108.155 61.7571 108.248L57.9055 109.803C57.7913 109.849 57.6736 109.87 57.5576 109.87Z" fill="#292526"/>
<path d="M63.2521 111.951L59.4005 113.506C58.9886 113.672 58.5205 113.473 58.3543 113.061L58.2539 112.813C58.0878 112.401 58.2868 111.933 58.6987 111.766L62.5504 110.211C62.9623 110.045 63.4304 110.244 63.5966 110.656L63.6969 110.905C63.8631 111.316 63.664 111.785 63.2521 111.951Z" fill="#E1E1E1"/>
<path d="M62.8514 110.283C62.7675 110.283 62.6818 110.299 62.5996 110.332L58.7479 111.887C58.4035 112.025 58.2357 112.419 58.375 112.764L58.4754 113.013C58.6147 113.357 59.0084 113.524 59.3528 113.386L63.2044 111.831C63.5488 111.691 63.7167 111.298 63.5774 110.953L63.477 110.705C63.3715 110.443 63.1179 110.283 62.8514 110.283ZM59.1019 113.694C58.7315 113.694 58.381 113.473 58.2348 113.109L58.1344 112.861C57.9414 112.383 58.1734 111.838 58.6502 111.645L62.5027 110.091C62.9795 109.898 63.5255 110.13 63.7176 110.608L63.818 110.856C64.0109 111.334 63.779 111.879 63.3014 112.071L59.4497 113.626C59.3355 113.672 59.2178 113.694 59.1019 113.694Z" fill="#292526"/>
<path d="M64.7951 115.774L60.9435 117.329C60.5316 117.495 60.0634 117.296 59.8973 116.884L59.7969 116.636C59.6308 116.224 59.8298 115.756 60.2417 115.59L64.0933 114.035C64.5052 113.868 64.9734 114.067 65.1395 114.479L65.2399 114.728C65.406 115.14 65.207 115.608 64.7951 115.774Z" fill="#E1E1E1"/>
<path d="M64.3928 114.106C64.3089 114.106 64.2232 114.122 64.141 114.155L60.2894 115.71C60.1223 115.777 59.9917 115.905 59.9207 116.071C59.8506 116.237 59.8489 116.42 59.9164 116.587L60.0168 116.836C60.1561 117.18 60.549 117.347 60.8942 117.209L64.7459 115.654C64.9129 115.586 65.0435 115.458 65.1136 115.292C65.1846 115.127 65.1863 114.943 65.1188 114.776L65.0184 114.528C64.9129 114.266 64.6593 114.106 64.3928 114.106ZM60.6433 117.517C60.2729 117.517 59.9224 117.296 59.7762 116.933L59.6758 116.684C59.5824 116.453 59.585 116.199 59.6819 115.969C59.7797 115.74 59.9605 115.562 60.1924 115.468L64.0441 113.914C64.5209 113.722 65.0669 113.953 65.259 114.431L65.3594 114.679C65.4528 114.91 65.4502 115.165 65.3533 115.394C65.2555 115.623 65.0747 115.802 64.8428 115.894L60.9911 117.449C60.8769 117.495 60.7592 117.517 60.6433 117.517Z" fill="#292526"/>
<path d="M66.3381 119.597L62.4865 121.152C62.0746 121.318 61.6064 121.119 61.4403 120.707L61.3399 120.459C61.1737 120.047 61.3728 119.579 61.7847 119.413L65.6363 117.858C66.0482 117.691 66.5163 117.89 66.6825 118.302L66.7829 118.551C66.949 118.963 66.75 119.431 66.3381 119.597Z" fill="#E1E1E1"/>
<path d="M65.9366 117.929C65.851 117.929 65.7653 117.945 65.6839 117.978L61.8323 119.533C61.6653 119.6 61.5346 119.729 61.4637 119.894C61.3936 120.06 61.3919 120.243 61.4593 120.41L61.5597 120.659C61.6272 120.826 61.7553 120.956 61.9214 121.027C62.0867 121.097 62.2702 121.098 62.4372 121.032L66.2888 119.477C66.4558 119.409 66.5865 119.281 66.6566 119.116C66.7275 118.95 66.7293 118.766 66.6618 118.599L66.5614 118.351C66.4939 118.184 66.3658 118.053 66.1997 117.983C66.1149 117.947 66.0257 117.929 65.9366 117.929ZM62.1845 121.341C62.0608 121.341 61.937 121.316 61.8193 121.265C61.59 121.168 61.4126 120.987 61.3192 120.756L61.2188 120.507C61.1253 120.276 61.1279 120.022 61.2248 119.793C61.3226 119.563 61.5035 119.385 61.7354 119.292L65.587 117.737C65.8181 117.644 66.0716 117.647 66.3018 117.744C66.5311 117.841 66.7085 118.023 66.802 118.254L66.9023 118.502C66.9958 118.733 66.9932 118.988 66.8963 119.217C66.7985 119.446 66.6176 119.625 66.3857 119.717L62.5341 121.272C62.4216 121.318 62.3031 121.341 62.1845 121.341Z" fill="#292526"/>
<path d="M77.1389 146.359L73.2872 147.913C72.8753 148.08 72.4072 147.881 72.241 147.469L72.1407 147.22C71.9745 146.808 72.1735 146.34 72.5854 146.174L76.4371 144.619C76.849 144.454 77.3171 144.653 77.4833 145.064L77.5837 145.312C77.7498 145.724 77.5508 146.193 77.1389 146.359Z" fill="#E1E1E1"/>
<path d="M76.7374 144.691C76.6517 144.691 76.5661 144.707 76.4847 144.74L72.6331 146.294C72.4661 146.362 72.3354 146.49 72.2653 146.656C72.1944 146.821 72.1926 147.005 72.2601 147.172L72.3605 147.42C72.428 147.587 72.5561 147.718 72.7222 147.789C72.8875 147.859 73.071 147.861 73.238 147.793L77.0896 146.239C77.2566 146.172 77.3873 146.043 77.4582 145.877C77.5283 145.711 77.5301 145.529 77.4626 145.362L77.3622 145.112C77.2947 144.945 77.1666 144.815 77.0005 144.745C76.9157 144.708 76.8265 144.691 76.7374 144.691ZM72.9853 148.102C72.8615 148.102 72.7378 148.077 72.6201 148.028C72.3908 147.93 72.2134 147.749 72.1199 147.517L72.0196 147.269C71.9261 147.038 71.9287 146.784 72.0256 146.554C72.1234 146.325 72.3043 146.147 72.5362 146.054L76.3878 144.499C76.6188 144.406 76.8724 144.408 77.1026 144.506C77.3319 144.604 77.5093 144.784 77.6027 145.015L77.7031 145.264C77.7966 145.496 77.794 145.749 77.6971 145.979C77.5993 146.208 77.4184 146.386 77.1865 146.48L73.3349 148.034C73.2224 148.08 73.1038 148.102 72.9853 148.102Z" fill="#292526"/>
<path d="M75.5959 142.536L71.7443 144.09C71.3324 144.257 70.8642 144.057 70.6981 143.646L70.5977 143.397C70.4315 142.985 70.6306 142.517 71.0425 142.351L74.8941 140.796C75.306 140.63 75.7742 140.83 75.9403 141.241L76.0407 141.49C76.2068 141.901 76.0078 142.37 75.5959 142.536Z" fill="#E1E1E1"/>
<path d="M75.1944 140.867C75.1088 140.867 75.0231 140.884 74.9418 140.916L71.0901 142.471C70.9231 142.539 70.7924 142.667 70.7224 142.833C70.6514 142.998 70.6497 143.182 70.7172 143.349L70.8175 143.597C70.9569 143.941 71.3506 144.109 71.695 143.97L75.5466 142.416C75.891 142.277 76.0589 141.883 75.9196 141.538L75.8192 141.289C75.7517 141.122 75.6236 140.992 75.4575 140.921C75.3727 140.885 75.2836 140.867 75.1944 140.867ZM71.4441 144.279C71.0746 144.279 70.7232 144.057 70.577 143.694L70.4766 143.446C70.3831 143.215 70.3857 142.961 70.4827 142.731C70.5804 142.502 70.7613 142.324 70.9932 142.231L74.8448 140.676C75.0759 140.582 75.3294 140.585 75.5596 140.683C75.7889 140.78 75.9663 140.961 76.0598 141.192L76.1602 141.441C76.3531 141.918 76.1212 142.463 75.6435 142.656L71.7919 144.211C71.6777 144.256 71.56 144.279 71.4441 144.279Z" fill="#292526"/>
<path d="M74.0529 138.713L70.2013 140.267C69.7894 140.433 69.3213 140.234 69.1551 139.823L69.0547 139.574C68.8886 139.162 69.0876 138.694 69.4995 138.528L73.3511 136.973C73.763 136.807 74.2312 137.006 74.3973 137.418L74.4977 137.666C74.6639 138.078 74.4648 138.547 74.0529 138.713Z" fill="#E1E1E1"/>
<path d="M73.6502 137.045C73.5663 137.045 73.4806 137.06 73.3984 137.093L69.5467 138.648C69.2023 138.788 69.0345 139.181 69.1738 139.526L69.2742 139.774C69.3417 139.941 69.4697 140.072 69.6359 140.142C69.8012 140.213 69.9846 140.215 70.1516 140.147L74.0032 138.593C74.1703 138.525 74.3009 138.396 74.3719 138.231C74.442 138.065 74.4437 137.882 74.3762 137.715L74.2758 137.466C74.1703 137.204 73.9167 137.045 73.6502 137.045ZM69.8989 140.456C69.7752 140.456 69.6515 140.431 69.5338 140.382C69.3044 140.284 69.1271 140.103 69.0336 139.871L68.9332 139.623C68.7403 139.145 68.9722 138.6 69.4498 138.408L73.3015 136.853C73.7791 136.661 74.3243 136.892 74.5164 137.369L74.6168 137.618C74.7102 137.85 74.7076 138.103 74.6107 138.332C74.5129 138.562 74.3321 138.74 74.1002 138.833L70.2485 140.388C70.1361 140.433 70.0175 140.456 69.8989 140.456Z" fill="#292526"/>
<path d="M72.51 134.89L68.6583 136.444C68.2464 136.61 67.7783 136.411 67.6121 135.999L67.5118 135.751C67.3456 135.339 67.5446 134.871 67.9565 134.705L71.8082 133.15C72.2201 132.984 72.6882 133.183 72.8544 133.595L72.9547 133.843C73.1209 134.255 72.9219 134.724 72.51 134.89Z" fill="#E1E1E1"/>
<path d="M72.1085 133.221C72.0228 133.221 71.9372 133.237 71.8558 133.27L68.0042 134.825C67.8372 134.893 67.7065 135.021 67.6364 135.187C67.5655 135.352 67.5637 135.536 67.6312 135.703L67.7316 135.951C67.7991 136.118 67.9272 136.249 68.0933 136.319C68.2586 136.39 68.4421 136.391 68.6091 136.324L72.4607 134.769C72.6277 134.702 72.7584 134.573 72.8293 134.408C72.8994 134.242 72.9012 134.058 72.8337 133.892L72.7333 133.643C72.6658 133.476 72.5377 133.345 72.3716 133.275C72.2868 133.239 72.1976 133.221 72.1085 133.221ZM68.3564 136.633C68.2326 136.633 68.1089 136.608 67.9912 136.558C67.7619 136.461 67.5845 136.28 67.491 136.048L67.3907 135.799C67.2972 135.568 67.2998 135.315 67.3967 135.085C67.4945 134.855 67.6754 134.678 67.9073 134.585L71.7589 133.03C71.99 132.936 72.2435 132.939 72.4737 133.036C72.703 133.133 72.8804 133.315 72.9738 133.546L73.0742 133.794C73.1677 134.026 73.1651 134.28 73.0682 134.509C72.9704 134.739 72.7895 134.917 72.5576 135.01L68.706 136.564C68.5935 136.61 68.4749 136.633 68.3564 136.633Z" fill="#292526"/>
<path d="M70.967 131.067L67.1154 132.621C66.7035 132.787 66.2353 132.588 66.0692 132.176L65.9688 131.928C65.8026 131.516 66.0017 131.048 66.4136 130.882L70.2652 129.327C70.6771 129.161 71.1453 129.36 71.3114 129.772L71.4118 130.02C71.5779 130.432 71.3789 130.9 70.967 131.067Z" fill="#E1E1E1"/>
<path d="M70.5647 129.399C70.4807 129.399 70.3951 129.414 70.3128 129.447L66.4612 131.002C66.2942 131.07 66.1635 131.198 66.0926 131.364C66.0225 131.529 66.0208 131.713 66.0883 131.88L66.1886 132.128C66.328 132.472 66.7217 132.64 67.0661 132.501L70.9177 130.946C71.0847 130.878 71.2154 130.75 71.2864 130.585C71.3564 130.419 71.3582 130.235 71.2907 130.068L71.1903 129.82C71.0847 129.558 70.8312 129.399 70.5647 129.399ZM66.8151 132.809C66.4456 132.809 66.0943 132.588 65.9481 132.225L65.8477 131.976C65.7542 131.745 65.7568 131.491 65.8538 131.262C65.9515 131.032 66.1324 130.854 66.3643 130.762L70.2159 129.206C70.6936 129.014 71.2388 129.245 71.4309 129.723L71.5313 129.971C71.6247 130.203 71.6221 130.457 71.5252 130.686C71.4274 130.916 71.2466 131.094 71.0146 131.187L67.163 132.741C67.0488 132.787 66.9311 132.809 66.8151 132.809Z" fill="#292526"/>
<path d="M69.424 127.244L65.5724 128.798C65.1605 128.964 64.6923 128.765 64.5262 128.353L64.4258 128.105C64.2597 127.693 64.4587 127.225 64.8706 127.059L68.7222 125.504C69.1341 125.338 69.6023 125.537 69.7684 125.948L69.8688 126.197C70.035 126.609 69.8359 127.078 69.424 127.244Z" fill="#E1E1E1"/>
<path d="M69.0213 125.576C68.9374 125.576 68.8517 125.591 68.7695 125.624L64.9179 127.179C64.5734 127.318 64.4056 127.711 64.5449 128.057L64.6453 128.305C64.7846 128.649 65.1783 128.816 65.5227 128.678L69.3744 127.123C69.7188 126.984 69.8866 126.591 69.7473 126.245L69.6469 125.997C69.5414 125.735 69.2878 125.576 69.0213 125.576ZM65.2718 128.986C64.9014 128.986 64.5509 128.765 64.4047 128.402L64.3043 128.153C64.1114 127.676 64.3433 127.131 64.8209 126.939L68.6726 125.383C69.1502 125.191 69.6954 125.422 69.8875 125.9L69.9879 126.148C70.1808 126.626 69.9489 127.171 69.4713 127.364L65.6196 128.918C65.5054 128.964 65.3877 128.986 65.2718 128.986Z" fill="#292526"/>
<path d="M67.881 123.42L64.0294 124.975C63.6175 125.141 63.1494 124.942 62.9832 124.53L62.8828 124.282C62.7167 123.87 62.9157 123.402 63.3276 123.236L67.1793 121.681C67.5912 121.515 68.0593 121.714 68.2255 122.125L68.3258 122.374C68.492 122.786 68.2929 123.254 67.881 123.42Z" fill="#E1E1E1"/>
<path d="M67.4787 121.752C67.3948 121.752 67.3091 121.768 67.2269 121.801L63.3753 123.356C63.2083 123.423 63.0776 123.552 63.0067 123.718C62.9366 123.883 62.9348 124.066 63.0023 124.233L63.1027 124.482C63.242 124.826 63.6349 124.993 63.9802 124.855L67.8318 123.3C67.9988 123.232 68.1295 123.104 68.1996 122.939C68.2705 122.773 68.2722 122.589 68.2047 122.422L68.1044 122.174C67.9988 121.912 67.7452 121.752 67.4787 121.752ZM63.7292 125.163C63.3588 125.163 63.0084 124.942 62.8621 124.579L62.7618 124.33C62.6683 124.099 62.6709 123.845 62.7678 123.616C62.8656 123.386 63.0465 123.208 63.2784 123.115L67.13 121.56C67.6077 121.367 68.1528 121.599 68.3449 122.077L68.4453 122.325C68.5388 122.556 68.5362 122.811 68.4392 123.04C68.3415 123.269 68.1606 123.448 67.9287 123.541L64.0771 125.095C63.9628 125.141 63.8452 125.163 63.7292 125.163Z" fill="#292526"/>
<path d="M17.0488 112.814L50.1308 99.4639L17.0488 112.814Z" fill="#FCFCFC"/>
<path d="M17.0477 112.944C16.9967 112.944 16.9482 112.914 16.9275 112.864C16.9006 112.797 16.9326 112.721 16.9993 112.694L50.0812 99.3436C50.1478 99.3168 50.2231 99.3488 50.25 99.4154C50.2768 99.4812 50.2448 99.5573 50.1781 99.5842L17.0962 112.935C17.0806 112.942 17.0642 112.944 17.0477 112.944Z" fill="#292526"/>
<path d="M18.7012 116.913L51.7831 103.561L18.7012 116.913Z" fill="#FCFCFC"/>
<path d="M18.702 117.042C18.651 117.042 18.6025 117.011 18.5817 116.961C18.5549 116.894 18.5869 116.819 18.6536 116.792L51.7355 103.441C51.8022 103.414 51.8774 103.446 51.9043 103.513C51.9311 103.579 51.8991 103.655 51.8324 103.682L18.7513 117.033C18.7349 117.039 18.7185 117.042 18.702 117.042Z" fill="#292526"/>
<path d="M20.3555 121.01L53.4374 107.659L20.3555 121.01Z" fill="#FCFCFC"/>
<path d="M20.3571 121.14C20.3052 121.14 20.2567 121.109 20.2359 121.058C20.2091 120.992 20.242 120.917 20.3078 120.89L53.3897 107.538C53.4563 107.512 53.5316 107.544 53.5585 107.61C53.5853 107.677 53.5533 107.752 53.4866 107.779L20.4055 121.13C20.3891 121.137 20.3727 121.14 20.3571 121.14Z" fill="#292526"/>
<path d="M22.0098 125.107L55.0909 111.757L22.0098 125.107Z" fill="#FCFCFC"/>
<path d="M22.0094 125.237C21.9575 125.237 21.909 125.207 21.8883 125.157C21.8614 125.09 21.8943 125.014 21.9601 124.987L55.042 111.637C55.1087 111.61 55.184 111.642 55.2108 111.709C55.2385 111.774 55.2056 111.85 55.1398 111.877L22.0579 125.229C22.0415 125.235 22.025 125.237 22.0094 125.237Z" fill="#292526"/>
<path d="M23.6641 129.206L56.7451 115.854L23.6641 129.206Z" fill="#FCFCFC"/>
<path d="M23.663 129.335C23.6111 129.335 23.5626 129.304 23.5427 129.254C23.5159 129.187 23.5479 129.112 23.6136 129.085L56.6956 115.734C56.7622 115.707 56.8384 115.739 56.8652 115.806C56.892 115.872 56.8591 115.948 56.7934 115.975L23.7114 129.326C23.695 129.332 23.6786 129.335 23.663 129.335Z" fill="#292526"/>
<path d="M25.25 133.136L39.5082 127.382L25.25 133.136Z" fill="#FCFCFC"/>
<path d="M25.2489 133.266C25.1979 133.266 25.1485 133.236 25.1286 133.185C25.1018 133.119 25.1338 133.043 25.2005 133.016L39.4578 127.262C39.5244 127.235 39.6006 127.267 39.6274 127.334C39.6542 127.401 39.6213 127.476 39.5556 127.503L25.2974 133.257C25.2818 133.263 25.2653 133.266 25.2489 133.266Z" fill="#292526"/>
<path d="M26.9043 137.234L41.1625 131.48L26.9043 137.234Z" fill="#FCFCFC"/>
<path d="M26.9032 137.364C26.8521 137.364 26.8037 137.333 26.7829 137.283C26.7561 137.216 26.7881 137.141 26.8547 137.114L41.1121 131.359C41.1787 131.333 41.2549 131.365 41.2817 131.431C41.3085 131.498 41.2765 131.573 41.2099 131.6L26.9517 137.355C26.9361 137.361 26.9196 137.364 26.9032 137.364Z" fill="#292526"/>
<path d="M28.5566 141.332L42.8148 135.578L28.5566 141.332Z" fill="#FCFCFC"/>
<path d="M28.5575 141.461C28.5064 141.461 28.458 141.431 28.4372 141.38C28.4104 141.313 28.4424 141.238 28.509 141.211L42.7672 135.458C42.833 135.431 42.9092 135.463 42.936 135.529C42.9628 135.595 42.9308 135.671 42.8642 135.698L28.606 141.452C28.5904 141.459 28.5739 141.461 28.5575 141.461Z" fill="#292526"/>
<path d="M30.2109 145.43L44.4691 139.675L30.2109 145.43Z" fill="#FCFCFC"/>
<path d="M30.2098 145.56C30.1588 145.56 30.1103 145.529 30.0896 145.478C30.0627 145.412 30.0948 145.336 30.1614 145.309L44.4196 139.555C44.4854 139.528 44.5615 139.56 44.5883 139.627C44.6152 139.694 44.5831 139.769 44.5165 139.796L30.2583 145.55C30.2427 145.556 30.2263 145.56 30.2098 145.56Z" fill="#292526"/>
<path d="M31.8652 149.527L46.1234 143.773L31.8652 149.527Z" fill="#FCFCFC"/>
<path d="M31.8641 149.657C31.8131 149.657 31.7646 149.626 31.7439 149.576C31.717 149.509 31.7491 149.434 31.8157 149.407L46.0739 143.653C46.1397 143.626 46.2158 143.658 46.2426 143.724C46.2695 143.791 46.2374 143.866 46.1708 143.893L31.9126 149.648C31.897 149.654 31.8806 149.657 31.8641 149.657Z" fill="#292526"/>
<path d="M43.793 125.653L58.7945 119.599L43.793 125.653Z" fill="#FCFCFC"/>
<path d="M43.7938 125.782C43.7428 125.782 43.6943 125.751 43.6735 125.701C43.6467 125.634 43.6787 125.559 43.7454 125.532L58.7469 119.477C58.8127 119.451 58.8888 119.484 58.9156 119.549C58.9425 119.616 58.9105 119.692 58.8438 119.719L43.8423 125.773C43.8267 125.779 43.8103 125.782 43.7938 125.782Z" fill="#292526"/>
<path d="M45.4473 129.75L60.4488 123.696L45.4473 129.75Z" fill="#FCFCFC"/>
<path d="M45.4481 129.88C45.3971 129.88 45.3486 129.85 45.3278 129.798C45.301 129.732 45.333 129.657 45.3997 129.63L60.4012 123.576C60.467 123.549 60.5431 123.581 60.5699 123.648C60.5968 123.714 60.5647 123.79 60.4981 123.816L45.4966 129.87C45.481 129.877 45.4646 129.88 45.4481 129.88Z" fill="#292526"/>
<path d="M47.1016 133.847L62.1031 127.793L47.1016 133.847Z" fill="#FCFCFC"/>
<path d="M47.1005 133.977C47.0494 133.977 47.001 133.947 46.9802 133.897C46.9534 133.83 46.9854 133.754 47.052 133.727L62.0535 127.673C62.1193 127.646 62.1955 127.678 62.2223 127.745C62.2491 127.812 62.2171 127.887 62.1505 127.914L47.1498 133.969C47.1333 133.975 47.1169 133.977 47.1005 133.977Z" fill="#292526"/>
<path d="M48.7559 137.946L63.7574 131.892L48.7559 137.946Z" fill="#FCFCFC"/>
<path d="M48.7555 138.075C48.7036 138.075 48.6551 138.044 48.6344 137.994C48.6075 137.927 48.6404 137.852 48.7062 137.825L63.7077 131.771C63.7744 131.744 63.8496 131.777 63.8765 131.842C63.9033 131.909 63.8713 131.985 63.8046 132.012L48.804 138.066C48.7875 138.072 48.7711 138.075 48.7555 138.075Z" fill="#292526"/>
<path d="M50.4102 142.043L65.4108 135.989L50.4102 142.043Z" fill="#FCFCFC"/>
<path d="M50.4098 142.173C50.3579 142.173 50.3094 142.142 50.2887 142.091C50.2618 142.025 50.2947 141.949 50.3605 141.923L65.362 135.869C65.4287 135.842 65.5039 135.874 65.5308 135.941C65.5576 136.007 65.5256 136.082 65.4589 136.109L50.4583 142.163C50.4418 142.17 50.4254 142.173 50.4098 142.173Z" fill="#292526"/>
<path d="M216.51 71.8526H94.8518C92.8503 71.8526 91.1577 70.3712 90.8929 68.3869L82.3814 4.52053C82.0621 2.127 83.9243 -7.62939e-06 86.3395 -7.62939e-06H225.412C227.836 -7.62939e-06 229.702 2.14258 229.367 4.54476L220.465 68.4103C220.19 70.3842 218.502 71.8526 216.51 71.8526Z" fill="#292526"/>
<path d="M217.51 150.226H93.361C91.6225 150.226 90.2129 148.816 90.2129 147.077V74.8787C90.2129 73.1394 91.6225 71.7297 93.361 71.7297H217.51C219.25 71.7297 220.659 73.1394 220.659 74.8787V147.077C220.659 148.816 219.25 150.226 217.51 150.226Z" fill="#E1E1E1"/>
<path d="M170.37 148.613H140.5C139.569 148.613 138.814 147.858 138.814 146.927V131.663C138.814 130.732 139.569 129.977 140.5 129.977H170.37C171.301 129.977 172.056 130.732 172.056 131.663V146.927C172.056 147.858 171.301 148.613 170.37 148.613Z" fill="#F5F5F5"/>
<path d="M94.6387 126.05H216.234V77.3406H94.6387V126.05Z" fill="white"/>
<path d="M104.534 83.4742H97.7274C97.4246 83.4742 97.1797 83.2293 97.1797 82.9264V80.3261C97.1797 80.0232 97.4246 79.7783 97.7274 79.7783H104.534C104.837 79.7783 105.083 80.0232 105.083 80.3261V82.9264C105.083 83.2293 104.837 83.4742 104.534 83.4742Z" fill="#292526"/>
<path d="M114.408 83.4742H107.6C107.298 83.4742 107.053 83.2293 107.053 82.9264V80.3261C107.053 80.0232 107.298 79.7783 107.6 79.7783H114.408C114.71 79.7783 114.956 80.0232 114.956 80.3261V82.9264C114.956 83.2293 114.71 83.4742 114.408 83.4742Z" fill="#292526"/>
<path d="M124.281 83.4742H117.474C117.172 83.4742 116.926 83.2293 116.926 82.9264V80.3261C116.926 80.0232 117.172 79.7783 117.474 79.7783H124.281C124.583 79.7783 124.829 80.0232 124.829 80.3261V82.9264C124.829 83.2293 124.583 83.4742 124.281 83.4742Z" fill="#292526"/>
<path d="M134.156 83.4742H127.349C127.047 83.4742 126.801 83.2293 126.801 82.9264V80.3261C126.801 80.0232 127.047 79.7783 127.349 79.7783H134.156C134.458 79.7783 134.704 80.0232 134.704 80.3261V82.9264C134.704 83.2293 134.458 83.4742 134.156 83.4742Z" fill="#292526"/>
<path d="M144.029 83.4742H137.222C136.92 83.4742 136.674 83.2293 136.674 82.9264V80.3261C136.674 80.0232 136.92 79.7783 137.222 79.7783H144.029C144.331 79.7783 144.577 80.0232 144.577 80.3261V82.9264C144.577 83.2293 144.331 83.4742 144.029 83.4742Z" fill="#292526"/>
<path d="M153.902 83.4742H147.096C146.793 83.4742 146.547 83.2293 146.547 82.9264V80.3261C146.547 80.0232 146.793 79.7783 147.096 79.7783H153.902C154.204 79.7783 154.45 80.0232 154.45 80.3261V82.9264C154.45 83.2293 154.204 83.4742 153.902 83.4742Z" fill="#292526"/>
<path d="M163.775 83.4742H156.969C156.666 83.4742 156.42 83.2293 156.42 82.9264V80.3261C156.42 80.0232 156.666 79.7783 156.969 79.7783H163.775C164.078 79.7783 164.323 80.0232 164.323 80.3261V82.9264C164.323 83.2293 164.078 83.4742 163.775 83.4742Z" fill="#292526"/>
<path d="M173.65 83.4742H166.844C166.541 83.4742 166.295 83.2293 166.295 82.9264V80.3261C166.295 80.0232 166.541 79.7783 166.844 79.7783H173.65C173.953 79.7783 174.198 80.0232 174.198 80.3261V82.9264C174.198 83.2293 173.953 83.4742 173.65 83.4742Z" fill="#292526"/>
<path d="M183.522 83.4742H176.716C176.413 83.4742 176.168 83.2293 176.168 82.9264V80.3261C176.168 80.0232 176.413 79.7783 176.716 79.7783H183.522C183.825 79.7783 184.07 80.0232 184.07 80.3261V82.9264C184.07 83.2293 183.825 83.4742 183.522 83.4742Z" fill="#292526"/>
<path d="M193.396 83.4742H186.589C186.286 83.4742 186.041 83.2293 186.041 82.9264V80.3261C186.041 80.0232 186.286 79.7783 186.589 79.7783H193.396C193.698 79.7783 193.943 80.0232 193.943 80.3261V82.9264C193.943 83.2293 193.698 83.4742 193.396 83.4742Z" fill="#292526"/>
<path d="M203.271 83.4742H196.464C196.161 83.4742 195.916 83.2293 195.916 82.9264V80.3261C195.916 80.0232 196.161 79.7783 196.464 79.7783H203.271C203.573 79.7783 203.818 80.0232 203.818 80.3261V82.9264C203.818 83.2293 203.573 83.4742 203.271 83.4742Z" fill="#292526"/>
<path d="M213.144 83.4742H206.337C206.034 83.4742 205.789 83.2293 205.789 82.9264V80.3261C205.789 80.0232 206.034 79.7783 206.337 79.7783H213.144C213.446 79.7783 213.691 80.0232 213.691 80.3261V82.9264C213.691 83.2293 213.446 83.4742 213.144 83.4742Z" fill="#292526"/>
<path d="M104.177 91.4751H97.7274C97.4246 91.4751 97.1797 91.2302 97.1797 90.9273V85.4826C97.1797 85.1797 97.4246 84.9349 97.7274 84.9349H104.177C104.48 84.9349 104.725 85.1797 104.725 85.4826V90.9273C104.725 91.2302 104.48 91.4751 104.177 91.4751Z" fill="#292526"/>
<path d="M113.603 91.4751H107.153C106.85 91.4751 106.605 91.2302 106.605 90.9273V85.4826C106.605 85.1797 106.85 84.9349 107.153 84.9349H113.603C113.905 84.9349 114.15 85.1797 114.15 85.4826V90.9273C114.15 91.2302 113.905 91.4751 113.603 91.4751Z" fill="#292526"/>
<path d="M123.03 91.4751H116.581C116.279 91.4751 116.033 91.2302 116.033 90.9273V85.4826C116.033 85.1797 116.279 84.9349 116.581 84.9349H123.03C123.333 84.9349 123.578 85.1797 123.578 85.4826V90.9273C123.578 91.2302 123.333 91.4751 123.03 91.4751Z" fill="#292526"/>
<path d="M132.456 91.4751H126.007C125.704 91.4751 125.459 91.2302 125.459 90.9273V85.4826C125.459 85.1797 125.704 84.9349 126.007 84.9349H132.456C132.758 84.9349 133.004 85.1797 133.004 85.4826V90.9273C133.004 91.2302 132.758 91.4751 132.456 91.4751Z" fill="#292526"/>
<path d="M141.884 91.4751H135.435C135.132 91.4751 134.887 91.2302 134.887 90.9273V85.4826C134.887 85.1797 135.132 84.9349 135.435 84.9349H141.884C142.187 84.9349 142.432 85.1797 142.432 85.4826V90.9273C142.432 91.2302 142.187 91.4751 141.884 91.4751Z" fill="#292526"/>
<path d="M151.31 91.4751H144.86C144.557 91.4751 144.312 91.2302 144.312 90.9273V85.4826C144.312 85.1797 144.557 84.9349 144.86 84.9349H151.31C151.613 84.9349 151.857 85.1797 151.857 85.4826V90.9273C151.857 91.2302 151.613 91.4751 151.31 91.4751Z" fill="#292526"/>
<path d="M160.736 91.4751H154.287C153.984 91.4751 153.738 91.2302 153.738 90.9273V85.4826C153.738 85.1797 153.984 84.9349 154.287 84.9349H160.736C161.038 84.9349 161.284 85.1797 161.284 85.4826V90.9273C161.284 91.2302 161.038 91.4751 160.736 91.4751Z" fill="#292526"/>
<path d="M170.163 91.4751H163.714C163.412 91.4751 163.166 91.2302 163.166 90.9273V85.4826C163.166 85.1797 163.412 84.9349 163.714 84.9349H170.163C170.466 84.9349 170.711 85.1797 170.711 85.4826V90.9273C170.711 91.2302 170.466 91.4751 170.163 91.4751Z" fill="#292526"/>
<path d="M179.591 91.4751H173.142C172.839 91.4751 172.594 91.2302 172.594 90.9273V85.4826C172.594 85.1797 172.839 84.9349 173.142 84.9349H179.591C179.893 84.9349 180.139 85.1797 180.139 85.4826V90.9273C180.139 91.2302 179.893 91.4751 179.591 91.4751Z" fill="#292526"/>
<path d="M189.017 91.4751H182.567C182.265 91.4751 182.02 91.2302 182.02 90.9273V85.4826C182.02 85.1797 182.265 84.9349 182.567 84.9349H189.017C189.32 84.9349 189.565 85.1797 189.565 85.4826V90.9273C189.565 91.2302 189.32 91.4751 189.017 91.4751Z" fill="#292526"/>
<path d="M198.442 91.4751H191.993C191.69 91.4751 191.445 91.2302 191.445 90.9273V85.4826C191.445 85.1797 191.69 84.9349 191.993 84.9349H198.442C198.745 84.9349 198.99 85.1797 198.99 85.4826V90.9273C198.99 91.2302 198.745 91.4751 198.442 91.4751Z" fill="#292526"/>
<path d="M213.144 91.4751H201.422C201.119 91.4751 200.873 91.2302 200.873 90.9273V85.4826C200.873 85.1797 201.119 84.9349 201.422 84.9349H213.144C213.447 84.9349 213.692 85.1797 213.692 85.4826V90.9273C213.692 91.2302 213.447 91.4751 213.144 91.4751Z" fill="#292526"/>
<path d="M104.177 107.172H97.7274C97.4246 107.172 97.1797 106.927 97.1797 106.624V101.179C97.1797 100.876 97.4246 100.631 97.7274 100.631H104.177C104.48 100.631 104.725 100.876 104.725 101.179V106.624C104.725 106.927 104.48 107.172 104.177 107.172Z" fill="#292526"/>
<path d="M113.603 107.172H107.153C106.85 107.172 106.605 106.927 106.605 106.624V101.179C106.605 100.876 106.85 100.631 107.153 100.631H113.603C113.905 100.631 114.15 100.876 114.15 101.179V106.624C114.15 106.927 113.905 107.172 113.603 107.172Z" fill="#292526"/>
<path d="M123.03 107.172H116.581C116.279 107.172 116.033 106.927 116.033 106.624V101.179C116.033 100.876 116.279 100.631 116.581 100.631H123.03C123.333 100.631 123.578 100.876 123.578 101.179V106.624C123.578 106.927 123.333 107.172 123.03 107.172Z" fill="#292526"/>
<path d="M132.456 107.172H126.007C125.704 107.172 125.459 106.927 125.459 106.624V101.179C125.459 100.876 125.704 100.631 126.007 100.631H132.456C132.758 100.631 133.004 100.876 133.004 101.179V106.624C133.004 106.927 132.758 107.172 132.456 107.172Z" fill="#292526"/>
<path d="M141.884 107.172H135.435C135.132 107.172 134.887 106.927 134.887 106.624V101.179C134.887 100.876 135.132 100.631 135.435 100.631H141.884C142.187 100.631 142.432 100.876 142.432 101.179V106.624C142.432 106.927 142.187 107.172 141.884 107.172Z" fill="#292526"/>
<path d="M151.31 107.172H144.86C144.557 107.172 144.312 106.927 144.312 106.624V101.179C144.312 100.876 144.557 100.631 144.86 100.631H151.31C151.613 100.631 151.857 100.876 151.857 101.179V106.624C151.857 106.927 151.613 107.172 151.31 107.172Z" fill="#292526"/>
<path d="M160.736 107.172H154.287C153.984 107.172 153.738 106.927 153.738 106.624V101.179C153.738 100.876 153.984 100.631 154.287 100.631H160.736C161.038 100.631 161.284 100.876 161.284 101.179V106.624C161.284 106.927 161.038 107.172 160.736 107.172Z" fill="#292526"/>
<path d="M170.163 107.172H163.714C163.412 107.172 163.166 106.927 163.166 106.624V101.179C163.166 100.876 163.412 100.631 163.714 100.631H170.163C170.466 100.631 170.711 100.876 170.711 101.179V106.624C170.711 106.927 170.466 107.172 170.163 107.172Z" fill="#292526"/>
<path d="M179.591 107.172H173.142C172.839 107.172 172.594 106.927 172.594 106.624V101.179C172.594 100.876 172.839 100.631 173.142 100.631H179.591C179.893 100.631 180.139 100.876 180.139 101.179V106.624C180.139 106.927 179.893 107.172 179.591 107.172Z" fill="#292526"/>
<path d="M189.017 107.172H182.567C182.265 107.172 182.02 106.927 182.02 106.624V101.179C182.02 100.876 182.265 100.631 182.567 100.631H189.017C189.32 100.631 189.565 100.876 189.565 101.179V106.624C189.565 106.927 189.32 107.172 189.017 107.172Z" fill="#292526"/>
<path d="M198.442 107.172H191.993C191.69 107.172 191.445 106.927 191.445 106.624V101.179C191.445 100.876 191.69 100.631 191.993 100.631H198.442C198.745 100.631 198.99 100.876 198.99 101.179V106.624C198.99 106.927 198.745 107.172 198.442 107.172Z" fill="#292526"/>
<path d="M213.144 107.172H201.422C201.119 107.172 200.873 106.927 200.873 106.624V101.179C200.873 100.876 201.119 100.631 201.422 100.631H213.144C213.447 100.631 213.692 100.876 213.692 101.179V106.624C213.692 106.927 213.447 107.172 213.144 107.172Z" fill="#292526"/>
<path d="M103.921 115.346H97.7274C97.4246 115.346 97.1797 115.1 97.1797 114.798V109.353C97.1797 109.05 97.4246 108.804 97.7274 108.804H103.921C104.224 108.804 104.469 109.05 104.469 109.353V114.798C104.469 115.1 104.224 115.346 103.921 115.346Z" fill="#292526"/>
<path d="M113.028 115.346H106.835C106.533 115.346 106.287 115.1 106.287 114.798V109.353C106.287 109.05 106.533 108.804 106.835 108.804H113.028C113.331 108.804 113.577 109.05 113.577 109.353V114.798C113.577 115.1 113.331 115.346 113.028 115.346Z" fill="#292526"/>
<path d="M122.134 115.346H115.94C115.638 115.346 115.393 115.1 115.393 114.798V109.353C115.393 109.05 115.638 108.804 115.94 108.804H122.134C122.436 108.804 122.682 109.05 122.682 109.353V114.798C122.682 115.1 122.436 115.346 122.134 115.346Z" fill="#292526"/>
<path d="M131.242 115.346H125.049C124.746 115.346 124.5 115.1 124.5 114.798V109.353C124.5 109.05 124.746 108.804 125.049 108.804H131.242C131.544 108.804 131.79 109.05 131.79 109.353V114.798C131.79 115.1 131.544 115.346 131.242 115.346Z" fill="#292526"/>
<path d="M140.349 115.346H134.156C133.853 115.346 133.607 115.1 133.607 114.798V109.353C133.607 109.05 133.853 108.804 134.156 108.804H140.349C140.652 108.804 140.897 109.05 140.897 109.353V114.798C140.897 115.1 140.652 115.346 140.349 115.346Z" fill="#292526"/>
<path d="M149.456 115.346H143.263C142.96 115.346 142.715 115.1 142.715 114.798V109.353C142.715 109.05 142.96 108.804 143.263 108.804H149.456C149.759 108.804 150.004 109.05 150.004 109.353V114.798C150.004 115.1 149.759 115.346 149.456 115.346Z" fill="#292526"/>
<path d="M158.561 115.346H152.368C152.065 115.346 151.82 115.1 151.82 114.798V109.353C151.82 109.05 152.065 108.804 152.368 108.804H158.561C158.864 108.804 159.109 109.05 159.109 109.353V114.798C159.109 115.1 158.864 115.346 158.561 115.346Z" fill="#292526"/>
<path d="M167.669 115.346H161.476C161.173 115.346 160.928 115.1 160.928 114.798V109.353C160.928 109.05 161.173 108.804 161.476 108.804H167.669C167.972 108.804 168.216 109.05 168.216 109.353V114.798C168.216 115.1 167.972 115.346 167.669 115.346Z" fill="#292526"/>
<path d="M176.776 115.346H170.583C170.281 115.346 170.035 115.1 170.035 114.798V109.353C170.035 109.05 170.281 108.804 170.583 108.804H176.776C177.079 108.804 177.325 109.05 177.325 109.353V114.798C177.325 115.1 177.079 115.346 176.776 115.346Z" fill="#292526"/>
<path d="M185.884 115.346H179.69C179.388 115.346 179.143 115.1 179.143 114.798V109.353C179.143 109.05 179.388 108.804 179.69 108.804H185.884C186.186 108.804 186.432 109.05 186.432 109.353V114.798C186.432 115.1 186.186 115.346 185.884 115.346Z" fill="#292526"/>
<path d="M194.99 115.346H188.796C188.494 115.346 188.248 115.1 188.248 114.798V109.353C188.248 109.05 188.494 108.804 188.796 108.804H194.99C195.292 108.804 195.538 109.05 195.538 109.353V114.798C195.538 115.1 195.292 115.346 194.99 115.346Z" fill="#292526"/>
<path d="M213.144 115.346H197.904C197.601 115.346 197.355 115.1 197.355 114.798V109.353C197.355 109.05 197.601 108.804 197.904 108.804H213.144C213.446 108.804 213.691 109.05 213.691 109.353V114.798C213.691 115.1 213.446 115.346 213.144 115.346Z" fill="#292526"/>
<path d="M103.921 123.519H97.7274C97.4246 123.519 97.1797 123.274 97.1797 122.971V117.526C97.1797 117.223 97.4246 116.978 97.7274 116.978H103.921C104.224 116.978 104.469 117.223 104.469 117.526V122.971C104.469 123.274 104.224 123.519 103.921 123.519Z" fill="#292526"/>
<path d="M113.028 123.519H106.835C106.533 123.519 106.287 123.274 106.287 122.971V117.526C106.287 117.223 106.533 116.978 106.835 116.978H113.028C113.331 116.978 113.577 117.223 113.577 117.526V122.971C113.577 123.274 113.331 123.519 113.028 123.519Z" fill="#292526"/>
<path d="M122.134 123.519H115.94C115.638 123.519 115.393 123.274 115.393 122.971V117.526C115.393 117.223 115.638 116.978 115.94 116.978H122.134C122.436 116.978 122.682 117.223 122.682 117.526V122.971C122.682 123.274 122.436 123.519 122.134 123.519Z" fill="#292526"/>
<path d="M180.421 123.519H174.227C173.925 123.519 173.68 123.274 173.68 122.971V117.526C173.68 117.223 173.925 116.978 174.227 116.978H180.421C180.724 116.978 180.968 117.223 180.968 117.526V122.971C180.968 123.274 180.724 123.519 180.421 123.519Z" fill="#292526"/>
<path d="M188.887 123.519H182.694C182.392 123.519 182.146 123.274 182.146 122.971V117.526C182.146 117.223 182.392 116.978 182.694 116.978H188.887C189.19 116.978 189.436 117.223 189.436 117.526V122.971C189.436 123.274 189.19 123.519 188.887 123.519Z" fill="#292526"/>
<path d="M197.705 123.519H191.512C191.209 123.519 190.963 123.274 190.963 122.971V120.796C190.963 120.493 191.209 120.249 191.512 120.249H197.705C198.007 120.249 198.253 120.493 198.253 120.796V122.971C198.253 123.274 198.007 123.519 197.705 123.519Z" fill="#292526"/>
<path d="M205.865 123.519H199.672C199.369 123.519 199.123 123.274 199.123 122.971V120.796C199.123 120.493 199.369 120.249 199.672 120.249H205.865C206.167 120.249 206.413 120.493 206.413 120.796V122.971C206.413 123.274 206.167 123.519 205.865 123.519Z" fill="#292526"/>
<path d="M205.865 119.598H199.672C199.369 119.598 199.123 119.353 199.123 119.05V116.875C199.123 116.573 199.369 116.328 199.672 116.328H205.865C206.167 116.328 206.413 116.573 206.413 116.875V119.05C206.413 119.353 206.167 119.598 205.865 119.598Z" fill="#292526"/>
<path d="M214.023 123.519H207.83C207.527 123.519 207.281 123.274 207.281 122.971V120.796C207.281 120.493 207.527 120.249 207.83 120.249H214.023C214.326 120.249 214.571 120.493 214.571 120.796V122.971C214.571 123.274 214.326 123.519 214.023 123.519Z" fill="#292526"/>
<path d="M171.508 123.519H125.049C124.746 123.519 124.5 123.274 124.5 122.971V117.526C124.5 117.223 124.746 116.978 125.049 116.978H171.508C171.811 116.978 172.057 117.223 172.057 117.526V122.971C172.057 123.274 171.811 123.519 171.508 123.519Z" fill="#292526"/>
<path d="M107.339 99.1255H97.7274C97.4246 99.1255 97.1797 98.8807 97.1797 98.5778V93.1331C97.1797 92.8302 97.4246 92.5853 97.7274 92.5853H107.339C107.642 92.5853 107.887 92.8302 107.887 93.1331V98.5778C107.887 98.8807 107.642 99.1255 107.339 99.1255Z" fill="#292526"/>
<path d="M116.765 99.1255H110.315C110.012 99.1255 109.768 98.8807 109.768 98.5778V93.1331C109.768 92.8302 110.012 92.5853 110.315 92.5853H116.765C117.068 92.5853 117.312 92.8302 117.312 93.1331V98.5778C117.312 98.8807 117.068 99.1255 116.765 99.1255Z" fill="#292526"/>
<path d="M126.193 99.1255H119.744C119.441 99.1255 119.195 98.8807 119.195 98.5778V93.1331C119.195 92.8302 119.441 92.5853 119.744 92.5853H126.193C126.495 92.5853 126.741 92.8302 126.741 93.1331V98.5778C126.741 98.8807 126.495 99.1255 126.193 99.1255Z" fill="#292526"/>
<path d="M135.618 99.1255H129.169C128.867 99.1255 128.621 98.8807 128.621 98.5778V93.1331C128.621 92.8302 128.867 92.5853 129.169 92.5853H135.618C135.921 92.5853 136.166 92.8302 136.166 93.1331V98.5778C136.166 98.8807 135.921 99.1255 135.618 99.1255Z" fill="#292526"/>
<path d="M145.046 99.1255H138.597C138.294 99.1255 138.049 98.8807 138.049 98.5778V93.1331C138.049 92.8302 138.294 92.5853 138.597 92.5853H145.046C145.348 92.5853 145.594 92.8302 145.594 93.1331V98.5778C145.594 98.8807 145.348 99.1255 145.046 99.1255Z" fill="#292526"/>
<path d="M154.472 99.1255H148.022C147.72 99.1255 147.475 98.8807 147.475 98.5778V93.1331C147.475 92.8302 147.72 92.5853 148.022 92.5853H154.472C154.775 92.5853 155.02 92.8302 155.02 93.1331V98.5778C155.02 98.8807 154.775 99.1255 154.472 99.1255Z" fill="#292526"/>
<path d="M163.899 99.1255H157.45C157.147 99.1255 156.902 98.8807 156.902 98.5778V93.1331C156.902 92.8302 157.147 92.5853 157.45 92.5853H163.899C164.202 92.5853 164.447 92.8302 164.447 93.1331V98.5778C164.447 98.8807 164.202 99.1255 163.899 99.1255Z" fill="#292526"/>
<path d="M173.325 99.1255H166.877C166.574 99.1255 166.328 98.8807 166.328 98.5778V93.1331C166.328 92.8302 166.574 92.5853 166.877 92.5853H173.325C173.628 92.5853 173.874 92.8302 173.874 93.1331V98.5778C173.874 98.8807 173.628 99.1255 173.325 99.1255Z" fill="#292526"/>
<path d="M182.753 99.1255H176.304C176.002 99.1255 175.756 98.8807 175.756 98.5778V93.1331C175.756 92.8302 176.002 92.5853 176.304 92.5853H182.753C183.056 92.5853 183.301 92.8302 183.301 93.1331V98.5778C183.301 98.8807 183.056 99.1255 182.753 99.1255Z" fill="#292526"/>
<path d="M192.179 99.1255H185.729C185.427 99.1255 185.182 98.8807 185.182 98.5778V93.1331C185.182 92.8302 185.427 92.5853 185.729 92.5853H192.179C192.481 92.5853 192.727 92.8302 192.727 93.1331V98.5778C192.727 98.8807 192.481 99.1255 192.179 99.1255Z" fill="#292526"/>
<path d="M201.605 99.1255H195.155C194.853 99.1255 194.607 98.8807 194.607 98.5778V93.1331C194.607 92.8302 194.853 92.5853 195.155 92.5853H201.605C201.907 92.5853 202.152 92.8302 202.152 93.1331V98.5778C202.152 98.8807 201.907 99.1255 201.605 99.1255Z" fill="#292526"/>
<path d="M213.144 99.1255H204.583C204.28 99.1255 204.035 98.8807 204.035 98.5778V93.1331C204.035 92.8302 204.28 92.5853 204.583 92.5853H213.144C213.447 92.5853 213.691 92.8302 213.691 93.1331V98.5778C213.691 98.8807 213.447 99.1255 213.144 99.1255Z" fill="#292526"/>
<path d="M216.51 72.6765H94.8518C92.8503 72.6765 91.1577 71.195 90.8929 69.2108L82.3814 5.34435C82.0621 2.94995 83.9243 0.822945 86.3395 0.822945H225.412C227.836 0.822945 229.702 2.96638 229.367 5.36856L220.465 69.2341C220.19 71.208 218.502 72.6765 216.51 72.6765Z" fill="#C6C6C6"/>
<path d="M90.6483 7.86157L98.0253 69.5811C98.0902 70.1228 98.5497 70.5312 99.0957 70.5312L213.4 70.5546C213.944 70.5555 214.403 70.1496 214.471 69.6105L222.185 7.89013C222.266 7.24632 221.764 6.6778 221.116 6.6778L91.7196 6.65442C91.0732 6.65442 90.5721 7.21949 90.6483 7.86157Z" fill="white"/>
<path d="M91.7203 6.78421C91.4495 6.78421 91.1908 6.90017 91.0108 7.10353C90.8308 7.30602 90.746 7.57687 90.778 7.846L98.155 69.5655C98.2121 70.0423 98.6171 70.4014 99.0965 70.4014L213.401 70.4248C213.879 70.4248 214.284 70.0683 214.342 69.5941L222.057 7.87454C222.091 7.60456 222.007 7.33285 221.827 7.12862C221.647 6.9244 221.388 6.80759 221.116 6.80759L91.7203 6.78421ZM213.401 70.6844L99.0965 70.661C98.4856 70.661 97.9698 70.2033 97.8972 69.5967L90.5201 7.87628C90.4795 7.53361 90.5876 7.18919 90.8169 6.93132C91.0454 6.67258 91.3751 6.52461 91.7203 6.52461L221.116 6.54799C221.463 6.54799 221.792 6.69682 222.022 6.95642C222.251 7.21689 222.358 7.56303 222.315 7.90657L214.6 69.6261C214.524 70.2301 214.009 70.6844 213.401 70.6844Z" fill="#292526"/>
<path d="M145.039 26.7529L166.959 38.5751L144.557 49.6497L145.039 26.7529Z" fill="#0D5EFB"/>
<path d="M193.541 61.588H114.822V60.7018H193.541V61.588Z" fill="#0D5EFB"/>
<path d="M123.08 62.1185H121.982V60.0659H123.08V62.1185Z" fill="#0D5EFB"/>
<path d="M204.939 11.3774C204.939 12.7646 203.814 13.8895 202.426 13.8895C201.039 13.8895 199.914 12.7646 199.914 11.3774C199.914 9.9903 201.039 8.86535 202.426 8.86535C203.814 8.86535 204.939 9.9903 204.939 11.3774Z" fill="#ED4343"/>
<path d="M211.7 11.3774C211.7 12.7646 210.576 13.8895 209.188 13.8895C207.801 13.8895 206.676 12.7646 206.676 11.3774C206.676 9.9903 207.801 8.86535 209.188 8.86535C210.576 8.86535 211.7 9.9903 211.7 11.3774Z" fill="#FDE290"/>
<path d="M218.46 11.3774C218.46 12.7646 217.336 13.8895 215.948 13.8895C214.56 13.8895 213.436 12.7646 213.436 11.3774C213.436 9.9903 214.56 8.86535 215.948 8.86535C217.336 8.86535 218.46 9.9903 218.46 11.3774Z" fill="#A3ABFE"/>
<path d="M10.1772 126.501L9.45467 128.966L8.58932 131.92L2.13389 128.082L0.252635 126.964C0.00514822 126.817 -0.0519608 126.605 0.0440919 126.461C0.0466879 126.457 0.0484051 126.454 0.0518664 126.45C0.118498 126.357 0.252639 126.293 0.442148 126.297H0.455128L0.617802 126.301L2.55703 126.341L9.28937 126.482L10.0067 126.497L10.1443 126.501L10.1772 126.501Z" fill="#FBDDB9"/>
<path d="M57.5277 146.073L8.63171 131.929C8.12375 131.741 7.75166 131.209 7.79666 130.803C7.80012 130.772 7.80531 130.742 7.81396 130.712C7.93251 130.299 8.60833 129.894 9.17946 130.012L9.18206 130.003C8.63603 129.8 8.32711 129.252 8.44566 128.84C8.46037 128.786 8.48287 128.735 8.51142 128.686C8.70785 128.35 9.20195 128.116 9.69952 128.219C9.51175 128.132 9.33522 128.004 9.1959 127.857C8.98043 127.631 8.85669 127.358 8.92332 127.125C8.93457 127.084 8.95274 127.044 8.97524 127.005C9.16562 126.681 9.7125 126.447 10.1798 126.506L58.7583 140.558L57.5277 146.073Z" fill="#A3ABFE"/>
<path d="M9.67969 128.253L37.0893 135.806L9.67969 128.253Z" fill="#ECC442"/>
<path d="M58.1754 143.866C58.1633 143.866 58.152 143.865 58.1399 143.862L8.99899 130.131C8.93062 130.112 8.88995 130.04 8.90899 129.971C8.92889 129.902 8.99985 129.862 9.06908 129.881L58.21 143.612C58.2792 143.631 58.3191 143.703 58.3 143.772C58.2836 143.829 58.2317 143.866 58.1754 143.866Z" fill="#292526"/>
<path d="M57.9842 141.693C57.973 141.693 57.9609 141.691 57.9496 141.688L9.64633 128.378C9.5771 128.359 9.53643 128.288 9.55547 128.218C9.57451 128.149 9.64633 128.109 9.71469 128.127L58.0188 141.437C58.0872 141.456 58.1279 141.528 58.1088 141.597C58.0933 141.654 58.0413 141.693 57.9842 141.693Z" fill="#292526"/>
<path d="M62.7763 141.517L62.8196 141.528C64.0155 141.834 64.8774 142.576 64.7441 143.184L64.4897 144.35L64.0198 146.498C63.9056 147.024 63.0844 147.278 62.091 147.14C61.9352 147.118 61.776 147.086 61.6142 147.045L61.5701 147.034C60.375 146.728 59.5131 145.986 59.6464 145.378L60.3707 142.065C60.5031 141.456 61.5804 141.211 62.7763 141.517Z" fill="#ED4343"/>
<path d="M58.8396 140.075C58.8777 140.084 58.9158 140.093 58.9547 140.103L60.1264 140.403C60.7105 140.552 61.2011 140.819 61.4901 141.114C61.7004 141.327 61.8034 141.555 61.7584 141.763L61.491 142.986L61.3655 143.557L61.1137 144.708L60.7615 146.32C60.6542 146.813 59.7482 147.003 58.741 146.745L57.5676 146.445C56.5594 146.187 55.8282 145.578 55.9364 145.086L56.4954 142.527L56.9324 140.527C56.9341 140.519 56.9359 140.512 56.9385 140.504C56.9393 140.499 56.9411 140.494 56.9428 140.489C56.9532 140.454 56.9679 140.421 56.9869 140.39C56.9912 140.383 56.9964 140.375 57.0008 140.369C57.0042 140.363 57.0077 140.358 57.012 140.353C57.0181 140.344 57.025 140.336 57.0319 140.327C57.0388 140.318 57.0466 140.311 57.0544 140.302C57.0691 140.285 57.0864 140.27 57.1046 140.254C57.1133 140.247 57.1219 140.24 57.1314 140.232C57.1591 140.21 57.1911 140.189 57.2249 140.17C57.2353 140.164 57.2474 140.158 57.2586 140.152C57.2708 140.145 57.2829 140.139 57.2959 140.134C57.3062 140.128 57.3175 140.123 57.3296 140.118C57.3504 140.109 57.372 140.101 57.3945 140.093C57.404 140.089 57.4144 140.086 57.4239 140.083C57.4343 140.079 57.4456 140.075 57.4568 140.072C57.4663 140.069 57.475 140.067 57.4845 140.064C57.5702 140.039 57.6645 140.02 57.7657 140.007C57.7865 140.004 57.8064 140.002 57.8272 140C57.8514 139.997 57.8765 139.995 57.9025 139.994C57.9154 139.993 57.9284 139.992 57.9414 139.991C57.9535 139.99 57.9665 139.99 57.9803 139.99C57.9933 139.989 58.0063 139.989 58.0193 139.989C58.0323 139.988 58.0444 139.988 58.0582 139.988C58.1517 139.987 58.2494 139.99 58.3507 139.999C58.3602 140 58.3697 140.001 58.3793 140.002C58.4416 140.008 58.5047 140.015 58.5688 140.025C58.5835 140.027 58.599 140.028 58.6138 140.032C58.6285 140.034 58.6432 140.036 58.6579 140.039C58.6648 140.04 58.6709 140.041 58.6769 140.042C58.6865 140.044 58.6968 140.046 58.7072 140.048C58.7263 140.052 58.7462 140.055 58.7661 140.06C58.7764 140.061 58.7877 140.064 58.7981 140.066C58.8119 140.069 58.8258 140.072 58.8396 140.075Z" fill="#E1E1E1"/>
<path d="M204.122 99.1836C205.926 98.5138 207.931 99.4337 208.601 101.238L213.506 111.314L218.589 127.973L210.94 134.116L208.048 117.65L203.276 103.626C202.607 101.822 202.318 99.8534 204.122 99.1836Z" fill="#EDC4A9"/>
<path d="M183.991 100.868C185.244 99.6638 190.99 101.518 194.372 102.831L202.558 108.018C203.206 108.45 203.73 109.043 204.079 109.739L212.291 126.112L205.996 129.096L196.416 113.305L183.467 104.803C182.135 103.415 182.604 102.201 183.991 100.868Z" fill="#EDC4A9"/>
<path d="M210.434 122.584C210.368 122.584 210.305 122.546 210.276 122.482C208.268 118.045 204.18 109.447 203.086 108.669C201.709 107.689 194.594 103.177 194.288 102.983C194.128 102.909 192.055 101.967 189.596 101.362C187.359 100.811 185.498 100.699 184.065 101.028C183.91 101.15 183.106 101.824 182.974 102.796C182.889 103.426 183.099 104.065 183.602 104.695C183.662 104.769 183.649 104.878 183.574 104.938C183.5 104.998 183.391 104.985 183.331 104.91C182.767 104.203 182.532 103.475 182.632 102.746C182.799 101.526 183.844 100.76 183.888 100.728C183.907 100.714 183.928 100.705 183.95 100.7C185.442 100.347 187.37 100.457 189.679 101.026C192.261 101.661 194.423 102.664 194.445 102.673C194.452 102.677 194.458 102.68 194.464 102.685C194.538 102.731 201.88 107.385 203.287 108.386C204.729 109.413 210.352 121.812 210.591 122.339C210.631 122.427 210.592 122.529 210.505 122.569C210.482 122.579 210.458 122.584 210.434 122.584Z" fill="#292526"/>
<path d="M181.732 140.632L187.665 136.978L182.486 127.944C181.477 126.306 177.422 124.334 175.784 125.343C174.146 126.352 174.836 129.436 175.845 131.074L181.732 140.632Z" fill="#EDC4A9"/>
<path d="M196.023 160.207C196.023 160.207 187.292 151.969 185.979 149.982C184.667 147.994 180.42 138.497 180.42 138.497L187.664 136.978L192.34 144.086L196.023 160.207Z" fill="#EDC4A9"/>
<path d="M167.313 110.837C168.325 109.201 171.228 109.658 172.865 110.67L185.544 117.112L194.043 125.764C194.382 126.085 195.107 127.009 195.493 126.747C196.007 126.398 195.635 125.772 195.198 125.331L194.573 124.699L187.593 117.113L176.116 108.986C174.42 108.077 173.782 105.966 174.692 104.27C175.601 102.575 177.712 101.937 179.408 102.846L193.834 109.799L204.712 124.57L218.474 127.419L227.991 167.006L199.217 174.521L189.434 140.757L189.928 135.972C189.631 134.71 189.03 133.539 188.18 132.561L181.055 124.37L172.358 118.846C170.721 117.834 166.301 112.473 167.313 110.837Z" fill="#EDC4A9"/>
<path d="M201.769 120.748C201.714 120.748 201.66 120.721 201.626 120.672C201.557 120.569 194.677 110.398 192.645 109.419C192.263 109.235 191.586 108.892 190.728 108.458C186.97 106.556 179.148 102.599 177.156 102.416C176.421 102.348 175.81 102.613 175.342 103.204C174.48 104.292 174.368 106.146 174.758 107.311C174.789 107.402 174.74 107.5 174.649 107.531C174.559 107.56 174.46 107.512 174.43 107.421C174.017 106.186 174.101 104.213 175.07 102.989C175.608 102.31 176.341 101.992 177.188 102.07C179.245 102.261 186.816 106.092 190.884 108.149C191.74 108.582 192.417 108.925 192.795 109.107C194.912 110.127 201.628 120.056 201.912 120.478C201.966 120.557 201.945 120.665 201.866 120.718C201.836 120.738 201.802 120.748 201.769 120.748Z" fill="#292526"/>
<path d="M197.355 173.404L194.607 163.344L199.59 162.723C207.625 161.721 215.562 160.046 223.317 157.719L227.303 156.521L230.653 166.838L197.355 173.404Z" fill="white"/>
<path d="M194.828 163.491L197.481 173.203L230.429 166.706L227.192 156.736L223.367 157.884C215.625 160.208 207.633 161.894 199.612 162.894L194.828 163.491ZM197.231 173.605L194.389 163.197L199.569 162.552C207.571 161.553 215.545 159.871 223.268 157.552L227.417 156.307L230.879 166.971L230.688 167.008L197.231 173.605Z" fill="#292526"/>
<path d="M195.395 171.741C195.395 171.741 226.921 166.166 231.006 163.344L246.999 214.312L204.857 214.624L195.395 171.741Z" fill="#0D5EFB"/>
<path d="M118.177 112.015C116.371 111.349 114.369 112.273 113.703 114.079L108.82 124.166L103.773 140.837L111.436 146.962L114.293 130.49L119.033 116.455C119.698 114.65 119.982 112.68 118.177 112.015Z" fill="#EDC4A9"/>
<path d="M138.313 113.655C137.057 112.454 131.315 114.32 127.935 115.64L119.763 120.846C119.115 121.278 118.592 121.873 118.244 122.57L110.068 138.961L116.371 141.931L125.915 126.119L138.845 117.588C140.175 116.198 139.703 114.985 138.313 113.655Z" fill="#EDC4A9"/>
<path d="M111.916 135.428C111.891 135.428 111.867 135.424 111.845 135.414C111.757 135.374 111.718 135.272 111.757 135.184C111.995 134.656 117.591 122.245 119.031 121.216C120.437 120.211 127.768 115.541 127.841 115.494C127.847 115.49 127.854 115.487 127.86 115.483C127.882 115.474 130.042 114.466 132.622 113.825C134.931 113.251 136.858 113.137 138.351 113.486C138.373 113.491 138.394 113.501 138.412 113.514C138.457 113.546 139.504 114.31 139.674 115.53C139.775 116.258 139.542 116.987 138.979 117.696C138.92 117.77 138.811 117.783 138.736 117.723C138.662 117.664 138.649 117.556 138.708 117.48C139.208 116.849 139.419 116.21 139.331 115.58C139.197 114.608 138.392 113.937 138.237 113.815C136.803 113.489 134.942 113.605 132.706 114.161C130.248 114.772 128.178 115.718 128.018 115.792C127.712 115.987 120.607 120.515 119.232 121.498C118.141 122.278 114.072 130.884 112.073 135.326C112.045 135.391 111.981 135.428 111.916 135.428Z" fill="#EDC4A9"/>
<path d="M140.659 153.414L134.719 149.772L139.877 140.727C140.882 139.086 144.931 137.106 146.572 138.111C148.213 139.116 147.53 142.202 146.525 143.843L140.659 153.414Z" fill="#EDC4A9"/>
<path d="M141.3 137.15L149.985 131.607C151.619 130.591 156.027 125.221 155.012 123.587C153.996 121.952 151.094 122.416 149.46 123.432L136.795 129.902L128.316 138.573C127.977 138.894 127.255 139.82 126.868 139.559C126.354 139.211 126.722 138.584 127.159 138.142L127.783 137.509L134.746 129.908L146.206 121.756C147.899 120.843 148.532 118.73 147.62 117.035C146.706 115.342 144.593 114.709 142.9 115.622L128.489 122.607L117.644 137.402L103.887 140.282L95.957 176.562L124.748 184.014L127.592 173.46C127.963 172.083 128.696 170.832 129.717 169.836C131.588 168.009 133.78 166.554 135.671 164.749C139.312 161.277 140.563 155.926 141.967 151.275L134.72 149.772L132.858 152.616L132.453 148.772C132.747 147.508 133.345 146.337 134.194 145.356L141.3 137.15Z" fill="#EDC4A9"/>
<path d="M120.577 133.574C120.544 133.574 120.51 133.564 120.481 133.544C120.401 133.491 120.38 133.384 120.434 133.304C120.718 132.882 127.412 122.938 129.525 121.913C129.904 121.729 130.578 121.386 131.433 120.952C135.497 118.885 143.061 115.037 145.118 114.842C145.965 114.762 146.697 115.078 147.237 115.756C148.209 116.978 148.298 118.951 147.887 120.186C147.858 120.277 147.759 120.326 147.668 120.296C147.578 120.266 147.529 120.168 147.559 120.077C147.946 118.912 147.83 117.057 146.966 115.971C146.496 115.381 145.885 115.117 145.151 115.187C143.159 115.375 135.345 119.349 131.59 121.26C130.734 121.695 130.058 122.04 129.677 122.224C127.647 123.209 120.79 133.395 120.721 133.497C120.688 133.547 120.633 133.574 120.577 133.574Z" fill="#292526"/>
<path d="M125.587 185.023L128.335 174.963L123.353 174.342C115.318 173.339 107.381 171.664 99.6263 169.337L95.6388 168.14L92.2891 178.457L125.587 185.023Z" fill="white"/>
<path d="M92.5136 178.325L125.462 184.821L128.115 175.11L123.331 174.513C115.31 173.513 107.318 171.826 99.5756 169.503L95.7508 168.354L92.5136 178.325ZM125.711 185.223L125.554 185.192L92.0645 178.589L95.5267 167.925L99.6751 169.17C107.398 171.49 115.372 173.171 123.374 174.17L128.554 174.816L125.711 185.223Z" fill="#292526"/>
<path d="M127.548 183.36C127.548 183.36 96.0208 177.785 91.9372 174.963L78.084 214.172L120.227 214.139L127.548 183.36Z" fill="#0D5EFB"/>
</svg>
