<svg width="228" height="186" viewBox="0 0 228 186" fill="none" xmlns="http://www.w3.org/2000/svg">
<path d="M45.9688 91.0156C45.9688 141.283 86.7175 182.031 136.984 182.031C187.251 182.031 227.999 141.283 227.999 91.0156C227.999 40.7493 187.251 -1.52588e-05 136.984 -1.52588e-05C86.7175 -1.52588e-05 45.9688 40.7493 45.9688 91.0156Z" fill="#0D5EFB" fill-opacity="0.2"/>
<path d="M129.38 3.68742C92.495 9.1396 102.946 49.7382 108.404 63.7607C111.622 72.0289 100.86 112.009 122.712 133.368C144.563 154.728 196.924 133.581 200.647 119.884C204.369 106.188 178.621 72.1841 171.644 57.6413C167.307 48.6023 172.204 -2.64325 129.38 3.68742Z" fill="#070809"/>
<path d="M103.089 132.448C103.089 132.448 102.39 148.876 101.516 151.147C100.642 153.42 84.0393 159.362 83.8645 159.886C83.6896 160.41 90.8547 173.868 91.3793 173.693C91.9032 173.519 115.018 167.666 117.595 165.304C121.789 161.459 122.489 136.642 121.964 136.467C121.439 136.293 113.05 131.749 112.352 131.749C111.652 131.749 103.089 132.448 103.089 132.448Z" fill="#FFCEAC"/>
<path d="M206.376 123.884C206.376 123.884 208.998 134.719 208.998 145.205C208.998 154.056 194.318 154.468 192.395 154.643C190.473 154.817 179.987 150.274 179.637 146.079C179.287 141.885 178.938 130.7 180.685 128.952C182.433 127.205 189.948 123.709 192.745 122.835C195.541 121.961 206.376 123.884 206.376 123.884Z" fill="#FFCEAC"/>
<path d="M124.236 87.5322C110.778 91.3771 107.576 100.227 105.186 106.058C102.796 111.889 99.5936 131.399 100.117 134.894C100.117 134.894 109.73 138.041 116.72 137.341C116.72 137.341 116.196 147.361 126.916 162.042C133.326 170.822 129.071 181.033 130.644 181.383C132.217 181.733 201.308 181.383 201.308 181.383C201.308 181.383 188.027 138.914 187.677 132.623C187.677 132.623 203.58 130.351 210.921 125.108C210.921 125.108 204.28 92.6004 193.794 85.2604C183.307 77.9204 175.136 78.3072 167.25 77.9386C160.82 82.755 148.179 84.0371 147.48 84.212C146.781 84.3861 124.236 87.5322 124.236 87.5322Z" fill="#0D5EFB"/>
<path d="M208.999 145.206C208.999 145.206 152.723 158.313 135.072 161.809C128.29 163.151 124.936 160.585 120.566 161.809C116.197 163.032 112.527 167.052 110.254 168.974C107.983 170.897 106.585 174.217 106.934 175.441C107.284 176.664 134.897 175.965 135.597 175.79C136.296 175.615 195.192 172.12 203.407 165.829C211.62 159.537 208.999 145.206 208.999 145.206Z" fill="#FFCEAC"/>
<path d="M132.625 74.0748C132.625 74.0748 135.597 77.7455 133.324 81.9394C131.052 86.134 124.236 87.5322 124.236 87.5322C124.236 87.5322 132.625 104.135 148.879 100.815C167.182 97.0754 167.251 77.9386 167.251 77.9386C167.251 77.9386 163.384 78.2694 158.283 77.5182C154.303 76.9314 149.927 64.6379 149.578 64.9877C149.228 65.3367 132.625 74.0748 132.625 74.0748Z" fill="#FFCEAC"/>
<path d="M153.733 72.9738C151.516 69.2976 149.792 64.7728 149.577 64.9876C149.228 65.3366 132.625 74.0755 132.625 74.0755C132.625 74.0755 133.969 75.745 134.153 78.1148C138.019 78.8079 142.123 78.1155 145.894 76.8726C148.672 75.9563 151.392 74.7022 153.733 72.9738Z" fill="#FFAF79"/>
<path d="M153.121 45.941C153.121 45.941 159.424 41.7667 161.613 48.0918C163.801 54.4176 158.828 57.9071 154.534 58.1156C154.534 58.1156 154.529 73.5838 138.013 76.6054C123.819 79.2025 113.797 61.3827 112.381 44.249C112.381 44.249 121.763 37.4336 123.378 29.0445C123.378 29.0445 129.872 34.7953 137.839 36.0082C145.805 37.2217 152.693 42.4361 153.121 45.941Z" fill="#FFCEAC"/>
<path d="M158.308 52.5264C157.994 51.9893 157.423 51.7214 156.821 51.6633C156.512 51.6339 156.225 51.6941 155.962 51.8095C155.928 51.3346 155.991 50.8541 156.176 50.4218C156.581 49.4776 157.403 48.9488 158.264 48.4627C158.682 48.2262 158.515 47.4974 158.01 47.5289C157.428 47.5653 156.958 47.7408 156.488 48.0836C156.02 48.4256 155.623 48.839 155.308 49.3258C154.677 50.3029 154.502 51.5039 154.752 52.6321C154.771 52.7167 154.81 52.7978 154.834 52.8818C154.758 53.0594 154.705 53.2504 154.704 53.4686C154.703 54.0547 155.002 54.6521 155.529 54.9311C155.895 55.1249 156.33 55.1445 156.709 55.0088L156.87 55.0158C158.003 54.9011 158.935 53.5959 158.308 52.5264Z" fill="#FFAF79"/>
<path d="M203.335 145.231C202.776 145.588 201.988 145.691 201.35 145.868C200.612 146.074 199.874 146.279 199.136 146.485C197.765 146.867 196.392 147.24 195.025 147.634C193.657 148.027 192.29 148.427 190.924 148.822C190.187 149.036 189.453 149.25 188.725 149.494C188.166 149.683 187.595 149.835 187.169 150.26C187.102 150.326 187.133 150.444 187.224 150.469C187.807 150.624 188.382 150.471 188.962 150.355C189.715 150.204 190.459 150.024 191.205 149.841C192.694 149.477 194.184 149.121 195.672 148.748C197.159 148.376 198.641 147.99 200.127 147.61C200.869 147.42 201.612 147.23 202.354 147.04C202.924 146.894 203.569 146.814 204.046 146.449C204.743 145.914 204.122 144.729 203.335 145.231Z" fill="#FFB786"/>
<path d="M119.322 162.574C118.512 162.181 117.736 162.562 116.986 162.939C116.204 163.331 115.449 163.779 114.728 164.276C113.994 164.782 113.298 165.348 112.644 165.953C112.063 166.49 111.28 167.237 111.252 168.076C111.246 168.255 111.419 168.349 111.576 168.322C112.336 168.192 112.997 167.447 113.556 166.955C114.17 166.415 114.821 165.923 115.496 165.465C116.168 165.008 116.868 164.595 117.592 164.229C118.299 163.869 119.056 163.611 119.39 162.834C119.429 162.746 119.423 162.623 119.322 162.574Z" fill="#FFAF79"/>
<path d="M122.128 165.927C121.343 165.098 120.087 165.48 119.171 165.857C118.092 166.302 117.11 166.955 116.168 167.637C115.258 168.296 114.386 169.008 113.563 169.774C113.125 170.183 112.697 170.605 112.29 171.045C112.123 171.225 111.943 171.415 111.823 171.631C111.672 171.901 111.732 172.164 111.639 172.458L111.708 172.512C111.939 172.397 112.209 172.415 112.428 172.279C112.616 172.162 112.784 171.978 112.938 171.82C113.316 171.434 113.695 171.052 114.092 170.685C114.874 169.962 115.698 169.287 116.565 168.669C117.395 168.077 118.26 167.498 119.186 167.066C120.124 166.629 121.172 166.635 122.094 166.188C122.195 166.14 122.197 165.999 122.128 165.927Z" fill="#FFAF79"/>
<path d="M125.767 168.346C125.373 168.243 124.993 168.073 124.575 168.05C124.163 168.026 123.692 168.119 123.298 168.239C122.437 168.499 121.596 168.843 120.798 169.257C120.03 169.655 119.257 170.108 118.587 170.656C118.266 170.918 117.969 171.21 117.681 171.507C117.37 171.827 117.044 172.126 116.986 172.585C116.961 172.79 117.191 172.999 117.386 172.984C117.798 172.955 118.086 172.682 118.415 172.457C118.738 172.236 119.071 172.033 119.404 171.828C120.117 171.387 120.809 170.938 121.568 170.574C122.285 170.229 123.02 169.956 123.772 169.7C124.147 169.573 124.556 169.439 124.896 169.237C125.217 169.046 125.487 168.763 125.795 168.564C125.879 168.51 125.87 168.373 125.767 168.346Z" fill="#FFAF79"/>
<path d="M119.717 19.1124C119.697 19.0123 119.541 18.9928 119.496 19.0837C119.171 19.7489 118.871 20.3693 118.736 21.1037C118.604 21.8304 118.454 22.5522 118.3 23.2741C118.284 23.3503 118.265 23.4265 118.249 23.5028C118.146 23.4049 118.052 23.3027 117.926 23.2139C117.824 23.1426 117.724 23.2776 117.769 23.3706C117.948 23.7364 118.013 24.1379 118.013 24.554C117.947 24.8478 117.887 25.1437 117.816 25.4368C117.701 25.9026 117.575 26.3691 117.496 26.8426C117.251 27.4798 116.969 28.0877 116.756 28.6017C116.029 30.3678 115.2 32.0927 114.23 33.7385C113.292 35.3276 112.258 36.8727 111.035 38.259C109.881 39.5676 108.464 40.6175 107.4 41.9968L107.472 42.0898C109.397 41.6352 110.944 40.0699 112.25 38.6535C113.681 37.1014 114.898 35.3759 115.934 33.5384C116.974 31.6919 117.898 29.746 118.615 27.7505C118.927 26.8853 119.14 25.9348 119.026 25.0695C119.166 24.5478 119.302 24.0246 119.418 23.4972C119.581 22.7502 119.725 21.9948 119.843 21.2394C119.958 20.5057 119.853 19.8342 119.717 19.1124Z" fill="#1C313D" fill-opacity="0.45"/>
<path d="M113.05 19.5186C112.962 19.3941 112.779 19.4704 112.807 19.6215C112.989 20.5986 112.619 21.4365 112.352 22.3619C112.132 23.1264 111.919 23.8916 111.675 24.6491C111.145 26.2914 110.497 27.9029 109.757 29.462C109.058 30.9322 108.264 32.3702 107.371 33.7321C106.981 34.3259 106.543 34.8743 106.038 35.373C105.546 35.857 104.885 36.1004 104.412 36.5886L104.42 36.6481C105.6 37.3314 107.15 35.8675 107.855 35.0582C109.119 33.6055 110.159 31.9205 111.083 30.2369C112.032 28.5072 112.805 26.6936 113.427 24.8211C114.055 22.9333 114.249 21.2211 113.05 19.5186Z" fill="#1C313D" fill-opacity="0.45"/>
<path d="M166.337 36.926C164.908 37.0764 163.475 36.8707 162.048 36.7735C160.523 36.67 158.993 36.3895 157.535 35.9335C154.571 35.006 152.046 33.4322 149.633 31.5186C148.536 30.6485 147.4 29.8224 146.065 29.3573C144.508 28.8152 142.845 28.932 141.227 28.897C138.489 28.8383 135.852 27.9724 133.566 26.4721C132.31 25.6481 131.184 24.6346 130.217 23.4854C129.165 22.2369 128.49 20.8324 127.636 19.4594C127.457 19.1713 127.063 19.3692 127.114 19.679C127.545 22.2978 129.608 24.7766 131.566 26.4483C133.67 28.2445 136.225 29.5489 138.946 30.0889C140.486 30.396 142.031 30.3582 143.589 30.4589C145.464 30.5792 146.943 31.378 148.387 32.53C150.905 34.5402 153.33 36.4818 156.398 37.5946C158.049 38.1934 159.804 38.6074 161.567 38.6144C163.352 38.6214 164.853 38.0556 166.426 37.2568C166.578 37.1799 166.513 36.9071 166.337 36.926Z" fill="#1C313D" fill-opacity="0.45"/>
<path d="M163.961 27.1779C163.054 27.1289 162.151 26.9583 161.242 26.8897C160.403 26.8268 159.563 26.7652 158.73 26.6477C157.148 26.426 155.592 26.0455 154.112 25.4349C151.162 24.2178 148.799 21.5977 145.656 20.8675C144.025 20.4877 142.488 20.9255 140.86 21.034C139 21.1578 137.368 20.3226 135.964 19.1685C134.697 18.127 133.562 16.9093 132.495 15.6664C131.332 14.3102 130.342 12.6511 128.988 11.4816C128.932 11.432 128.844 11.4788 128.862 11.5558C129.272 13.3149 130.549 14.9285 131.634 16.3302C132.666 17.6626 133.766 18.9825 135.032 20.1009C136.251 21.178 137.673 22.1202 139.293 22.4384C141.113 22.7951 142.888 22.1013 144.697 22.3286C146.449 22.5476 147.941 23.6527 149.358 24.6228C150.78 25.5964 152.225 26.4519 153.833 27.0849C155.433 27.7151 157.138 28.1403 158.852 28.2893C159.766 28.369 160.674 28.3557 161.583 28.2298C162.469 28.1067 163.177 27.7815 163.998 27.4521C164.14 27.3947 164.127 27.187 163.961 27.1779Z" fill="#1C313D" fill-opacity="0.45"/>
<path d="M114.948 64.5427C114.116 63.8188 113.25 63.1977 112.58 62.2982C111.798 61.2505 111.204 60.0474 110.632 58.8779C110.004 57.5951 109.463 56.2781 108.949 54.9456C108.705 54.3126 108.493 53.6692 108.26 53.032C108.058 52.4815 107.898 51.7163 107.462 51.305C107.365 51.2141 107.216 51.2575 107.176 51.3813C106.976 51.9856 107.25 52.7942 107.395 53.3943C107.582 54.1644 107.832 54.9282 108.087 55.678C108.573 57.1153 109.193 58.5198 109.859 59.8816C110.457 61.1057 111.084 62.3444 111.949 63.4061C112.651 64.2679 113.711 65.0939 114.882 64.7973C114.987 64.7701 115.035 64.6183 114.948 64.5427Z" fill="#1C313D" fill-opacity="0.45"/>
<path d="M113.505 57.9695C113.272 57.4148 112.999 56.8888 112.707 56.3628C112.414 55.8347 112.101 55.3158 111.791 54.7975C111.517 54.3393 111.192 53.8644 110.758 53.5455L110.662 53.6C110.69 54.1463 110.919 54.6828 111.154 55.1703C111.41 55.697 111.664 56.225 111.934 56.7447C112.204 57.2651 112.483 57.775 112.811 58.2625C113.153 58.7703 113.548 59.2257 113.902 59.7244C113.971 59.8209 114.161 59.7663 114.11 59.6362C113.894 59.083 113.736 58.5178 113.505 57.9695Z" fill="#1C313D" fill-opacity="0.45"/>
<path d="M115.202 73.3369C115.11 72.5871 115.007 71.838 114.903 71.0889C114.807 70.3951 114.82 69.5411 114.262 69.05C114.204 68.999 114.094 68.9801 114.037 69.05C113.685 69.4921 113.71 70.0006 113.71 70.5525C113.71 71.3631 113.765 72.178 113.796 72.9879C113.86 74.6967 113.892 76.4019 113.772 78.1086C113.65 79.8215 113.435 81.5093 113.186 83.2075C112.97 84.6715 112.549 86.4725 113.03 87.9155C113.079 88.0638 113.294 88.1575 113.411 88.0162C114.398 86.8223 114.669 84.9834 114.91 83.4985C115.18 81.8387 115.383 80.1453 115.451 78.4646C115.521 76.7474 115.413 75.0408 115.202 73.3369Z" fill="#1C313D" fill-opacity="0.45"/>
<path d="M120.041 77.1461C120.06 76.4753 120.147 75.8143 119.977 75.1575C119.898 74.8561 119.456 74.7903 119.304 75.0694C118.926 75.7654 118.888 76.583 118.79 77.3559C118.691 78.1526 118.634 78.9457 118.61 79.7473C118.588 80.4607 118.495 81.277 118.674 81.9757C118.811 82.5024 119.36 82.9627 119.902 82.7151C120.037 82.6535 120.066 82.4605 120 82.3415L119.994 82.3157L119.983 82.1744L119.99 82.0191C120.026 81.7379 120.009 81.44 120.011 81.1553C120.014 80.474 119.993 79.7949 120.007 79.1136C120.019 78.4582 120.022 77.8015 120.041 77.1461Z" fill="#1C313D" fill-opacity="0.45"/>
<path d="M125.108 74.8434C124.978 74.6258 124.706 74.6601 124.571 74.8434C124.347 75.1434 124.292 75.5757 124.227 75.9422C124.154 76.3563 124.112 76.7774 124.05 77.1935C123.927 78.0315 123.819 78.8708 123.691 79.708C123.561 80.5537 123.425 81.4098 123.347 82.2624C123.308 82.687 123.337 83.0996 123.362 83.5249C123.382 83.9047 123.39 84.1915 123.614 84.5069C123.663 84.5762 123.761 84.6195 123.84 84.5664C124.155 84.3509 124.269 84.1075 124.41 83.7557C124.581 83.3284 124.755 82.9178 124.85 82.4659C125.024 81.6315 125.119 80.76 125.188 79.9102C125.257 79.0652 125.318 78.2154 125.334 77.3677C125.348 76.6214 125.504 75.5092 125.108 74.8434Z" fill="#1C313D" fill-opacity="0.45"/>
<path d="M175.745 74.866H175.746L175.743 74.8618L175.645 74.7191C174.802 73.4489 173.811 72.2857 172.911 71.0533C171.943 69.7251 171.067 68.3409 170.243 66.9196C169.444 65.5438 168.697 64.1449 168.035 62.697C167.367 61.2366 166.931 59.6062 166.12 58.2241C166.065 58.129 165.944 58.0457 165.829 58.0569L165.725 58.0716L165.659 58.1031C165.557 58.1507 165.488 58.2849 165.492 58.3941C165.549 59.9783 166.212 61.6059 166.763 63.0775C167.342 64.624 168.001 66.1509 168.764 67.617C169.519 69.069 170.398 70.4665 171.331 71.8108C172.306 73.2146 173.339 74.6114 174.663 75.7011C175.42 76.3243 175.999 75.4032 175.745 74.866Z" fill="#1C313D" fill-opacity="0.45"/>
<path d="M164.311 69.5367C164.021 69.1282 163.749 68.7057 163.495 68.2742C163.249 67.8545 162.974 67.4509 162.71 67.0432C162.579 66.8403 162.464 66.6242 162.314 66.4339C162.181 66.2647 161.964 66.1912 161.854 66.0143C161.795 65.9184 161.661 65.9835 161.681 66.087C161.718 66.2969 161.605 66.499 161.639 66.7179C161.676 66.9564 161.753 67.1865 161.825 67.416C161.983 67.9196 162.181 68.4309 162.44 68.8911C162.685 69.3276 162.95 69.7535 163.232 70.1676C163.501 70.5614 163.866 71.1552 164.381 71.2216C164.664 71.3468 165.011 71.1006 164.918 70.7796L164.916 70.7726C164.941 70.3131 164.567 69.8976 164.311 69.5367Z" fill="#1C313D" fill-opacity="0.45"/>
<path d="M161.358 74.6624C160.111 73.011 158.859 71.4071 157.858 69.5872C157.285 68.5457 156.749 67.4797 156.302 66.3781C155.924 65.4485 155.691 64.27 155.022 63.502L154.926 63.5272C154.698 64.3924 155.03 65.4031 155.273 66.2361C155.56 67.2203 155.906 68.1862 156.301 69.1325C157.087 71.0056 158.141 72.764 159.384 74.3686C159.785 74.8869 160.68 76.3417 161.473 76.1585C162.281 75.9724 161.633 75.0261 161.358 74.6624Z" fill="#1C313D" fill-opacity="0.45"/>
<path d="M167.365 53.2416C167.29 52.7107 167.188 52.1848 167.057 51.6658C166.925 51.144 166.741 50.6404 166.534 50.1445C166.424 49.8815 166.295 49.6297 166.157 49.38C166.031 49.1527 165.918 48.8848 165.669 48.7729C165.489 48.6931 165.271 48.7491 165.213 48.9582C165.139 49.2289 165.256 49.4695 165.335 49.7262C165.408 49.9563 165.471 50.1885 165.542 50.418C165.696 50.9125 165.827 51.414 165.953 51.9155C166.08 52.4205 166.166 52.929 166.25 53.4424C166.291 53.6949 166.337 53.9257 166.457 54.1523C166.556 54.3405 166.68 54.5776 166.838 54.7209H167.018C167.369 54.3279 167.434 53.7403 167.365 53.2416Z" fill="#1C313D" fill-opacity="0.45"/>
<path d="M164.419 54.7637C164.416 54.5392 164.371 54.3265 164.315 54.1097C164.261 53.8943 164.226 53.6572 164.041 53.5159L164.117 53.5928C164.057 53.5012 163.989 53.4249 163.937 53.3298C163.894 53.2508 163.772 53.2886 163.772 53.3746L163.769 53.4956C163.743 53.555 163.726 53.618 163.706 53.6816C163.672 53.7893 163.694 53.9174 163.696 54.0286C163.698 54.2405 163.67 54.4566 163.683 54.6686C163.696 54.8819 163.698 55.0966 163.691 55.3106C163.684 55.4561 163.696 55.5771 163.741 55.717C163.771 55.8121 163.77 55.9024 163.854 55.9751C163.928 56.0388 164.014 56.0486 164.101 56.0066L164.224 55.8877C164.232 55.873 164.31 55.7163 164.267 55.7849C164.346 55.6604 164.381 55.5541 164.396 55.4058C164.419 55.1931 164.422 54.9763 164.419 54.7637Z" fill="#1C313D" fill-opacity="0.45"/>
<path d="M167.526 79.3319C167.249 78.5233 166.017 78.4233 165.783 79.3319C165.579 80.1243 165.73 80.9504 165.58 81.7505C165.416 82.6241 165.211 83.5159 164.994 84.3812C164.576 86.0507 163.939 87.635 163.095 89.1339C161.453 92.0499 159.131 94.5525 156.23 96.2465C152.658 98.333 148.345 98.9576 144.262 98.9758C140.186 98.9933 136.042 98.1966 132.514 96.0808C130.805 95.0554 129.264 93.7467 127.999 92.2031C127.373 91.4386 126.835 90.5908 126.314 89.7522C125.818 88.952 125.519 88.0945 124.707 87.6042C124.571 87.5224 124.346 87.5629 124.275 87.7175C123.571 89.2528 124.857 91.4232 125.737 92.7004C126.871 94.3441 128.262 95.7618 129.856 96.9614C133.419 99.6459 137.825 100.928 142.236 101.237C146.818 101.558 151.801 101.022 156.002 99.0856C159.494 97.4755 162.439 94.7637 164.535 91.5575C165.682 89.8005 166.553 87.8343 167.116 85.8129C167.401 84.7882 167.699 83.6321 167.696 82.5619C167.693 81.5449 167.861 80.3062 167.526 79.3319Z" fill="#3F80FF"/>
<path d="M120.669 149.897C120.299 148.906 119.972 147.859 119.63 146.847C119.272 145.786 118.817 144.77 118.507 143.692C117.852 141.415 117.618 139.095 117.478 136.738C117.33 134.251 117.432 131.77 117.492 129.283C117.52 128.079 117.558 126.877 117.619 125.674C117.669 124.682 118.023 123.209 117.421 122.339C117.339 122.221 117.204 122.209 117.095 122.297C116.286 122.951 116.303 124.357 116.199 125.315C116.054 126.633 115.975 127.959 115.891 129.283C115.732 131.783 115.578 134.315 115.636 136.825C115.425 136.736 115.19 136.697 114.967 136.658C114.241 136.533 113.494 136.482 112.761 136.394C111.196 136.206 109.628 136.031 108.065 135.823C106.641 135.634 105.211 135.414 103.811 135.094C102.65 134.829 101.321 134.23 100.194 134.757L100.178 134.797C100.53 136.041 102.061 136.463 103.193 136.797C104.617 137.217 106.066 137.491 107.533 137.705C109.063 137.93 110.599 138.12 112.132 138.321C112.968 138.432 113.81 138.578 114.651 138.652C115.005 138.683 115.389 138.738 115.72 138.568C115.866 140.575 116.189 142.587 116.761 144.506C117.068 145.536 117.411 146.624 117.984 147.54C118.27 147.995 118.6 148.427 118.932 148.849C119.369 149.405 119.788 149.658 120.341 150.088C120.476 150.193 120.746 150.104 120.669 149.897Z" fill="#3F80FF"/>
<path d="M209.41 124.234C208.844 124.604 208.381 125.157 207.787 125.508C207.032 125.953 206.223 126.303 205.427 126.667C203.51 127.543 201.583 128.392 199.606 129.123C197.716 129.821 195.777 130.325 193.823 130.802C192.857 131.038 191.891 131.245 190.914 131.426C190.116 131.573 189.105 131.564 188.478 132.116C188.275 131.21 188.072 130.303 187.864 129.398C187.311 126.997 186.674 124.604 185.983 122.238C185.258 119.756 184.592 117.225 183.676 114.807C183.456 114.227 182.667 114.456 182.757 115.061C183.124 117.506 183.704 119.926 184.168 122.354C184.644 124.845 185.122 127.338 185.644 129.818C186.153 132.237 186.641 134.658 187.111 137.084C187.342 138.273 187.481 139.563 187.919 140.694C188.347 141.799 188.938 142.892 189.527 143.916C189.57 143.99 189.708 143.984 189.723 143.891C189.898 142.802 190.023 141.685 190.068 140.584C190.119 139.337 189.734 138.028 189.489 136.812C189.205 135.418 188.905 134.028 188.596 132.638C189.251 133.072 190.194 133.007 190.955 133.022C192.058 133.044 193.182 132.989 194.278 132.863C196.494 132.607 198.652 132 200.75 131.258C202.821 130.526 204.83 129.617 206.829 128.713C208.291 128.051 210.983 127.079 211.31 125.267C211.523 124.085 209.979 123.504 209.41 124.234Z" fill="#3F80FF"/>
<path d="M125.835 54.6902C125.828 54.2551 125.686 53.8033 125.569 53.3906C125.596 53.4941 125.623 53.5983 125.649 53.7026C125.519 53.1654 125.365 52.7066 125.07 52.2358L125.014 52.161C124.928 51.9882 124.837 51.8162 124.718 51.6665C124.29 51.13 123.676 50.7768 122.973 50.8418C122.139 50.9181 121.611 51.6784 121.514 52.4513C121.404 53.3319 121.523 54.2663 121.886 55.0784C122.097 55.5519 122.389 56.0198 122.818 56.3269C123.387 56.7326 124.049 56.8941 124.72 56.6416C125.143 56.4836 125.477 56.1276 125.666 55.7261C125.824 55.3917 125.84 55.0497 125.835 54.6902Z" fill="#1C313D"/>
<path d="M141.946 51.645C141.939 51.2099 141.798 50.7581 141.681 50.3447C141.707 50.4489 141.734 50.5531 141.761 50.6567C141.63 50.1209 141.477 49.6621 141.181 49.1906L141.125 49.1158C141.039 48.9423 140.949 48.771 140.83 48.6213C140.402 48.0855 139.787 47.7316 139.084 47.7966C138.25 47.8729 137.723 48.6339 137.625 49.4061C137.515 50.286 137.635 51.2204 137.997 52.0325C138.208 52.5067 138.5 52.9746 138.93 53.2817C139.499 53.6874 140.161 53.8496 140.832 53.5971C141.255 53.4377 141.589 53.0817 141.778 52.6802C141.935 52.3465 141.952 52.0038 141.946 51.645Z" fill="#1C313D"/>
<path d="M134.381 58.7695C134.278 58.6869 134.18 58.6743 134.056 58.6456C133.817 58.5925 133.599 58.7569 133.452 58.917C133.346 59.0324 133.271 59.1688 133.175 59.2933L133.093 59.3941L133.048 59.4402L133.014 59.471L132.935 59.5395L132.749 59.6801L132.747 59.6822L132.741 59.6857L132.649 59.7354C132.572 59.7752 132.492 59.8074 132.412 59.8403L132.394 59.848L132.297 59.8732C132.215 59.8927 132.132 59.9053 132.048 59.9165L131.939 59.9305L131.847 59.9361L131.802 59.9354L131.663 59.927C131.58 59.92 131.498 59.9018 131.415 59.892L131.41 59.8913L131.408 59.8906L131.274 59.8501C131.194 59.8228 131.116 59.792 131.041 59.7571C130.88 59.6836 130.729 59.6256 130.561 59.5724C130.205 59.4584 129.821 59.8046 129.997 60.1711C130.108 60.4019 130.261 60.5943 130.477 60.7356C130.673 60.8629 130.89 60.9713 131.112 61.0461C131.569 61.2014 132.071 61.2602 132.547 61.1664C133.459 60.986 134.432 60.3138 134.653 59.3738C134.706 59.1464 134.548 58.9037 134.381 58.7695Z" fill="#FFAF79"/>
<path d="M136.822 64.4512C136.819 64.3631 136.816 64.2756 136.813 64.1882C136.788 63.9924 136.717 63.8972 136.628 63.7503L136.627 63.7496C136.54 63.665 136.484 63.5692 136.37 63.5076C136.266 63.451 135.901 63.4062 136.257 63.4531C136.175 63.4426 136.142 63.4076 136.011 63.3915L135.944 63.3789C135.856 63.3817 135.769 63.3852 135.681 63.388L135.544 63.4307C135.325 63.502 135.185 63.537 134.991 63.6881C134.927 63.7377 134.87 63.7944 134.808 63.8455C134.745 63.8972 134.682 63.9462 134.616 63.9937L134.545 64.0427C134.392 64.1231 134.242 64.2015 134.082 64.2658C134.007 64.2959 133.932 64.3253 133.856 64.3547L133.754 64.3917C133.379 64.4729 133.003 64.5582 132.621 64.6016C132.525 64.6121 132.43 64.6253 132.335 64.6337L132.222 64.6421L132.204 64.6435H132.199C131.975 64.6449 131.757 64.6498 131.539 64.6988C131.234 64.7652 131.041 65.0849 131.178 65.3814C131.527 66.1333 132.559 66.5264 133.341 66.5481C134.287 66.574 135.181 66.2481 135.95 65.7165C136.082 65.6248 136.21 65.5241 136.327 65.4136C136.507 65.2437 136.642 65.0814 136.73 64.845C136.769 64.738 136.837 64.3875 136.781 64.6261C136.74 64.7918 136.754 64.7331 136.822 64.4512Z" fill="white" fill-opacity="0.4"/>
<path d="M136.639 63.7627C136.684 63.8232 136.708 63.8316 136.639 63.7627V63.7627Z" fill="white"/>
<path d="M135.543 63.4308L135.588 63.4168C135.403 63.4741 135.394 63.4776 135.543 63.4308Z" fill="white"/>
<path d="M136.598 63.7028L136.627 63.7504L136.639 63.7629L136.598 63.7028Z" fill="white"/>
<path d="M125.459 46.0668C125.202 45.8381 124.863 45.7472 124.537 45.6583C124.245 45.5786 123.948 45.5024 123.646 45.4737C123.118 45.424 122.57 45.4744 122.062 45.6276C121.504 45.7954 121.044 46.0514 120.592 46.4194C120.164 46.7677 119.698 47.2461 119.701 47.8336C119.703 48.2568 120.061 48.5408 120.473 48.3841C120.89 48.2253 121.176 47.8791 121.547 47.6448L121.548 47.6434L121.572 47.6336L121.708 47.5678C121.8 47.5266 121.895 47.4881 121.99 47.4538C122.085 47.4196 122.179 47.3811 122.275 47.3461L122.346 47.3223L122.463 47.2902C122.661 47.2426 122.858 47.2237 123.059 47.1985L123.207 47.202C123.308 47.2069 123.41 47.216 123.509 47.2293L123.713 47.2678C123.835 47.3013 123.956 47.3405 124.078 47.3776C124.418 47.4804 124.775 47.5902 125.127 47.4895C125.807 47.2951 125.988 46.5397 125.459 46.0668Z" fill="#1C313D"/>
<path d="M141.251 43.7279C141.101 43.3236 140.657 43.1298 140.286 42.9676C139.975 42.8326 139.644 42.7465 139.312 42.6801C138.723 42.5633 138.083 42.5745 137.501 42.72C136.908 42.8682 136.368 43.1305 135.878 43.4977C135.644 43.6733 135.386 43.8908 135.216 44.1279C135.035 44.3825 134.854 44.8295 134.923 45.1351C135 45.4723 135.286 45.6723 135.63 45.6353C135.796 45.6164 135.927 45.5366 136.06 45.4415L136.108 45.4058L136.119 45.4002L136.302 45.2911C136.505 45.1589 136.673 44.9764 136.873 44.8358L136.975 44.7672L137.023 44.74C137.127 44.6847 137.231 44.6301 137.339 44.5833C137.434 44.5406 137.532 44.5035 137.632 44.4693L137.713 44.4434L137.832 44.4133C137.939 44.3881 138.048 44.3679 138.158 44.3532L138.331 44.3336L138.379 44.3308C138.621 44.3273 138.861 44.3539 139.098 44.3965L139.132 44.4021L139.168 44.4126L139.335 44.4637C139.446 44.5001 139.555 44.5413 139.661 44.5882L139.819 44.6616C139.951 44.7253 139.814 44.6574 139.889 44.7008C140.148 44.8463 140.351 44.8938 140.648 44.87C141.209 44.8246 141.417 44.1769 141.251 43.7279Z" fill="#1C313D"/>
<path d="M182.383 145.45C181.953 145.704 181.602 145.706 181.137 145.811C180.721 145.907 180.373 146.116 179.972 146.257C179.102 146.565 178.314 147.13 177.499 147.566C175.808 148.469 174.003 149.125 172.135 149.555C168.393 150.415 164.591 150.199 160.93 149.088C158.854 148.459 156.766 147.713 154.572 147.673C152.528 147.635 150.662 148.362 149.015 149.536C147.481 150.629 146.152 151.987 144.591 153.041C143.06 154.076 141.362 154.807 139.572 155.256C137.59 155.754 135.545 155.83 133.513 155.67C132.436 155.586 131.376 155.409 130.329 155.141C129.378 154.899 128.465 154.347 127.489 154.473C127.337 154.492 127.262 154.617 127.325 154.759C127.686 155.582 128.44 155.891 129.226 156.281C130.066 156.699 130.939 157.043 131.839 157.308C133.704 157.856 135.645 158.01 137.578 157.831C141.683 157.45 145.082 155.734 148.213 153.126C149.704 151.885 151.252 150.531 153.203 150.116C155.487 149.63 157.827 150.568 159.971 151.247C163.922 152.497 167.976 152.825 172.059 152.053C174.197 151.648 176.271 150.933 178.224 149.975C179.147 149.521 180.255 149.003 180.981 148.255C181.339 147.885 181.771 147.401 182.007 146.943C182.227 146.515 182.329 146.084 182.628 145.694C182.74 145.547 182.526 145.365 182.383 145.45Z" fill="#3F80FF"/>
<path d="M5.45758 185.703H224.446C225.829 185.703 226.951 184.302 226.951 182.574V182.012C226.951 180.284 225.829 178.883 224.446 178.883H5.45758C4.07457 178.883 2.95312 180.284 2.95312 182.012V182.574C2.95312 184.302 4.07457 185.703 5.45758 185.703Z" fill="#4F4F4F"/>
<path d="M137.257 175.59H95.6681C94.2187 175.59 93.3065 177.452 94.0185 178.956C94.1098 179.149 94.2807 179.268 94.4659 179.268H139.223C139.616 179.268 139.864 178.763 139.67 178.355L138.906 176.739C138.571 176.03 137.94 175.59 137.257 175.59Z" fill="#090C0F"/>
<mask id="path-44-inside-1_280_686" fill="white">
<path d="M80.2176 121.7H3.01489C1.03476 121.7 -0.407509 123.577 0.103786 125.491L13.7388 176.573C14.0906 177.892 15.2853 178.809 16.6499 178.809H93.8533C95.8334 178.809 97.275 176.932 96.7644 175.019L83.1294 123.936C82.7776 122.618 81.5829 121.7 80.2176 121.7Z"/>
</mask>
<path d="M80.2176 121.7H3.01489C1.03476 121.7 -0.407509 123.577 0.103786 125.491L13.7388 176.573C14.0906 177.892 15.2853 178.809 16.6499 178.809H93.8533C95.8334 178.809 97.275 176.932 96.7644 175.019L83.1294 123.936C82.7776 122.618 81.5829 121.7 80.2176 121.7Z" fill="white"/>
<path d="M0.103786 125.491L0.54787 125.372L0.547898 125.372L0.103786 125.491ZM13.7388 176.573L14.1829 176.454L14.1829 176.455L13.7388 176.573ZM96.7644 175.019L97.2085 174.9L97.2085 174.9L96.7644 175.019ZM83.1294 123.936L82.6853 124.055L82.6853 124.055L83.1294 123.936ZM80.2176 122.16H3.01489V121.24H80.2176V122.16ZM3.01489 122.16C1.33678 122.16 0.114574 123.751 0.54787 125.372L-0.340297 125.61C-0.929591 123.404 0.73273 121.24 3.01489 121.24V122.16ZM0.547898 125.372L14.1829 176.454L13.2947 176.692L-0.340325 125.61L0.547898 125.372ZM14.1829 176.455C14.4811 177.572 15.4934 178.349 16.6499 178.349V179.269C15.0772 179.269 13.7002 178.212 13.2947 176.691L14.1829 176.455ZM16.6499 178.349H93.8533V179.269H16.6499V178.349ZM93.8533 178.349C95.5313 178.349 96.753 176.759 96.3203 175.137L97.2085 174.9C97.797 177.106 96.1355 179.269 93.8533 179.269V178.349ZM96.3203 175.137L82.6853 124.055L83.5735 123.818L97.2085 174.9L96.3203 175.137ZM82.6853 124.055C82.3872 122.937 81.3748 122.16 80.2176 122.16V121.24C81.7911 121.24 83.168 122.298 83.5735 123.818L82.6853 124.055Z" fill="black" mask="url(#path-44-inside-1_280_686)"/>
<path d="M53.8417 149.304C53.8417 153.306 50.597 156.552 46.5941 156.552C42.5911 156.552 39.3457 153.306 39.3457 149.304C39.3457 145.301 42.5911 142.056 46.5941 142.056C50.597 142.056 53.8417 145.301 53.8417 149.304Z" fill="#0D5EFB"/>
<path d="M69.0868 85.5668C69.0043 84.0097 69.0412 82.3721 68.7058 80.8428C68.3997 79.4475 67.5705 78.3295 66.2208 77.8069C64.8019 77.2575 63.1235 77.3161 61.6278 77.2652C57.9801 77.1429 54.3238 77.2854 50.6968 77.6913C49.1906 77.8602 47.5913 78.0147 46.5117 79.209C45.6538 80.1572 45.3136 81.3971 45.1615 82.6379C44.9518 84.3495 45.0746 86.1085 45.1773 87.8234C45.2358 88.8052 45.316 89.7855 45.4167 90.7634C45.5055 91.6208 45.4925 92.6606 45.9205 93.4346C46.3015 94.1217 47.0366 94.4485 47.7732 94.602C48.1959 94.6908 48.6258 94.757 49.0577 94.8107C50.0524 95.1313 51.1666 95.1049 52.2087 95.1202C55.8128 95.1735 59.4192 95.067 63.0141 94.8026C64.5121 94.6927 66.1493 94.6404 67.4026 93.7066C68.5355 92.8617 69.0091 91.5445 69.1703 90.1852C69.3512 88.6593 69.1679 87.0941 69.0868 85.5668Z" fill="#E54F69"/>
<path d="M59.132 85.0458C58.7304 84.7852 58.3288 84.5256 57.9272 84.2651C57.0913 83.7238 56.2521 83.1883 55.4095 82.6553C53.4412 81.4106 54.1811 88.751 54.2469 89.5461C54.2733 89.8642 54.399 90.1425 54.6849 90.31C54.9345 90.4559 55.3323 90.4933 55.5779 90.31C56.3605 89.7256 57.1431 89.1411 57.9257 88.5572C58.3249 88.2592 58.7242 87.9608 59.1239 87.6623C59.5754 87.325 60.1488 86.9862 60.1526 86.3456C60.1569 85.6724 59.6287 85.3677 59.132 85.0458Z" fill="white"/>
<path d="M45.3164 101.893L45.3001 101.888C45.1985 101.871 45.1491 101.862 45.3164 101.893Z" fill="white"/>
<path d="M26.9172 108.411L26.9102 108.409C26.863 108.401 26.8408 108.397 26.9172 108.411Z" fill="white"/>
<path d="M30.8764 108.411L30.869 108.409C30.8222 108.401 30.7996 108.397 30.8764 108.411Z" fill="white"/>
<path d="M42.3295 101.048C42.2755 100.033 42.2999 98.9659 42.0812 97.9687C41.8818 97.0593 41.3413 96.3309 40.4614 95.9899C39.5365 95.6321 38.4427 95.67 37.4678 95.6373C35.0904 95.557 32.7069 95.6501 30.3427 95.9147C29.361 96.0246 28.3189 96.1257 27.6147 96.9038C27.0559 97.522 26.834 98.3297 26.7347 99.1386C26.5983 100.255 26.6782 101.401 26.745 102.519C26.7836 103.159 26.8356 103.798 26.9014 104.435C26.9592 104.994 26.9505 105.672 27.2296 106.176C27.4779 106.624 27.9573 106.837 28.4374 106.937C28.7126 106.995 28.993 107.038 29.2743 107.073C29.9227 107.282 30.6491 107.265 31.3283 107.275C33.5923 107.308 35.8573 107.243 38.1158 107.084L38.1303 107.131C38.1919 107.333 38.2709 107.523 38.3576 107.716C38.516 108.068 38.7228 108.395 38.9184 108.726C39.12 109.068 39.683 109.105 39.875 108.726C40.2026 108.081 40.4659 107.392 40.6332 106.686C40.8426 106.599 41.0443 106.493 41.2315 106.353C41.9701 105.803 42.2787 104.944 42.3837 104.058C42.5016 103.064 42.3825 102.043 42.3295 101.048Z" fill="#0D5EFB"/>
<path d="M29.6923 105.195L29.6826 105.193C29.6217 105.182 29.5925 105.177 29.6923 105.195Z" fill="white"/>
<path d="M31.0395 103.303C30.9097 103.048 30.6589 102.881 30.3988 102.79C30.289 102.752 30.166 102.737 30.05 102.736C29.9685 102.736 29.885 102.751 29.805 102.765C29.7697 102.77 29.736 102.779 29.7023 102.791C29.5304 102.854 29.4081 102.927 29.271 103.052C29.243 103.077 29.2189 103.105 29.1958 103.135C29.1432 103.202 29.0863 103.27 29.0458 103.346C28.9877 103.455 28.936 103.577 28.9129 103.7C28.8898 103.824 28.8692 103.958 28.8798 104.085C28.8907 104.216 28.9058 104.353 28.953 104.476C28.9848 104.559 29.0166 104.647 29.0625 104.724C29.1107 104.803 29.1688 104.885 29.2379 104.948C29.3644 105.062 29.515 105.159 29.6839 105.193C29.7498 105.204 29.8529 105.221 29.8734 105.22C29.9312 105.217 29.9951 105.204 30.0523 105.195L30.1082 105.184C30.1904 105.163 30.271 105.125 30.3468 105.085C30.421 105.047 30.489 104.988 30.5526 104.937C30.5857 104.91 30.6191 104.884 30.6461 104.851C30.7405 104.735 30.8009 104.627 30.8564 104.497L30.8619 104.492L30.8391 104.546L30.8619 104.492C30.9309 104.423 30.9935 104.348 31.0388 104.261C31.1169 104.11 31.1631 103.956 31.1647 103.785C31.166 103.613 31.1159 103.454 31.0395 103.303Z" fill="white"/>
<path d="M33.9636 105.195L33.954 105.193C33.8934 105.182 33.8639 105.177 33.9636 105.195Z" fill="white"/>
<path d="M35.3109 103.303C35.1812 103.048 34.9304 102.881 34.6706 102.79C34.5601 102.752 34.4374 102.737 34.3218 102.736C34.2399 102.736 34.1565 102.751 34.0768 102.765C34.0415 102.77 34.0074 102.779 33.9737 102.791C33.8019 102.854 33.6796 102.927 33.5424 103.052C33.5148 103.077 33.4904 103.105 33.4673 103.135C33.4146 103.202 33.3578 103.27 33.3173 103.346C33.2592 103.455 33.2072 103.577 33.1844 103.7C33.1613 103.824 33.1407 103.958 33.1513 104.085C33.1622 104.216 33.1776 104.353 33.2248 104.476C33.2563 104.559 33.2881 104.647 33.334 104.724C33.3822 104.803 33.4403 104.885 33.5094 104.948C33.6359 105.062 33.7865 105.159 33.9554 105.193C34.0212 105.204 34.1243 105.221 34.1449 105.22C34.203 105.217 34.2666 105.204 34.3241 105.195L34.3797 105.184C34.4619 105.163 34.5428 105.125 34.6182 105.085C34.6924 105.047 34.7605 104.988 34.8244 104.937C34.8572 104.91 34.8909 104.884 34.9179 104.851C35.0123 104.735 35.0727 104.627 35.1279 104.497L35.1334 104.492L35.1109 104.546L35.1334 104.492C35.2024 104.423 35.265 104.348 35.3103 104.261C35.3883 104.11 35.4349 103.956 35.4362 103.785C35.4375 103.613 35.3874 103.454 35.3109 103.303Z" fill="white"/>
<path d="M37.9108 105.195L37.9011 105.193C37.8405 105.182 37.8113 105.177 37.9108 105.195Z" fill="white"/>
<path d="M39.2561 103.303C39.1267 103.048 38.8759 102.881 38.6158 102.79C38.5056 102.752 38.3829 102.737 38.267 102.736C38.1851 102.736 38.102 102.751 38.022 102.765C37.9867 102.77 37.953 102.779 37.9189 102.791C37.7474 102.854 37.6247 102.927 37.4876 103.052C37.46 103.077 37.4359 103.105 37.4128 103.135C37.3598 103.202 37.303 103.27 37.2625 103.346C37.2044 103.455 37.1527 103.577 37.1299 103.7C37.1067 103.824 37.0862 103.958 37.0965 104.085C37.1074 104.216 37.1228 104.353 37.17 104.476C37.2015 104.559 37.2336 104.647 37.2795 104.724C37.3274 104.803 37.3858 104.885 37.4545 104.948C37.5814 105.062 37.7317 105.159 37.9006 105.193C37.9668 105.204 38.0698 105.221 38.0901 105.22C38.1482 105.217 38.2118 105.204 38.2693 105.195L38.3248 105.184C38.407 105.163 38.488 105.125 38.5637 105.085C38.6379 105.047 38.706 104.988 38.7696 104.937C38.8027 104.91 38.8361 104.884 38.8631 104.851C38.9575 104.735 39.0178 104.627 39.0734 104.497L39.0785 104.492L39.056 104.546L39.0788 104.492C39.1476 104.423 39.2102 104.348 39.2555 104.261C39.3338 104.11 39.3801 103.956 39.3814 103.785C39.383 103.613 39.3329 103.454 39.2561 103.303Z" fill="white"/>
<path d="M55.9548 110.354C55.9485 110.268 55.9431 110.178 55.9241 110.096C55.8978 110.029 55.8803 109.987 55.8671 109.955C55.8354 109.755 55.7565 109.526 55.6298 109.372C55.5499 109.275 55.4694 109.168 55.3822 109.059C55.3042 108.961 55.1458 109.004 55.0888 109.097C55.0225 109.204 54.9621 109.287 54.8876 109.372C54.8135 109.456 54.7823 109.531 54.7384 109.628C54.7262 109.655 54.7053 109.719 54.6819 109.769C54.6814 109.767 54.6468 109.812 54.5674 109.918C54.5328 109.995 54.5001 110.073 54.4714 110.153L54.4436 110.222L54.4353 110.24L54.427 110.262L54.4256 110.267L54.4265 110.264C54.3471 110.45 54.3042 110.628 54.2511 110.823C54.2101 110.97 54.1629 111.116 54.1098 111.26C54.0946 111.3 54.0128 111.559 54.0771 111.35C54.0532 111.427 54.0084 111.501 53.9762 111.575C53.8178 111.934 53.7584 112.321 53.7501 112.711C53.7438 113.002 54.0581 113.264 54.3456 113.165C54.7647 113.02 55.12 112.762 55.3676 112.388C55.5864 112.058 55.7243 111.637 55.8403 111.261C55.9076 111.044 55.9641 110.825 55.9636 110.595C55.9636 110.515 55.9602 110.433 55.9548 110.354Z" fill="white"/>
<path d="M56.5255 105.192C56.524 104.699 56.4104 104.32 56.37 103.857C56.3305 103.406 56.3232 102.954 56.2862 102.503C56.2638 102.231 56.2253 101.994 56.1224 101.741C56.0679 101.607 56.0289 101.476 55.9226 101.369C55.8758 101.324 55.8227 101.287 55.7662 101.257L55.7306 101.203C55.6419 101.064 55.4177 101.006 55.2978 101.147C55.214 101.245 55.1019 101.277 55.0098 101.369C54.9158 101.463 54.8724 101.576 54.8193 101.693C54.6838 101.996 54.6424 102.271 54.6282 102.601C54.6078 103.092 54.6886 103.589 54.7637 104.074C54.8368 104.545 54.9016 105.048 55.1034 105.484C55.2808 105.866 55.5337 106.42 55.9748 106.545C56.08 106.576 56.2306 106.549 56.3027 106.459C56.5771 106.117 56.5274 105.608 56.5255 105.192Z" fill="white"/>
<path d="M87.4879 73.3585L87.49 73.3684C87.4837 73.2738 87.4787 73.2484 87.4766 73.264L87.4872 73.3486L87.4879 73.3585Z" fill="white"/>
<path d="M54.7416 98.5584C54.744 98.478 54.7294 98.3995 54.7089 98.3181L54.706 98.3103L54.7065 98.3064L54.705 98.187C54.7011 98.0667 54.6646 97.9536 54.6397 97.8376L54.6431 97.8873L54.6382 97.8308L54.6339 97.8132L54.6304 97.7655C54.6236 97.689 54.6148 97.6129 54.6041 97.5364C54.6119 97.5934 54.6192 97.6505 54.6275 97.708C54.6129 97.5925 54.6187 97.4775 54.6285 97.3625C54.6543 97.2557 54.687 97.1514 54.7016 97.0437L54.7133 96.9311L54.6982 96.8195L54.6972 96.8122C54.6918 96.7284 54.6802 96.6504 54.6563 96.5764L54.6533 96.5296L54.6592 96.5076L54.6685 96.4813L54.6938 96.4277C54.7528 96.3059 54.6836 96.1455 54.5335 96.148C54.4579 96.1494 54.3834 96.1689 54.3088 96.1855L54.3015 96.1835C54.2381 96.1748 54.1772 96.1792 54.1153 96.1972L54.0676 96.2167C53.8984 96.2435 53.7381 96.3366 53.6148 96.4535C53.472 96.589 53.4004 96.7674 53.3643 96.9565C53.3039 97.2674 53.3039 97.554 53.3594 97.8664C53.4072 98.1354 53.6231 98.5301 53.8638 98.6695C54.0378 98.7704 54.3414 98.8922 54.5529 98.8128L54.5866 98.8094C54.7221 98.7923 54.7869 98.6836 54.7416 98.5584Z" fill="white"/>
</svg>
