<svg width="249" height="242" viewBox="0 0 249 242" fill="none" xmlns="http://www.w3.org/2000/svg">
<g filter="url(#filter0_d_280_230)">
<path d="M4 224.469L28.9317 180.764C17.4442 162.343 11.4148 141.033 11.5452 119.314C11.6224 92.9787 20.5931 67.4445 36.9977 46.8652C53.4023 26.2858 76.2757 11.8721 101.897 5.96875C127.518 0.0654399 154.38 3.0199 178.112 14.3515C201.844 25.6832 221.05 44.7252 232.606 68.3799C244.162 92.0347 247.388 118.91 241.758 144.635C236.129 170.359 221.976 193.419 201.602 210.063C181.228 226.706 155.831 235.954 129.543 236.303C103.255 236.651 77.6227 228.08 56.8159 211.982L4 224.469Z" fill="white"/>
<path d="M5.00416 223.718L29.366 181.012L29.5139 180.752L29.356 180.499C17.9185 162.159 11.9154 140.942 12.0452 119.317L12.0452 119.315C12.1221 93.0928 21.0544 67.668 37.3887 47.1768C53.723 26.6857 76.4981 12.3339 102.009 6.45598C127.52 0.578064 154.266 3.51981 177.896 14.8027C201.526 26.0857 220.65 45.046 232.157 68.5994C243.663 92.1529 246.875 118.913 241.27 144.528C235.665 170.142 221.573 193.103 201.286 209.675C180.999 226.248 155.711 235.456 129.536 235.803C103.361 236.15 77.8393 227.615 57.1218 211.586L56.9331 211.44L56.7008 211.495L5.00416 223.718Z" stroke="#B2B6BB"/>
</g>
<path d="M143.186 101.752C143.281 101.645 143.358 101.518 143.413 101.413C143.594 101.414 143.848 101.415 144.165 101.417C144.85 101.422 145.83 101.43 147.012 101.448C149.377 101.484 152.55 101.556 155.783 101.7C159.018 101.843 162.304 102.058 164.899 102.379C166.197 102.54 167.309 102.726 168.15 102.938C168.571 103.045 168.911 103.155 169.168 103.266C169.435 103.383 169.565 103.481 169.614 103.538C169.678 103.613 169.77 103.774 169.874 104.061C169.974 104.338 170.073 104.697 170.169 105.136C170.362 106.014 170.535 107.173 170.691 108.557C171.002 111.324 171.237 114.946 171.421 118.927C171.716 125.291 171.88 132.546 172.018 138.645C172.052 140.176 172.085 141.634 172.118 142.987L172.118 142.987C172.199 146.15 171.253 149.254 169.423 151.832C167.607 154.389 165.019 156.293 162.042 157.262H159.496C157.976 157.262 154.851 156.938 150.984 156.445C147.13 155.952 142.572 155.296 138.206 154.639C133.841 153.982 129.67 153.325 126.591 152.832C125.051 152.586 123.784 152.38 122.902 152.237C122.461 152.165 122.117 152.108 121.882 152.07L121.615 152.026L121.547 152.015L121.53 152.012L121.525 152.011L121.524 152.011C121.524 152.011 121.524 152.011 121.442 152.504L121.524 152.011L121.483 152.004H121.442H108.82V105.684H115.865H116.12L116.27 105.479L133 82.4759L133.096 82.3444V82.1818V67.2489C133.391 67.2698 133.808 67.3196 134.302 67.4346C135.324 67.6722 136.671 68.1865 137.971 69.2947C140.553 71.4944 143.08 76.1543 142.267 86.0843C141.857 91.1005 141.671 94.5418 141.625 96.8823C141.579 99.2054 141.668 100.487 141.828 101.153C141.869 101.323 141.92 101.477 141.987 101.605C142.052 101.727 142.156 101.875 142.329 101.964C142.528 102.066 142.732 102.047 142.888 101.978C143.025 101.918 143.124 101.822 143.186 101.752Z" fill="#5E81FF" stroke="#B2B6BB"/>
<path d="M91.7203 152.331L87.2189 101.442L103.885 102.369V152.331H91.7203Z" fill="#5E81FF" stroke="#B2B6BB"/>
<defs>
<filter id="filter0_d_280_230" x="0" y="0" width="248.459" height="241.313" filterUnits="userSpaceOnUse" color-interpolation-filters="sRGB">
<feFlood flood-opacity="0" result="BackgroundImageFix"/>
<feColorMatrix in="SourceAlpha" type="matrix" values="0 0 0 0 0 0 0 0 0 0 0 0 0 0 0 0 0 0 127 0" result="hardAlpha"/>
<feOffset dy="1"/>
<feGaussianBlur stdDeviation="2"/>
<feComposite in2="hardAlpha" operator="out"/>
<feColorMatrix type="matrix" values="0 0 0 0 0 0 0 0 0 0 0 0 0 0 0 0 0 0 0.11 0"/>
<feBlend mode="normal" in2="BackgroundImageFix" result="effect1_dropShadow_280_230"/>
<feBlend mode="normal" in="SourceGraphic" in2="effect1_dropShadow_280_230" result="shape"/>
</filter>
</defs>
</svg>
