<svg width="271" height="190" viewBox="0 0 271 190" fill="none" xmlns="http://www.w3.org/2000/svg">
<path d="M198.722 180.823L197.353 187.519C197.262 187.971 197.019 188.377 196.664 188.671C196.31 188.965 195.865 189.128 195.405 189.133L101.063 190C100.884 190.003 100.708 189.964 100.548 189.886C100.388 189.808 100.248 189.692 100.141 189.55C100.034 189.407 99.9627 189.241 99.9324 189.065C99.9021 188.89 99.914 188.709 99.967 188.539C100.096 188.119 100.357 187.75 100.71 187.487C101.063 187.225 101.49 187.081 101.93 187.078L135.457 186.698L146.369 135.243C146.561 134.341 147.052 133.53 147.761 132.942C148.471 132.353 149.359 132.022 150.281 132.001L206.058 130.753C206.413 130.743 206.765 130.814 207.088 130.959C207.412 131.105 207.698 131.323 207.925 131.595C208.152 131.868 208.314 132.189 208.4 132.533C208.485 132.877 208.491 133.237 208.417 133.584L198.722 180.823Z" fill="#323B6E"/>
<path d="M127.238 8.0256C127.482 9.79099 127.071 11.7238 125.792 12.9717C125.391 13.3519 124.914 13.6424 124.392 13.824C123.22 14.2501 121.881 14.1436 120.953 13.3218H120.938C121.671 12.9577 122.299 12.413 122.764 11.739C123.89 10.0649 124.012 7.87341 123.662 5.87974C123.558 5.26825 123.4 4.66725 123.19 4.08391C124.21 3.90128 125.29 4.37307 126.005 5.14923C126.721 5.9254 127.086 6.9755 127.238 8.0256Z" fill="#FEA77C"/>
<path d="M113.113 12.622C113.819 12.4628 114.508 12.2334 115.168 11.9371V11.9828C115.136 12.6252 114.896 13.2397 114.483 13.733C114.227 14.0556 113.905 14.3202 113.539 14.5091H113.524C113.485 13.8627 113.347 13.2261 113.113 12.622Z" fill="#FEA77C"/>
<path d="M119.279 7.90463C119.401 9.44174 119.279 11.0854 118.427 12.3638C118.164 12.7634 117.822 13.1052 117.423 13.3682C116.555 13.9617 115.429 14.19 114.501 13.7335C114.914 13.2402 115.154 12.6257 115.186 11.9833V11.9376C115.709 11.7026 116.188 11.3782 116.601 10.9788C117.514 10.0809 117.971 8.57425 117.316 7.46328C117.222 7.27688 117.089 7.11267 116.926 6.98149C116.763 6.85031 116.575 6.75516 116.373 6.70233C116.007 6.62624 115.642 6.74799 115.277 6.85452L114.014 7.26543C113.679 6.00226 113.298 4.7391 112.583 3.64334C112.083 2.8783 111.39 2.2588 110.574 1.84751V1.80185C111.853 0.706093 113.496 -0.298354 115.14 0.0821182C116.236 0.32562 117.042 1.10178 117.636 2.06057C118.017 2.70307 118.324 3.38735 118.549 4.09991C118.929 5.33795 119.174 6.61367 119.279 7.90463Z" fill="#FEA77C"/>
<path d="M123.19 4.06946C123.4 4.6528 123.558 5.2538 123.662 5.86529C124.012 7.85896 123.89 10.0505 122.764 11.7246C122.299 12.3985 121.671 12.9432 120.937 13.3073C119.842 13.8704 118.548 13.9922 117.468 13.4291L117.422 13.3682C117.822 13.1052 118.163 12.7634 118.426 12.3638C119.279 11.0854 119.4 9.44173 119.279 7.90462C119.174 6.61367 118.929 5.33794 118.548 4.0999C118.323 3.38734 118.017 2.70306 117.635 2.06056L117.833 1.93881C118.852 0.90393 120.679 1.08656 121.79 2.03013C122.42 2.5821 122.901 3.28328 123.19 4.06946Z" fill="#FEA77C"/>
<path d="M113.999 7.26558L115.262 6.85467C115.627 6.74814 115.992 6.62638 116.357 6.70248C116.56 6.75531 116.748 6.85046 116.911 6.98164C117.074 7.11281 117.207 7.27703 117.301 7.46342C117.955 8.5744 117.499 10.0811 116.586 10.979C116.173 11.3783 115.694 11.7028 115.17 11.9378C114.51 12.234 113.822 12.4634 113.116 12.6226C113.354 13.2259 113.498 13.8625 113.542 14.5098H113.557C113.923 14.3208 114.245 14.0563 114.501 13.7336C115.429 14.1902 116.555 13.9619 117.423 13.3684L117.468 13.4292C118.549 13.9923 119.843 13.8706 120.938 13.3075H120.954C121.882 14.1293 123.221 14.2358 124.393 13.8097V13.8554C124.587 14.9391 124.503 16.0544 124.15 17.097C123.663 18.558 122.673 19.8059 122.247 21.2822C121.974 22.307 121.953 23.3826 122.186 24.4173C117.209 24.9628 112.174 24.6175 107.317 23.3976C106.815 20.7191 105.461 18.2993 104.335 15.8186C103.208 13.3379 102.326 10.6137 102.828 7.95043C103.193 6.03285 104.274 4.2979 105.704 3.00429C106.648 2.15203 107.835 1.45196 109.113 1.4824C109.61 1.50464 110.097 1.62897 110.544 1.84765C111.36 2.25895 112.053 2.87844 112.553 3.64349C113.283 4.73925 113.664 6.00241 113.999 7.26558Z" fill="#FEA77C"/>
<path d="M18.15 13.6267C17.7968 14.3111 17.531 15.0372 17.3586 15.7878C17.0021 15.7761 16.6516 15.6934 16.3275 15.5444C16.0034 15.3955 15.7124 15.1833 15.4714 14.9203L15.4258 14.8899C15.564 14.6467 15.6811 14.3921 15.7758 14.1289C16.5976 14.0681 17.4042 13.8246 18.15 13.6267Z" fill="#FEA77C"/>
<path d="M7.28339 5.92658C7.48917 6.01403 7.68341 6.12648 7.86171 6.26139C8.40959 6.6723 8.75962 7.29628 9.064 7.92025C9.84344 9.4619 10.4655 11.0782 10.9207 12.7446C11.2555 13.9774 11.4686 15.4232 10.6772 16.4276C10.6772 16.4357 10.674 16.4434 10.6683 16.4491C10.6626 16.4548 10.6548 16.458 10.6468 16.458C9.85538 17.4473 8.44003 17.5995 7.16164 17.6147C7.21924 17.5298 7.2653 17.4377 7.29861 17.3407C7.48124 16.8537 7.4508 16.3211 7.3747 15.8189C7.07664 13.5494 6.17825 11.4006 4.77228 9.59433C4.45268 9.19864 4.08743 8.80295 3.63086 8.58989L3.69174 8.48335C3.81349 7.43325 4.17874 6.45924 5.19841 5.97224C5.52426 5.82215 5.87749 5.74066 6.23616 5.73281C6.59482 5.72495 6.95128 5.79091 7.28339 5.92658Z" fill="#FEA77C"/>
<path d="M96.8289 80.3158C96.9928 80.3138 97.1555 80.344 97.3077 80.4049C97.4599 80.4658 97.5985 80.556 97.7158 80.6705C97.8331 80.785 97.9268 80.9214 97.9913 81.0721C98.0559 81.2227 98.0901 81.3846 98.0921 81.5485C98.0921 81.8769 97.9627 82.192 97.732 82.4256C97.5012 82.6592 97.1877 82.7924 96.8594 82.7964C96.6969 82.8005 96.5353 82.772 96.3841 82.7126C96.2328 82.6533 96.095 82.5643 95.9787 82.4508C95.8624 82.3373 95.77 82.2017 95.7069 82.052C95.6438 81.9023 95.6114 81.7414 95.6114 81.5789C95.6073 81.2505 95.7328 80.9338 95.9608 80.6973C96.1887 80.4608 96.5006 80.3238 96.8289 80.3158Z" fill="#20140F"/>
<path d="M17.5711 4.0998C19.169 5.59125 20.1583 7.17402 20.8583 9.24379C20.4868 9.24641 20.1158 9.27182 19.7474 9.31988L15.5317 9.74601L14.9839 9.80689C14.6503 8.55434 14.1103 7.36619 13.3859 6.29132C13.146 5.90716 12.8653 5.54999 12.5488 5.226L12.6401 5.13469C12.97 4.66285 13.3925 4.26304 13.8817 3.95956C14.3709 3.65607 14.9168 3.45524 15.4861 3.36929C15.8574 3.31119 16.2371 3.3372 16.5971 3.44539C16.9623 3.56714 17.2667 3.84108 17.5711 4.0998Z" fill="#FEA77C"/>
<path d="M82.3109 72.159C82.6305 72.4178 82.8436 72.8743 82.6609 73.2396C82.5968 73.3628 82.5063 73.4703 82.3958 73.5545C82.2853 73.6387 82.1576 73.6975 82.0217 73.7266C81.7453 73.7745 81.4653 73.8 81.1847 73.8027C80.4238 73.8331 79.6476 74.0005 79.0236 74.4267C78.6888 74.6549 78.4149 74.9441 78.0648 75.1419C77.7148 75.3398 77.2582 75.4007 76.9386 75.1724C76.6191 74.9441 76.5277 74.5028 76.6495 74.1375C76.7775 73.7735 77.004 73.4521 77.3039 73.2091C77.8846 72.7025 78.5656 72.324 79.3025 72.0985C80.0394 71.873 80.8156 71.8054 81.5804 71.9003C81.5804 71.8394 81.9913 71.9155 82.3109 72.159Z" fill="#2C2C2C"/>
<path d="M14.3752 14.0227C14.832 14.1404 15.306 14.1765 15.7753 14.1292C15.6806 14.3924 15.5635 14.647 15.4253 14.8902C14.9992 15.6815 14.3752 16.3664 13.5686 16.7317C12.762 17.0969 11.4836 17.1121 10.7075 16.5034L10.6466 16.4577C10.6547 16.4577 10.6624 16.4545 10.6681 16.4488C10.6738 16.4431 10.677 16.4353 10.677 16.4273C11.4684 15.4228 11.2553 13.977 10.9205 12.7443C10.4653 11.0779 9.84325 9.46157 9.06381 7.91991C8.75943 7.29594 8.4094 6.67196 7.86152 6.26105C7.68322 6.12614 7.48899 6.01369 7.2832 5.92624C7.73977 5.24139 8.22678 4.5261 8.9725 4.19128C9.71823 3.85647 10.7683 3.97822 11.5293 4.41957C11.9078 4.63568 12.2515 4.9076 12.5489 5.22617C12.8654 5.55016 13.1461 5.90733 13.386 6.29149C14.1104 7.36636 14.6504 8.55451 14.984 9.80706C14.0404 9.95925 13.0816 10.2484 12.6555 11.0702C12.0772 12.2421 13.112 13.6879 14.3752 14.0227Z" fill="#FEA77C"/>
<path d="M7.16087 17.614C8.43926 17.5988 9.85461 17.4466 10.646 16.4573L10.7069 16.503C11.483 17.1117 12.6549 17.1726 13.568 16.7313C14.4812 16.2899 14.9986 15.6812 15.4247 14.8898L15.4704 14.9202C15.7113 15.1832 16.0024 15.3954 16.3265 15.5443C16.6505 15.6933 17.0011 15.776 17.3575 15.7877C17.5299 15.0371 17.7958 14.311 18.1489 13.6266C17.4032 13.8245 16.5966 14.068 15.7748 14.1288C15.3054 14.1761 14.8314 14.1401 14.3746 14.0223C13.1115 13.6875 12.0766 12.2417 12.6549 11.0698C13.081 10.248 14.0398 9.95887 14.9834 9.80668L15.5313 9.7458L19.7469 9.31968C20.1153 9.27162 20.4863 9.24621 20.8579 9.24358C21.2286 9.23977 21.5979 9.29106 21.9536 9.39577C23.3842 9.86756 24.1604 11.4655 24.2365 12.9722C24.3126 14.4789 23.8408 15.9247 23.5364 17.4009C22.8503 20.8142 23.0814 24.3483 24.206 27.6432C18.5903 29.3021 13.4615 30.55 7.66309 30.5348C7.63266 30.3674 7.60222 30.2 7.55656 30.0326C7.20336 28.5691 6.56746 27.1887 5.68464 25.9691C4.87804 24.8582 3.85837 23.8842 3.00611 22.7884C1.72108 21.1098 0.816026 19.1722 0.353549 17.1094C-0.108928 15.0467 -0.117785 12.9081 0.32759 10.8416C0.449341 10.1263 0.951564 9.39577 1.63641 8.90876C2.32126 8.42176 2.71696 8.34567 3.29527 8.46742L3.63009 8.58917C4.08666 8.80224 4.45191 9.19792 4.7715 9.59361C6.17748 11.3999 7.07587 13.5487 7.37393 15.8181C7.45003 16.3204 7.48047 16.853 7.29784 17.34C7.26453 17.437 7.21847 17.5291 7.16087 17.614Z" fill="#FEA77C"/>
<path d="M94.883 90.6041C94.8983 91.6085 94.3047 92.5369 93.5894 93.2522C92.3989 94.3863 90.8593 95.0837 89.2216 95.2306C87.5852 95.3733 85.9465 94.9836 84.5494 94.1197C83.9112 93.7549 83.3687 93.2437 82.9667 92.6282C82.6014 91.989 82.4644 91.1976 82.7384 90.528C83.1949 89.3409 84.6864 88.8996 85.9648 88.9452C87.2432 88.9909 88.5215 89.3714 89.7695 89.1279C91.0174 88.8844 92.1284 88.1386 93.2546 88.5648C94.0156 88.8387 94.8678 89.5844 94.883 90.6041Z" fill="white"/>
<path d="M54.5364 163.534C50.6708 151.587 43.6397 141.162 36.4868 130.752L36.4411 130.783C34.8736 132.32 34.1279 133.644 33.3669 135.713C31.8603 139.838 31.982 144.388 32.5908 148.726C33.8235 157.553 36.9129 165.999 39.9871 174.369C41.2351 177.733 42.4678 181.111 43.7158 184.49H60.9892L54.5364 163.534Z" fill="#878787"/>
<path d="M80.9881 80.4983C81.3153 80.5021 81.6282 80.6328 81.8609 80.8627C82.0937 81.0926 82.2282 81.4039 82.236 81.731C82.2391 81.9785 82.1684 82.2212 82.0332 82.4284C81.8979 82.6357 81.7041 82.798 81.4763 82.8948C81.2486 82.9916 80.9972 83.0185 80.7541 82.972C80.511 82.9256 80.2872 82.808 80.1112 82.6341C79.9351 82.4602 79.8147 82.2378 79.7654 81.9954C79.716 81.7529 79.7398 81.5012 79.8338 81.2722C79.9277 81.0433 80.0877 80.8475 80.2932 80.7097C80.4988 80.5719 80.7406 80.4983 80.9881 80.4983Z" fill="#20140F"/>
<path d="M99.798 73.8787C99.9046 74.244 99.8285 74.7005 99.5241 74.9288C99.2197 75.1571 98.7479 75.0962 98.3979 74.9136C98.0479 74.731 97.7587 74.4418 97.4239 74.2288C96.7847 73.8026 96.0085 73.6505 95.2476 73.6505C94.9674 73.6529 94.6875 73.6326 94.4106 73.5896C94.2737 73.5632 94.1443 73.5073 94.0313 73.4259C93.9183 73.3444 93.8244 73.2393 93.7561 73.1178C93.5735 72.7525 93.7561 72.296 94.0757 72.0372C94.3953 71.7785 94.8062 71.6872 94.8062 71.7481C95.5694 71.6384 96.347 71.69 97.0889 71.8998C97.8308 72.1095 98.5205 72.4726 99.1132 72.9656C99.4203 73.202 99.6571 73.5177 99.798 73.8787Z" fill="#2C2C2C"/>
<path d="M99.0975 60.6229C96.1907 62.4187 92.4316 63.1188 88.7943 63.2557C86.5419 63.3318 84.2743 63.2253 82.0219 63.1188C80.987 63.0731 79.8761 62.9057 78.8564 62.9818C77.8367 63.0579 72.0079 64.0167 68.1271 70.1499L67.7162 70.7739C65.2507 74.7764 64.1854 79.8139 65.4333 84.3491C65.4589 84.4457 65.4582 84.5474 65.4315 84.6437C65.4047 84.74 65.3528 84.8274 65.2811 84.897C65.1356 85.0386 64.9581 85.143 64.7637 85.2014C64.3927 85.3384 63.9878 85.3544 63.6071 85.247C63.4175 85.1892 63.2462 85.083 63.1101 84.9389C62.974 84.7948 62.8778 84.6178 62.8309 84.4252C62.1308 83.3599 61.0351 82.5685 59.8176 82.3707C59.3786 82.2995 58.9307 82.3047 58.4935 82.3859L58.1131 81.5945C55.6324 75.5678 54.4605 68.628 57.4586 63.0579C59.8176 58.7053 64.3376 55.9355 68.9793 54.1701C73.6211 52.4047 78.5064 51.4611 83.0872 49.574C85.9941 47.6564 89.327 45.9214 92.9339 45.6931C95.1947 45.5618 97.4505 46.0235 99.478 47.0324C100.395 47.4727 101.221 48.0819 101.913 48.8282C103.267 50.3806 103.709 52.6025 103.313 54.6114C102.917 56.6203 101.73 58.4314 100.224 59.8315C99.8671 60.121 99.4908 60.3854 99.0975 60.6229Z" fill="#242424"/>
<path d="M62.3594 91.7456C60.6549 92.4761 58.5547 92.263 57.0633 91.1368C55.2522 89.7519 54.5369 87.0886 55.4044 84.9884C55.6347 84.4067 55.9818 83.8784 56.4241 83.436C56.9941 82.8878 57.7148 82.5221 58.4938 82.3859C58.931 82.3047 59.3789 82.2996 59.8179 82.3707C61.0354 82.5686 62.1312 83.3599 62.8312 84.4253C62.8781 84.6179 62.9743 84.7949 63.1104 84.939C63.2465 85.0831 63.4178 85.1893 63.6074 85.2471C63.9881 85.3545 64.393 85.3385 64.764 85.2014C64.9585 85.143 65.1359 85.0386 65.2815 84.8971C65.3532 84.8274 65.4051 84.74 65.4318 84.6437C65.4585 84.5475 65.4592 84.4458 65.4337 84.3492C64.1857 79.8139 65.251 74.7765 67.7165 70.7739L68.1274 70.15C72.0082 64.0167 78.0197 63.0579 78.8567 62.9819C79.6937 62.9058 80.9874 63.0732 82.0222 63.1188C84.2746 63.2254 86.5422 63.3319 88.7946 63.2558C92.432 63.1188 96.191 62.4188 99.0978 60.6229C99.9044 63.5906 100.726 66.5583 101.533 69.526C104.668 80.9097 105.307 89.7671 103.39 95.8394C102.279 99.3398 100.315 101.912 97.4846 103.525C94.333 105.291 90.8307 106.341 87.2271 106.599C87.4293 107.479 87.6782 108.348 87.9728 109.202C88.2924 110.084 88.6729 110.982 89.3425 111.652L89.5708 111.85C87.2728 114.741 83.2702 116.004 79.572 115.548C75.8738 115.091 72.4496 113.052 69.7406 110.45L69.5123 110.389C69.6493 109.628 69.4362 108.836 69.2079 108.075C67.4882 102.475 65.0227 97.1178 62.5725 91.7912L62.3594 91.7456ZM99.524 74.9287C99.8283 74.7004 99.9044 74.2438 99.7979 73.8786C99.6569 73.5176 99.4201 73.2019 99.1131 72.9655C98.5203 72.4724 97.8307 72.1093 97.0888 71.8996C96.3469 71.6899 95.5692 71.6382 94.8061 71.7479C94.8061 71.6871 94.3952 71.7784 94.0756 72.0371C93.756 72.2958 93.5734 72.7524 93.756 73.1176C93.8243 73.2391 93.9182 73.3442 94.0312 73.4257C94.1442 73.5072 94.2736 73.5631 94.4104 73.5894C94.6873 73.6324 94.9673 73.6528 95.2475 73.6503C96.0084 73.6503 96.7846 73.8025 97.4238 74.2286C97.7586 74.4417 98.0325 74.7308 98.3978 74.9135C98.763 75.0961 99.2044 75.157 99.524 74.9287ZM98.0934 81.5489C98.1105 81.3743 98.0905 81.1981 98.0349 81.0317C97.9793 80.8653 97.8893 80.7126 97.7706 80.5833C97.652 80.4541 97.5074 80.3514 97.3464 80.2818C97.1854 80.2122 97.0115 80.1774 96.8361 80.1795C96.6606 80.1817 96.4877 80.2208 96.3284 80.2943C96.1691 80.3678 96.0271 80.4741 95.9117 80.6062C95.7963 80.7382 95.71 80.8932 95.6584 81.0609C95.6069 81.2286 95.5914 81.4052 95.6127 81.5793C95.6127 81.7418 95.6451 81.9027 95.7082 82.0524C95.7713 82.2021 95.8637 82.3377 95.98 82.4512C96.0963 82.5647 96.2341 82.6537 96.3854 82.7131C96.5366 82.7724 96.6982 82.8009 96.8607 82.7968C97.189 82.7928 97.5025 82.6596 97.7333 82.426C97.964 82.1924 98.0934 81.8773 98.0934 81.5489ZM93.5886 93.2522C94.3039 92.5369 94.8974 91.6086 94.8822 90.6041C94.867 89.5997 94.0147 88.8388 93.2538 88.5648C92.1276 88.1387 90.9557 88.8996 89.7687 89.1279C88.5816 89.3562 87.2423 88.9909 85.9639 88.9453C84.6855 88.8996 83.1941 89.341 82.7375 90.528C82.4636 91.1977 82.6006 91.9891 82.9658 92.6283C83.3678 93.2437 83.9103 93.7549 84.5486 94.1197C85.9456 94.9836 87.5844 95.3733 89.2208 95.2307C90.8585 95.0838 92.3981 94.3864 93.5886 93.2522ZM82.6614 73.2394C82.8441 72.8741 82.631 72.4176 82.3114 72.1589C81.9918 71.9001 81.5809 71.8393 81.5809 71.9001C80.8161 71.8053 80.0399 71.8728 79.303 72.0983C78.5661 72.3238 77.8851 72.7023 77.3044 73.2089C77.0045 73.4519 76.778 73.7733 76.65 74.1373C76.5282 74.5026 76.6195 74.9591 76.9391 75.1722C77.2587 75.3853 77.7153 75.3396 78.0653 75.1417C78.4154 74.9439 78.6893 74.6547 79.0241 74.4265C79.6481 74.0003 80.4243 73.8329 81.1852 73.8025C81.4658 73.7998 81.7457 73.7743 82.0222 73.7264C82.1581 73.6973 82.2858 73.6385 82.3963 73.5543C82.5068 73.4702 82.5973 73.3626 82.6614 73.2394ZM82.2353 81.7315C82.2274 81.4044 82.093 81.0932 81.8602 80.8632C81.6274 80.6333 81.3145 80.5026 80.9874 80.4988C80.7399 80.4988 80.498 80.5724 80.2925 80.7102C80.0869 80.848 79.927 81.0438 79.833 81.2728C79.739 81.5017 79.7152 81.7534 79.7646 81.9959C79.814 82.2383 79.9344 82.4607 80.1104 82.6346C80.2865 82.8085 80.5103 82.9261 80.7534 82.9725C80.9964 83.019 81.2478 82.9921 81.4756 82.8953C81.7033 82.7985 81.8971 82.6362 82.0324 82.4289C82.1677 82.2217 82.2383 81.979 82.2353 81.7315Z" fill="#FEA77C"/>
<path d="M179.323 165.599C181.591 163.447 181.858 160.046 179.92 158.004C177.982 155.961 174.572 156.05 172.304 158.203C170.036 160.355 169.769 163.755 171.707 165.798C173.645 167.84 177.055 167.751 179.323 165.599Z" fill="white"/>
<path d="M10.3884 17.1737H10.8145C10.8145 17.3715 10.9667 17.2954 11.058 17.3259C11.1625 17.3585 11.2643 17.3992 11.3624 17.4476V16.7932L11.7276 16.8997C11.8494 16.9606 11.7429 17.2346 12.0168 17.1889C12.2907 17.1432 12.2451 17.2954 12.3821 17.3563L12.0625 17.6911C12.0929 17.8433 12.1386 17.9955 12.1842 18.2238L11.4689 17.8129L10.7232 17.9042C10.3884 18.1173 10.5406 18.3608 10.6775 18.6195L10.2058 18.9695L10.3427 19.1826C10.2362 19.4565 10.1449 19.7152 10.0231 20.0044L9.71875 19.837C9.8405 19.5783 9.96225 19.3348 10.0992 19.076L9.79484 18.7564L10.1449 18.4977C10.0936 18.4146 10.0479 18.3281 10.0079 18.239L10.2058 17.6911C10.1753 17.5694 10.1449 17.4476 10.0992 17.3107C10.0536 17.1737 10.3732 17.3867 10.3884 17.1737Z" fill="#F57D77"/>
<path d="M120.664 14.92L120.527 15.3613L119.796 14.7982C119.857 14.7069 119.903 14.6156 119.994 14.4939C119.781 14.2351 119.507 13.9916 119.4 13.6568L119.796 13.5503C119.8 13.6271 119.81 13.7035 119.827 13.7786C119.903 14.0221 120.055 14.1591 120.268 14.0525C120.393 14.0178 120.526 14.0231 120.648 14.0677C120.801 14.0431 120.95 13.997 121.09 13.9308L121.181 14.1286C121.151 14.2656 121.105 14.4178 121.059 14.6004L121.653 14.783L121.775 14.9961L121.638 15.1787H122.383C122.596 15.3309 122.718 15.4831 122.581 15.7875L121.957 15.6353L121.912 16.031H121.668V15.4983L121.09 14.92H120.664L120.542 14.783V14.3873L120.953 14.2504L120.45 14.2047L120.1 14.57L120.542 14.783L120.664 14.92Z" fill="#F57D77"/>
<path d="M122.521 14.5702L123.114 14.3572C123.19 14.4789 123.281 14.6311 123.403 14.7985C123.464 14.692 123.495 14.6007 123.54 14.5094H123.799L123.662 14.8442C123.75 14.9103 123.841 14.9712 123.936 15.0268C123.814 15.2703 123.51 15.2247 122.977 14.9203L122.734 15.1638L122.338 14.9812C122.399 14.8442 122.46 14.692 122.521 14.5702Z" fill="#F57D77"/>
<path d="M117.208 14.7685H116.751C116.66 14.4793 116.949 14.4336 117.04 14.2662L117.603 14.4489L117.421 14.8141C117.464 14.8948 117.515 14.9712 117.573 15.0424L117.147 15.3011C117.192 15.4229 117.238 15.5751 117.345 15.8338L116.721 15.5903V15.1641C116.892 15.0491 117.055 14.9219 117.208 14.7837C117.132 14.7989 117.147 14.7989 117.162 14.8141L117.269 14.7076L117.223 14.6619C117.192 14.6924 117.162 14.7228 117.208 14.7685Z" fill="#F57D77"/>
<path d="M15.4844 15.6204H16.0018C16.017 16.153 16.1236 16.6857 15.8192 17.1879C15.5909 16.9292 15.8801 16.7618 15.8953 16.5183L15.4844 16.4422V15.6204Z" fill="#F57D77"/>
<path d="M10.0984 17.3103H9.87007C9.83963 17.4473 9.82441 17.5691 9.79397 17.7212H9.26131L9.38307 17.5234L9.24609 17.3712L9.67222 17.0973L9.53525 16.9451C9.62657 16.9299 9.70266 16.9299 9.74832 16.8842C9.82093 16.8368 9.88738 16.7806 9.94616 16.7168L10.1897 16.8842L10.3875 16.7168V17.1734C10.281 17.2038 10.1136 17.1125 10.0984 17.3103Z" fill="#F57D77"/>
<path d="M11.0731 19.1974L10.9666 19.0757L11.0579 18.9539C11.0122 18.68 10.9666 18.4517 10.9209 18.1473L11.5297 18.6648L11.2405 18.7713L11.3927 18.9844L11.2557 19.2431L11.5449 19.3496C11.4688 19.4714 11.4231 19.5779 11.3623 19.6844H10.7383C10.8753 19.4866 10.9818 19.3496 11.0731 19.1974Z" fill="#F57D77"/>
<path d="M123.723 15.651L123.829 15.3162C123.906 15.3466 123.997 15.3618 124.027 15.4075C124.058 15.4531 124.225 15.6966 124.377 15.9249L123.799 15.7575L123.129 16.1075L123.556 16.3663L123.266 16.5793C122.825 16.4271 123.266 15.9097 122.855 15.651H123.723Z" fill="#F57D77"/>
<path d="M118.273 14.083C118.38 13.596 118.502 13.5504 118.974 13.7939L118.684 14.0222L119.263 14.2809C119.247 14.3874 119.247 14.5092 119.232 14.6918L118.837 14.494C118.76 14.2048 118.456 14.22 118.273 14.083Z" fill="#F57D77"/>
<path d="M14.6172 17.0355H15.2412L15.7129 17.5073L15.5303 17.766L14.7694 17.3399C14.7542 17.3247 14.6933 17.1877 14.6172 17.0355Z" fill="#F57D77"/>
<path d="M14.1003 17.2181L14.2068 17.5834C14.1003 17.6595 14.3742 17.7965 14.3286 17.9334L13.7959 18.2835L13.6437 18.0856C13.6711 18.0428 13.7074 18.0064 13.7503 17.9791L13.6133 17.7204L14.1003 17.2181Z" fill="#F57D77"/>
<path d="M120.679 15.8789L119.857 16.1528L119.705 16.0006V15.6201L120.223 15.6962L120.603 15.3918C120.633 15.6201 120.664 15.7571 120.679 15.8789Z" fill="#F57D77"/>
<path d="M121.484 14.0075L121.88 13.7184C121.971 14.0989 122.032 14.4032 122.124 14.7837H121.789C121.743 14.7685 121.667 14.738 121.652 14.7076C121.637 14.6772 121.56 14.2815 121.484 14.0075Z" fill="#F57D77"/>
<path d="M13.204 16.7473L13.2953 17.0974L12.5496 17.6757C12.5343 17.4626 12.5191 17.3256 12.5039 17.1734L12.6409 17.0365L12.8692 16.7473H13.204Z" fill="#F57D77"/>
<path d="M118.762 14.4948L119.143 15.1035L119.006 15.3774C118.975 15.4535 118.96 15.5449 118.93 15.6362L118.671 15.5905C118.732 15.4383 118.778 15.3014 118.854 15.1339L118.564 15.0122V14.51L118.762 14.4948Z" fill="#F57D77"/>
<path d="M8.89639 18.6949C8.53113 18.8471 8.22675 18.3448 7.90716 18.7253L7.64844 18.3753C7.9376 18.2688 8.15066 18.2535 8.34851 18.4209L8.60723 18.2535L8.89639 18.6949Z" fill="#F57D77"/>
<path d="M122.764 16.9143L122.292 17.0665C122.216 16.8535 122.17 16.6861 122.109 16.473L122.566 16.2751C122.627 16.4882 122.672 16.6404 122.764 16.9143Z" fill="#F57D77"/>
<path d="M12.1065 18.6792C12.4565 18.8314 12.7 18.9988 12.6239 19.4097H12.3347L11.9238 19.0292C11.9916 18.9163 12.0526 18.7994 12.1065 18.6792Z" fill="#F57D77"/>
<path d="M124.407 14.4943C123.996 14.4943 124.072 14.0834 123.859 13.9312L124.072 13.6877C124.24 13.6116 124.438 14.0986 124.407 14.4943Z" fill="#F57D77"/>
<path d="M12.6863 17.6899L13.0059 17.8725L13.295 17.5834L13.4624 17.9182L13.295 18.1617L12.6406 17.9638C12.6558 17.8878 12.6711 17.8117 12.6863 17.6899Z" fill="#F57D77"/>
<path d="M8.57685 17.7058L8.08984 17.3862L9.09429 17.1884C9.07907 17.2797 9.09429 17.4014 9.04863 17.4471C8.89719 17.5435 8.73959 17.63 8.57685 17.7058Z" fill="#F57D77"/>
<path d="M121.532 16.9295L121.197 16.6708C121.258 16.4729 121.334 16.2751 121.41 16.062C121.821 16.2599 121.578 16.5947 121.669 16.8534L121.532 16.9295Z" fill="#F57D77"/>
<path d="M121.104 13.9309L120.814 13.4135C121.104 13.2613 121.286 13.52 121.53 13.5809C121.454 13.8244 121.332 13.9766 121.104 13.9309Z" fill="#F57D77"/>
<path d="M118.274 14.083L118.137 14.4939C117.757 14.4026 117.757 14.4026 117.727 13.9765C117.94 13.8243 118.092 14.0069 118.274 14.083Z" fill="#F57D77"/>
<path d="M124.467 15.1945H124.072C123.996 14.9054 124.057 14.7227 124.422 14.6162L124.467 15.1945Z" fill="#F57D77"/>
<path d="M12.6406 18.5122V18.2992L13.0211 18.4057L13.3103 18.2383C13.3255 18.4209 13.3407 18.5427 13.3559 18.6644L13.2037 18.7253L12.6406 18.5122Z" fill="#F57D77"/>
<path d="M119.111 16.2298L118.518 16.0472C118.898 15.682 118.898 15.682 119.248 15.9711L119.126 16.1233C119.111 16.1385 119.111 16.169 119.111 16.2298Z" fill="#F57D77"/>
<path d="M8.83398 18.725H9.07749V19.6838L8.9253 19.7142C8.65136 19.5772 9.12314 19.349 8.8492 19.2272C9.10793 19.0598 8.9253 18.8924 8.83398 18.725Z" fill="#F57D77"/>
<path d="M119.08 16.062L119.613 16.4577L119.171 16.8686C119.141 16.5795 119.126 16.3816 119.08 16.062Z" fill="#F57D77"/>
<path d="M121.546 15.8645C121.211 15.971 121.029 15.8797 120.938 15.5905C121.288 15.4688 121.288 15.4688 121.546 15.8645Z" fill="#F57D77"/>
<path d="M6.27734 18.2993L6.81 18.7102L6.35344 19.1211C6.323 18.832 6.30778 18.6494 6.27734 18.2993Z" fill="#F57D77"/>
<path d="M15.2565 16.5945L14.7695 16.3054C14.8304 16.1532 14.9065 16.0314 14.9826 15.864C15.1196 16.1075 15.2261 16.3206 15.3478 16.5184L15.2565 16.5945Z" fill="#F57D77"/>
<path d="M120.754 17.2947C120.83 17.0816 120.906 16.899 121.013 16.5946C121.134 16.899 121.195 17.0816 121.287 17.2947H120.754Z" fill="#F57D77"/>
<path d="M118.151 14.5558L118.501 14.7384C118.422 14.8451 118.33 14.9421 118.227 15.0276C118.17 15.0539 118.107 15.0644 118.045 15.058C117.923 14.8449 117.953 14.6623 118.151 14.5558Z" fill="#F57D77"/>
<path d="M14.0246 16.5647L14.2072 16.9452C13.9637 17.1278 13.7963 17.0365 13.6289 16.8082L14.0246 16.5647Z" fill="#F57D77"/>
<path d="M118.502 16.8991L118.03 17.2644C118 17.0513 118 16.9295 117.984 16.823L118.167 16.6404L118.502 16.8991Z" fill="#F57D77"/>
<path d="M123.525 17.0363L124.012 16.671C124.028 16.8689 124.043 16.9906 124.058 17.0972L123.86 17.2798L123.525 17.0363Z" fill="#F57D77"/>
<path d="M118.426 18.1317L118.958 17.6903V18.1317H118.426Z" fill="#F57D77"/>
<path d="M123.784 13.8852L123.541 13.9765L123.602 14.0526H122.81C122.81 14.0374 122.795 14.007 122.795 13.9918L123.723 13.7787L123.784 13.8852Z" fill="#F57D77"/>
<path d="M14.3285 16.0472C14.3437 16.2907 14.3589 16.5342 14.0545 16.6103C13.998 16.5223 13.9472 16.4308 13.9023 16.3364C13.9095 16.2885 13.9265 16.2426 13.9522 16.2017C13.978 16.1607 14.012 16.1255 14.052 16.0984C14.092 16.0712 14.1373 16.0526 14.1849 16.0438C14.2325 16.035 14.2814 16.0362 14.3285 16.0472Z" fill="#F57D77"/>
<path d="M120.663 13.4135V13.7635L120.268 13.8091V13.4135H120.663Z" fill="#F57D77"/>
<path d="M2.99023 18.2534L3.34027 18.0403C3.40114 18.1773 3.46202 18.3447 3.53811 18.5425C3.23374 18.5121 3.23374 18.5121 2.99023 18.2534Z" fill="#F57D77"/>
<path d="M121.897 17.8271V18.3598L121.562 18.162L121.897 17.8271Z" fill="#F57D77"/>
<path d="M15.4554 15.6206H15.0293V15.3467L15.4098 15.1488C15.4402 15.3466 15.4402 15.4836 15.4554 15.6206Z" fill="#F57D77"/>
<path d="M10.8125 17.1882V16.8229C10.7973 16.7468 10.6299 16.7468 10.7364 16.6099C11.0712 16.6251 11.1169 16.8534 11.0865 17.1577L10.8125 17.1882Z" fill="#F57D77"/>
<path d="M118.32 15.8789H117.803C117.894 15.7115 117.955 15.5898 118.061 15.4224L118.32 15.8789Z" fill="#F57D77"/>
<path d="M8.94141 18.2537L9.3371 17.9341C9.36754 18.1471 9.38276 18.2841 9.42841 18.5124L8.94141 18.2537Z" fill="#F57D77"/>
<path d="M116.433 13.9613V14.1896H116.037V13.9613H116.433Z" fill="#F57D77"/>
<path d="M116.812 16.8682L117.025 17.2486C116.751 17.4008 116.706 17.203 116.584 17.0964L116.812 16.8682Z" fill="#F57D77"/>
<path d="M120.663 15.9099H120.876C120.937 16.0317 121.013 16.1686 121.089 16.336C120.785 16.3056 120.648 16.1839 120.663 15.9099Z" fill="#F57D77"/>
<path d="M4.74163 19.4555V19.6837H4.33072C4.3155 19.2881 4.57422 19.4707 4.74163 19.4555Z" fill="#F57D77"/>
<path d="M116.418 17.1569H116.189V16.7612H116.418V17.1569Z" fill="#F57D77"/>
<path d="M15.7149 12.8205L15.4258 12.577L15.9584 12.2878L15.7149 12.8205Z" fill="#F57D77"/>
<path d="M15.3186 18.0403C15.3034 18.1468 15.2882 18.2229 15.273 18.3751L14.8164 18.0403H15.3186Z" fill="#F57D77"/>
<path d="M120.146 16.7921C119.978 16.5486 119.902 16.4725 119.826 16.3508L120.268 16.3203C120.237 16.4573 120.207 16.5334 120.146 16.7921Z" fill="#F57D77"/>
<path d="M114.956 14.3572L115.153 14.5702L114.971 14.7833C114.896 14.7161 114.825 14.645 114.758 14.5702L114.956 14.3572Z" fill="#F57D77"/>
<path d="M13.7207 19.2426L14.1468 18.9382C14.0403 19.2274 14.0403 19.2274 13.7207 19.2426Z" fill="#F57D77"/>
<path d="M12.0763 18.7254H11.8175L11.7871 18.4819L12.061 18.4514C12.061 18.5579 12.0763 18.634 12.0763 18.7254Z" fill="#F57D77"/>
<path d="M120.222 17.599L119.766 17.5685L120.055 17.3098L120.222 17.599Z" fill="#F57D77"/>
<path d="M124.407 16.2294L124.088 16.6555C124.103 16.3511 124.103 16.3511 124.407 16.2294Z" fill="#F57D77"/>
<path d="M14.3301 15.9861L14.7106 15.7731L14.7714 16.0014L14.3301 16.0622V15.9861Z" fill="#F57D77"/>
<path d="M16.0029 18.4971L15.7441 18.2384L16.0029 17.9188V18.4971Z" fill="#F57D77"/>
<path d="M12.5034 17.1724C12.3055 17.142 12.3055 17.005 12.4273 16.9137C12.549 16.8224 12.6403 16.868 12.6403 17.0354L12.5034 17.1724Z" fill="#F57D77"/>
<path d="M117.223 14.0075C117.169 13.9102 117.123 13.8084 117.086 13.7031C117.253 13.6727 117.253 13.6727 117.223 14.0075Z" fill="#F57D77"/>
<path d="M122.795 18.4666V18.2383L123.069 18.4057L122.795 18.4666Z" fill="#F57D77"/>
<path d="M115.961 15.1647L115.656 14.9821C116.006 14.9516 116.006 14.9516 115.961 15.1647Z" fill="#F57D77"/>
<path d="M7.08459 17.5536L7.26722 17.858C7.08459 17.8884 6.91718 17.9341 7.08459 17.5536Z" fill="#F57D77"/>
<path d="M123.251 15.2856L122.946 15.4378C122.916 15.3008 122.855 15.1182 123.251 15.2856Z" fill="#F57D77"/>
<path d="M122.337 16.0317H122.094V15.9556L122.322 15.9099C122.32 15.9511 122.326 15.9922 122.337 16.0317Z" fill="#F57D77"/>
<path d="M5.42644 18.4667V18.695H5.36556C5.35245 18.6171 5.33207 18.5407 5.30469 18.4667H5.42644Z" fill="#F57D77"/>
<path d="M115.701 15.3459V15.6199H115.625V15.3459H115.701Z" fill="#F57D77"/>
<path d="M16.1257 18.4362L16.1561 18.7101H16.0648C16.0518 18.6173 16.0314 18.5257 16.0039 18.4362H16.1257Z" fill="#F57D77"/>
<path d="M12.8984 19.0598C12.9441 18.8924 12.9745 18.8163 12.9898 18.725C13.0236 18.786 13.0443 18.8534 13.0506 18.9228C13.0658 18.938 13.005 18.9685 12.8984 19.0598Z" fill="#F57D77"/>
<path d="M2.3366 16.9139V17.1574H2.2605L2.21484 16.9292L2.3366 16.9139Z" fill="#F57D77"/>
<path d="M118.975 13.7944C118.99 13.5813 119.157 13.6726 119.264 13.6574C119.249 13.8705 119.081 13.7792 118.975 13.7944Z" fill="#F57D77"/>
<path d="M114.332 13.687H114.606V13.7631H114.332V13.687Z" fill="#F57D77"/>
<path d="M119.416 14.7528V14.5245H119.492L119.538 14.7528H119.416Z" fill="#F57D77"/>
<path d="M9.85547 20.3997V20.1562H9.91635L9.97722 20.3997H9.85547Z" fill="#F57D77"/>
<path d="M11.2084 20.1099H10.9801C10.9698 20.0913 10.9645 20.0703 10.9649 20.049L11.1931 19.9882C11.1931 20.0338 11.2084 20.0643 11.2084 20.1099Z" fill="#F57D77"/>
<path d="M119.264 13.6566L119.355 13.535L119.4 13.6566H119.264Z" fill="#F57D77"/>
<path d="M14.8926 15.346L14.9837 15.2245L15.0293 15.346H14.8926Z" fill="#F57D77"/>
<path d="M14.9063 15.3611L14.8151 15.4674L14.7695 15.4218L14.8759 15.3307C14.8911 15.3307 14.8911 15.3459 14.9063 15.3611Z" fill="#F57D77"/>
<path d="M87.1336 112.382C86.9206 112.351 86.677 112.473 86.5096 112.245C86.3574 112.473 86.1292 112.367 85.9161 112.382L85.7335 112.108L85.8705 111.956C85.9826 111.961 86.0919 111.992 86.19 112.047C86.2661 112.017 86.2357 111.971 86.2205 111.971C86.1505 111.975 86.0826 111.996 86.0226 112.032C86.0987 112.047 86.19 112.078 86.19 112.047C86.19 112.017 85.9922 111.88 85.977 111.849C85.9377 111.881 85.902 111.917 85.8705 111.956L85.7335 112.108H85.3987C85.3258 111.921 85.234 111.743 85.1247 111.575C85.0888 111.539 85.0612 111.496 85.0438 111.448C85.0264 111.4 85.0196 111.349 85.024 111.298C85.0283 111.248 85.0437 111.199 85.0689 111.154C85.0942 111.11 85.1288 111.072 85.1704 111.043L84.7899 110.556C84.7595 110.86 84.7443 111.027 84.729 111.256H84.3333L84.1659 111.134C84.2116 110.982 84.242 110.845 84.2877 110.708H83.542L83.3441 110.921L83.405 110.997L83.8007 110.814C83.9376 110.936 84.0442 111.043 84.1659 111.134L84.3333 111.256C84.4247 111.56 84.6986 111.286 84.8508 111.454C84.8945 111.578 84.9301 111.705 84.9573 111.834L84.7899 112.214L84.4094 111.682L84.2268 111.834L83.8159 111.271C83.6942 111.454 83.8159 111.834 83.3746 111.819L83.3289 111.454L82.781 111.256L82.918 110.753C82.6136 110.525 82.3549 110.875 82.0962 110.83C81.8447 110.761 81.6002 110.669 81.3657 110.556V110.099L81.183 110.251L80.6656 109.993V109.825L81.4874 109.658L81.0917 109.369L81.3048 109.064L80.6656 109.338V109.825C80.6325 109.861 80.5905 109.887 80.5438 109.901L80.6656 109.993L80.5286 110.48C80.5591 110.464 80.5743 110.434 80.6047 110.403L80.7265 110.769L80.8787 110.358L81.3657 110.556L80.9852 110.875C81.0156 111.012 81.0613 111.134 81.0917 111.256C81.1222 111.377 80.7873 111.271 80.696 111.21C80.6047 111.149 80.2395 111.088 80.0112 111.24C79.8286 111.119 79.8133 110.814 79.5242 110.769C79.5851 110.51 79.6307 110.251 79.6764 109.993C79.722 109.734 79.7677 109.901 79.7677 109.856L80.3156 109.703C80.3338 109.675 80.3491 109.644 80.3612 109.612L79.996 109.445C79.9087 109.575 79.8323 109.713 79.7677 109.856C79.7677 109.901 79.722 109.947 79.6764 109.993H79.4024V109.612H78.4893L78.0327 109.034L77.8805 109.171L77.1805 108.699L77.6675 108.532C77.6279 108.459 77.5973 108.383 77.5762 108.303C77.5553 108.163 77.5195 108.025 77.4696 107.892C77.5001 107.877 77.5609 107.953 77.6675 108.06C77.6844 107.954 77.6946 107.847 77.6979 107.74C77.6476 107.731 77.5957 107.742 77.5531 107.77C77.5105 107.799 77.4806 107.842 77.4696 107.892C77.4848 108.06 77.4087 108.105 77.287 108.181C76.9065 107.755 76.3282 107.786 75.7803 107.634L75.6738 107.877H75.4759C75.4607 107.755 75.4607 107.634 75.4455 107.542L76.1304 107.223L76.2369 107.314C76.2604 107.245 76.291 107.179 76.3282 107.116C76.0238 106.994 75.7803 106.69 75.4303 107.101C75.3085 106.949 75.2324 106.827 75.1259 106.705C75.3542 106.538 75.7651 106.675 75.7195 106.218C75.476 106.081 75.1868 106.599 74.9433 106.157C74.9128 106.249 74.8976 106.31 74.8672 106.431L74.4563 106.507L74.5172 106.584L74.1671 106.949L74.2584 107.04H73.6192L73.7258 106.614L73.3605 106.72L73.1018 106.249L73.6345 106.477L73.9693 106.294L74.1062 106.599C74.1823 106.416 74.2584 106.218 74.3498 106.02L74.5324 106.188C74.6072 106.121 74.6783 106.05 74.7454 105.975L73.9997 105.701L74.228 105.351C74.4106 105.442 74.4867 105.701 74.7607 105.64C75.0346 105.579 74.9281 105.777 75.1716 105.64H74.7607L74.1976 104.986L73.878 105.457H73.3757C73.3605 105.351 73.3301 105.229 73.3149 105.062L73.117 105.183C72.8279 105.016 72.9344 104.742 72.9192 104.499L73.5584 104.377L73.7106 104.483C73.7258 104.438 73.7714 104.392 73.7562 104.362C73.7216 104.282 73.6809 104.206 73.6345 104.133C73.6649 104.118 73.7106 104.072 73.741 104.072L75.552 104.803L76.4043 105.107C76.6709 105.211 76.9458 105.293 77.2261 105.351C77.757 105.473 78.2804 105.625 78.7937 105.807C79.1589 105.914 79.509 106.051 79.8894 106.051C80.2699 106.051 80.6656 106.279 81.0917 106.264C81.1678 106.264 81.2591 106.325 81.3504 106.325C81.6641 106.321 81.9767 106.362 82.2788 106.447C82.5527 106.553 82.8876 106.447 83.2071 106.584C83.5267 106.72 83.755 106.614 84.0746 106.614L83.892 106.842L84.1355 106.903L84.2268 106.629H85.8857L85.7487 106.827L86.114 106.964C86.1344 106.899 86.1497 106.833 86.1596 106.766L86.0226 106.69C86.0987 106.584 86.3727 106.568 86.9966 106.675L86.7227 106.842C86.7075 106.842 86.7227 106.873 86.7227 106.964L87.1032 107.071L87.1945 107.314L87.3619 107.177C87.9859 109.399 88.4272 110.419 89.2643 111.393L89.1121 111.682L88.7468 111.499C88.715 111.571 88.6994 111.649 88.7012 111.727C88.7164 111.788 88.7773 111.834 88.8229 111.895C88.8686 111.956 88.7468 112.001 88.6859 112.032L88.2142 112.275C88.062 111.971 87.9098 111.682 87.7576 111.362L87.4837 111.514L87.8793 111.941C87.8345 112.029 87.7782 112.111 87.7119 112.184C87.7652 112.221 87.8115 112.268 87.8489 112.321L87.438 112.61C87.4228 112.686 87.4228 112.808 87.4076 112.93H87.0575C87.0423 112.899 86.9967 112.854 87.0119 112.823C87.0271 112.793 87.1032 112.534 87.1336 112.382H87.1488L87.2706 112.291L87.2249 112.245L87.1336 112.382ZM86.5857 110.967H86.5705L86.6618 111.088L86.7075 111.043C86.67 111.008 86.6217 110.986 86.5705 110.982L86.601 110.951L86.4944 110.83L86.4488 110.875C86.4875 110.915 86.5342 110.946 86.5857 110.967ZM79.7525 110.388C79.859 110.495 79.8894 110.556 79.9046 110.556L80.1025 110.495C80.0112 110.464 79.9351 110.434 80.209 110.556H80.0873C80.1003 110.648 80.1206 110.74 80.1481 110.83H80.2395C80.2242 110.723 80.2242 110.647 79.7525 110.388ZM85.9161 111.545C86.1292 111.575 86.2509 111.438 86.2966 111.24C86.3422 111.043 85.9465 111.18 86.0074 110.921C86.0074 110.906 85.84 110.875 85.7183 110.83C85.7879 111.107 85.8847 111.377 86.0074 111.636L85.4443 111.408C85.4611 111.498 85.4713 111.59 85.4748 111.682C85.6342 111.696 85.7927 111.647 85.9161 111.545ZM77.7283 107.755C78.261 108.029 78.3523 108.181 78.2458 108.395L78.0023 108.486C78.0175 108.638 77.8957 108.836 78.1393 108.866C78.5197 108.547 78.3828 108.136 78.4132 107.755H77.7283ZM81.9744 110.312L82.294 110.556C82.3701 110.403 82.4158 110.282 82.4766 110.175L82.2788 109.993L81.9744 110.312ZM87.2858 111.651V111.575H86.9966V111.651H87.2858ZM79.372 108.973C79.3735 108.932 79.3684 108.891 79.3568 108.851L79.1285 108.912C79.1285 108.942 79.1437 108.958 79.1437 108.973H79.372ZM78.9459 108.014H78.8698V108.303H78.9459V108.014ZM83.3441 106.781V106.857H83.6181V106.781H83.3441ZM80.483 109.292H80.4373V109.429H80.483V109.292ZM80.1025 110.038V110.084H80.2395V110.038H80.1025ZM83.2071 110.038V110.084H83.3441V110.038H83.2071ZM82.6288 110.175V110.221H82.781V110.175H82.6288ZM85.353 111.119H85.3987V110.982H85.353V111.119ZM88.0772 111.119H88.0315V111.256H88.0772V111.119ZM74.3193 104.59V104.544H74.1823V104.59H74.3193ZM75.689 105.488H75.6434V105.625H75.689V105.488ZM76.6782 106.188H76.6326V106.325H76.6782V106.188ZM76.2065 106.751H76.2521V106.614H76.2065V106.751ZM85.1704 106.934V106.979H85.3074V106.934H85.1704ZM83.2985 107.04H83.2528V107.177H83.2985V107.04ZM76.4804 107.451H76.5261V107.314H76.4804V107.451ZM83.7702 107.36V107.405H83.9072V107.36H83.7702ZM87.3771 107.74H87.3315V107.877H87.3771V107.74ZM86.8597 108.105V108.06H86.7227V108.105H86.8597Z" fill="#2F80ED" fill-opacity="0.11"/>
<path d="M79.4341 110.161L78.6427 110.556L78.4449 110.389C78.3992 110.267 78.5666 110.176 78.9319 110.13C78.9623 109.993 78.9927 109.856 79.0232 109.689C79.358 109.734 79.2667 110.039 79.4341 110.161Z" fill="#2F80ED" fill-opacity="0.11"/>
<path d="M82.8581 111.256C82.7668 111.423 82.7211 111.484 82.6907 111.56C82.6605 111.63 82.6351 111.701 82.6146 111.773L82.1733 111.986L82.0059 111.834L82.569 111.256H82.8581Z" fill="#2F80ED" fill-opacity="0.11"/>
<path d="M75.873 108.38C75.8883 108.212 75.8883 108.045 75.9035 107.862C76.2687 107.908 76.3448 108.243 76.6036 108.349L76.3601 108.593L75.873 108.38Z" fill="#2F80ED" fill-opacity="0.11"/>
<path d="M74.8668 106.782V107.254C74.6537 107.284 74.4711 107.604 74.1211 107.36L74.8668 106.782Z" fill="#2F80ED" fill-opacity="0.11"/>
<path d="M73.1484 105.64H73.5593C73.468 105.899 74.0616 105.838 73.8637 106.188C73.4072 106.021 73.4072 106.021 73.1484 105.64Z" fill="#2F80ED" fill-opacity="0.11"/>
<path d="M78.1258 109.948L77.4258 109.795C77.441 109.735 77.441 109.658 77.4562 109.552L77.7606 109.658L78.3389 109.537C78.2172 109.75 78.1563 109.887 78.1258 109.948Z" fill="#2F80ED" fill-opacity="0.11"/>
<path d="M72.8275 104.499L72.584 104.164L73.2688 103.936L73.3449 104.088L72.8275 104.499Z" fill="#2F80ED" fill-opacity="0.11"/>
<path d="M76.9685 109.521L76.4967 109.582C76.4664 109.489 76.4308 109.398 76.3901 109.308C76.3749 109.278 76.3293 109.248 76.2988 109.217L76.5119 109.004L76.9685 109.521Z" fill="#2F80ED" fill-opacity="0.11"/>
<path d="M78.9617 110.982V111.378H78.5508C78.566 111.074 78.7182 110.967 78.9617 110.982Z" fill="#2F80ED" fill-opacity="0.11"/>
<path d="M72.4789 105.96V106.447L72.0832 106.477C72.0375 106.188 72.2202 106.112 72.4789 105.96Z" fill="#2F80ED" fill-opacity="0.11"/>
<path d="M81.1074 111.18L81.5488 111.47L81.1074 111.744V111.18Z" fill="#2F80ED" fill-opacity="0.11"/>
<path d="M83.9844 112.778C84.122 112.655 84.2697 112.543 84.4257 112.443C84.4409 112.657 84.4562 112.794 84.4562 113.007L83.9844 112.778Z" fill="#2F80ED" fill-opacity="0.11"/>
<path d="M84.1218 112.839L83.6652 113.174C83.65 112.961 83.65 112.809 83.6348 112.611L84.1218 112.839Z" fill="#2F80ED" fill-opacity="0.11"/>
<path d="M72.1133 105.413L72.5242 105.687L72.1133 105.976V105.413Z" fill="#2F80ED" fill-opacity="0.11"/>
<path d="M77.7148 111.363V110.861L78.1562 111.044L77.7148 111.363Z" fill="#2F80ED" fill-opacity="0.11"/>
<path d="M79.0072 110.982L78.8398 110.754L79.0529 110.556L79.3421 110.906L79.0072 110.982Z" fill="#2F80ED" fill-opacity="0.11"/>
<path d="M77.9568 110.541H77.7285V110.13C78.1242 110.115 77.9568 110.374 77.9568 110.541Z" fill="#2F80ED" fill-opacity="0.11"/>
<path d="M70.9415 104.195V104.605L70.698 104.651L70.6523 104.255L70.9415 104.195Z" fill="#2F80ED" fill-opacity="0.11"/>
<path d="M73.3604 107.619C73.2814 107.721 73.1949 107.818 73.1017 107.908L72.8125 107.375L73.3604 107.619Z" fill="#2F80ED" fill-opacity="0.11"/>
<path d="M85.293 112.779L85.5517 112.489C85.6278 112.642 85.6887 112.763 85.8409 113.022L85.293 112.779Z" fill="#2F80ED" fill-opacity="0.11"/>
<path d="M71.3993 103.495L71.6885 103.738L71.1406 104.027C71.2776 103.753 71.3233 103.632 71.3993 103.495Z" fill="#2F80ED" fill-opacity="0.11"/>
<path d="M71.869 105.611H71.3516C71.382 105.504 71.3972 105.413 71.4429 105.26L71.869 105.611Z" fill="#2F80ED" fill-opacity="0.11"/>
<path d="M72.1428 104.5C72.2074 104.556 72.2684 104.617 72.3254 104.682C72.3254 104.682 72.3254 104.713 72.3406 104.713L72.1428 104.926L71.9297 104.713L72.1428 104.5Z" fill="#2F80ED" fill-opacity="0.11"/>
<path d="M86.3739 113.844L86.0391 114.285V113.783L86.3739 113.844Z" fill="#2F80ED" fill-opacity="0.11"/>
<path d="M88.1244 112.915L87.6678 113.296L87.5156 112.991L88.1244 112.915Z" fill="#2F80ED" fill-opacity="0.11"/>
<path d="M84.9277 112.747L85.2473 113.143L84.9277 113.264V112.747Z" fill="#2F80ED" fill-opacity="0.11"/>
<path d="M77.3631 109.734L76.9066 110.053C76.8965 109.945 76.8761 109.838 76.8457 109.734H77.3631Z" fill="#2F80ED" fill-opacity="0.11"/>
<path d="M74.2441 108.136L74.7007 107.817C74.7311 107.954 74.7464 108.03 74.7616 108.136H74.2441Z" fill="#2F80ED" fill-opacity="0.11"/>
<path d="M73.6195 106.965V107.284L73.2238 107.315C73.2086 107.284 73.2086 107.254 73.1934 107.223L73.6195 106.965Z" fill="#2F80ED" fill-opacity="0.11"/>
<path d="M76.7239 108.456H76.9674L77.0131 108.654C76.8305 108.776 76.7087 108.761 76.7239 108.456Z" fill="#2F80ED" fill-opacity="0.11"/>
<path d="M76.0249 108.73H76.2684L76.314 108.944C76.1162 109.05 76.0097 109.05 76.0249 108.73Z" fill="#2F80ED" fill-opacity="0.11"/>
<path d="M72.3561 104.21H72.0974C72.0822 104.134 72.0822 104.073 72.0669 103.997C72.0517 103.921 72.3713 103.89 72.3561 104.21Z" fill="#2F80ED" fill-opacity="0.11"/>
<path d="M87.9863 112.946C87.9863 112.87 88.0016 112.779 88.0016 112.672H88.2755L88.0624 113.007C88.032 112.992 88.0015 112.976 87.9863 112.946Z" fill="#2F80ED" fill-opacity="0.11"/>
<path d="M86.8906 113.798V113.509H86.9667V113.798H86.8906Z" fill="#2F80ED" fill-opacity="0.11"/>
<path d="M72.2363 103.678H72.4646V103.739L72.2363 103.8C72.2515 103.754 72.2363 103.724 72.2363 103.678Z" fill="#2F80ED" fill-opacity="0.11"/>
<path d="M76.6035 104.804H76.8318C76.8439 104.821 76.8493 104.843 76.847 104.864L76.6187 104.925C76.6187 104.88 76.6035 104.849 76.6035 104.804Z" fill="#2F80ED" fill-opacity="0.11"/>
<path d="M77.2572 105.032H77.0289C77.0312 105.01 77.0258 104.989 77.0137 104.971L77.242 104.91C77.2536 104.949 77.2587 104.99 77.2572 105.032Z" fill="#2F80ED" fill-opacity="0.11"/>
<path d="M77.4551 105.093H77.6834C77.6834 105.108 77.6986 105.139 77.6986 105.154L77.4551 105.2V105.093Z" fill="#2F80ED" fill-opacity="0.11"/>
<path d="M78.6732 105.459H78.4297V105.398L78.658 105.337C78.6555 105.378 78.6607 105.419 78.6732 105.459Z" fill="#2F80ED" fill-opacity="0.11"/>
<path d="M89.128 111.667L89.2496 111.758L89.204 111.804L89.0977 111.698L89.128 111.667Z" fill="#2F80ED" fill-opacity="0.11"/>
<path d="M76.4356 104.727H76.2988V104.681H76.4356V104.727Z" fill="#2F80ED" fill-opacity="0.11"/>
<path d="M78.125 105.291H77.9883V105.245H78.125V105.291Z" fill="#2F80ED" fill-opacity="0.11"/>
<path d="M81.1842 105.899V106.051H81.1387V105.899H81.1842Z" fill="#2F80ED" fill-opacity="0.11"/>
<path d="M83.9987 106.188V106.325H83.9531V106.188H83.9987Z" fill="#2F80ED" fill-opacity="0.11"/>
<path d="M5.18318 20.2323H5.03125V20.1868H5.18318V20.2323Z" fill="#F57D77"/>
<path d="M14.8155 19.2422C14.8744 19.2422 14.922 19.2285 14.922 19.2117C14.922 19.1949 14.8744 19.1813 14.8155 19.1813C14.7567 19.1813 14.709 19.1949 14.709 19.2117C14.709 19.2285 14.7567 19.2422 14.8155 19.2422Z" fill="#F57D77"/>
<path d="M116.813 17.873V18.025H116.768V17.873H116.813Z" fill="#F57D77"/>
<path d="M13.1875 16.7467L13.2939 16.6251L13.3242 16.6707L13.2179 16.7619L13.1875 16.7467Z" fill="#F57D77"/>
<path d="M10.3405 16.473V16.6098H10.2949V16.473H10.3405Z" fill="#F57D77"/>
<path d="M116.95 16.3363V16.473H116.904V16.3363H116.95Z" fill="#F57D77"/>
<path d="M57.414 86.7543C57.371 86.7603 57.3273 86.7494 57.2922 86.7238C57.2419 86.6897 57.2063 86.6379 57.1922 86.5788C57.1781 86.5197 57.1866 86.4574 57.2161 86.4042C57.5194 85.9404 57.987 85.6087 58.525 85.4759C59.0694 85.3551 59.6393 85.4419 60.1229 85.7194C60.1493 85.735 60.1723 85.7557 60.1905 85.7804C60.2087 85.8051 60.2218 85.8332 60.2289 85.863C60.236 85.8929 60.237 85.9238 60.2319 85.954C60.2267 85.9843 60.2156 86.0131 60.199 86.039C60.1676 86.0882 60.1186 86.1235 60.062 86.1376C60.0054 86.1518 59.9455 86.1437 59.8947 86.1151C59.5136 85.8922 59.0624 85.8215 58.6315 85.9172C58.2093 86.0269 57.8414 86.2866 57.5966 86.6477C57.581 86.6822 57.555 86.711 57.5223 86.7301C57.4896 86.7492 57.4517 86.7576 57.414 86.7543Z" fill="#BF453F"/>
<path d="M90.3031 86.4792C90.2758 86.4813 90.2485 86.4777 90.2227 86.4687C90.1969 86.4597 90.1732 86.4455 90.1532 86.4269C90.1332 86.4083 90.1173 86.3858 90.1064 86.3608C90.0955 86.3357 90.0899 86.3087 90.09 86.2814C90.0833 86.2511 90.0833 86.2197 90.09 86.1894C90.0967 86.1591 90.11 86.1307 90.1288 86.106C90.1477 86.0814 90.1717 86.0612 90.1991 86.0468C90.2266 86.0324 90.2569 86.0241 90.2879 86.0226C91.0184 85.9313 91.9011 85.4595 92.1598 84.6377C92.4185 83.8159 91.8554 82.7201 91.5815 82.3397C91.2977 81.977 90.9928 81.6315 90.6683 81.3048C90.3647 81.0031 90.0801 80.6829 89.8161 80.346C89.4503 79.8644 89.139 79.3437 88.8877 78.7937C88.8725 78.7671 88.8631 78.7376 88.8603 78.7072C88.8575 78.6767 88.8612 78.646 88.8713 78.6171C88.8814 78.5882 88.8977 78.5619 88.9189 78.5398C88.9401 78.5177 88.9658 78.5005 88.9943 78.4893C89.0488 78.4631 89.1114 78.4596 89.1685 78.4796C89.2255 78.4996 89.2723 78.5414 89.2986 78.5958C89.5381 79.1186 89.8341 79.6136 90.1813 80.0721C90.4348 80.3943 90.7093 80.6993 91.0031 80.9852C91.3227 81.3352 91.6576 81.6853 91.9467 82.0657C92.6163 82.9789 92.8598 83.9681 92.6011 84.7747C92.3424 85.5813 91.4141 86.3422 90.3335 86.4792H90.3031Z" fill="#BF453F"/>
<path d="M113.998 7.49398C113.946 7.49583 113.896 7.48031 113.855 7.44994C113.813 7.41956 113.783 7.37609 113.77 7.32658C113.419 6.06341 113.054 4.83068 112.354 3.78058C111.89 3.0437 111.232 2.44875 110.452 2.06084C110.423 2.04794 110.397 2.02916 110.376 2.00569C110.354 1.98222 110.338 1.95457 110.328 1.92451C110.318 1.89444 110.314 1.86263 110.317 1.83107C110.32 1.79952 110.33 1.76893 110.345 1.74125C110.374 1.68942 110.421 1.64999 110.477 1.63037C110.533 1.61075 110.595 1.61229 110.65 1.63471C111.496 2.07899 112.218 2.72768 112.75 3.52185C113.48 4.63283 113.861 5.896 114.211 7.20483C114.226 7.26332 114.219 7.32529 114.19 7.37872C114.162 7.43216 114.115 7.47323 114.059 7.49398H113.998Z" fill="#BF453F"/>
<path d="M112.292 19.3032C112.243 19.3022 112.195 19.2863 112.155 19.2576C112.107 19.2212 112.075 19.1672 112.066 19.1072C112.058 19.0473 112.073 18.9864 112.109 18.938C112.731 18.0399 113.126 17.0048 113.262 15.921C113.397 14.8371 113.268 13.7366 112.886 12.7134C112.867 12.6529 112.872 12.5874 112.901 12.5308C112.916 12.5011 112.938 12.475 112.964 12.454C112.99 12.4331 113.021 12.4178 113.053 12.4091C114.21 12.1199 115.503 11.709 116.401 10.8263C117.299 9.9436 117.71 8.63477 117.101 7.56945C116.929 7.2627 116.646 7.03383 116.31 6.93026C115.99 6.86938 115.64 6.97591 115.321 7.08245L110.374 8.66521C109.446 8.95437 108.487 9.25875 107.681 9.80663C106.874 10.3545 106.22 11.2068 106.098 12.0438C106.094 12.0735 106.085 12.102 106.069 12.1277C106.054 12.1533 106.034 12.1755 106.009 12.1927C105.985 12.2099 105.957 12.2218 105.928 12.2276C105.899 12.2335 105.868 12.233 105.839 12.2264C105.78 12.2153 105.727 12.1828 105.691 12.135C105.654 12.0872 105.637 12.0277 105.641 11.9677C105.794 11.0089 106.433 10.0806 107.422 9.42616C108.411 8.77175 109.279 8.52824 110.238 8.22386L115.184 6.6411C115.534 6.53457 115.96 6.3976 116.401 6.48891C116.843 6.58022 117.223 6.8846 117.497 7.34117C118.243 8.61955 117.664 10.2328 116.736 11.1459C115.808 12.059 114.56 12.4852 113.403 12.7895C113.758 13.856 113.859 14.9907 113.698 16.1031C113.537 17.2155 113.118 18.2749 112.475 19.1967C112.455 19.2278 112.428 19.2538 112.396 19.2724C112.365 19.2909 112.329 19.3015 112.292 19.3032Z" fill="#BF453F"/>
<path d="M108.746 9.22827C108.697 9.23107 108.648 9.21774 108.607 9.19029C108.565 9.16284 108.534 9.12276 108.518 9.07608C108.261 8.27987 107.853 7.54085 107.316 6.89978C107.281 6.85188 107.265 6.79305 107.271 6.73425C107.276 6.67546 107.303 6.6207 107.346 6.58018C107.395 6.54124 107.457 6.52268 107.519 6.52834C107.582 6.53401 107.64 6.56348 107.681 6.61062C108.244 7.29776 108.677 8.08162 108.959 8.92389C108.969 8.95286 108.972 8.98341 108.969 9.01374C108.967 9.04408 108.958 9.07359 108.944 9.10053C108.93 9.12748 108.91 9.15132 108.887 9.17064C108.863 9.18996 108.836 9.20438 108.807 9.21305L108.746 9.22827Z" fill="#BF453F"/>
<path d="M113.542 14.7382C113.5 14.7413 113.459 14.7312 113.423 14.7094C113.388 14.6875 113.36 14.655 113.344 14.6164C113.317 14.5637 113.311 14.5025 113.328 14.4457C113.345 14.3889 113.384 14.341 113.435 14.312C113.867 14.0866 114.234 13.7541 114.5 13.3464C114.767 12.9387 114.924 12.4694 114.957 11.9835C114.957 11.923 114.981 11.8649 115.024 11.8221C115.067 11.7793 115.125 11.7552 115.185 11.7552C115.247 11.7591 115.305 11.7865 115.348 11.8317C115.39 11.877 115.414 11.9367 115.414 11.9988C115.378 12.566 115.196 13.1145 114.887 13.5915C114.578 14.0685 114.151 14.4581 113.648 14.7229L113.542 14.7382Z" fill="#BF453F"/>
<path d="M115.566 14.2054C115.178 14.2107 114.794 14.1329 114.439 13.9771C114.383 13.9529 114.338 13.9072 114.315 13.8501C114.293 13.7931 114.293 13.7293 114.318 13.6727C114.342 13.6162 114.387 13.5717 114.445 13.5488C114.502 13.526 114.565 13.5268 114.622 13.551C115.916 14.1445 117.514 13.3227 118.229 12.2422C118.944 11.1616 119.188 9.79193 119.035 7.92C118.929 6.64919 118.684 5.3938 118.305 4.17616C118.104 3.47642 117.813 2.8061 117.437 2.18249C117.421 2.15786 117.41 2.13013 117.405 2.10106C117.4 2.07199 117.402 2.0422 117.409 2.01359C117.416 1.98498 117.429 1.95816 117.447 1.93484C117.465 1.91152 117.488 1.8922 117.514 1.87811C117.537 1.86125 117.564 1.84941 117.593 1.84333C117.621 1.83725 117.65 1.83706 117.679 1.84276C117.707 1.84846 117.734 1.85994 117.758 1.87649C117.782 1.89304 117.803 1.91431 117.818 1.93898C118.217 2.59581 118.529 3.3018 118.746 4.03919C119.139 5.29046 119.389 6.58212 119.492 7.88957C119.644 9.86802 119.355 11.3747 118.609 12.5009C118.282 13.0144 117.833 13.4389 117.302 13.7364C116.771 14.0338 116.174 14.195 115.566 14.2054Z" fill="#BF453F"/>
<path d="M119.004 14.0226C118.428 14.0258 117.859 13.8901 117.345 13.6269C117.294 13.598 117.255 13.5501 117.238 13.4932C117.221 13.4364 117.227 13.3752 117.254 13.3226C117.265 13.2941 117.283 13.2684 117.305 13.2472C117.327 13.226 117.353 13.2098 117.382 13.1996C117.411 13.1895 117.442 13.1858 117.472 13.1886C117.502 13.1914 117.532 13.2008 117.559 13.216C118.943 13.9465 121.257 13.5356 122.566 11.6028C123.874 9.67002 123.707 7.50894 123.433 5.89574C123.314 5.19366 123.11 4.50878 122.824 3.85641C122.812 3.8285 122.805 3.79836 122.804 3.76779C122.804 3.73722 122.809 3.70684 122.821 3.67845C122.832 3.65006 122.849 3.62424 122.871 3.60252C122.892 3.58081 122.918 3.56364 122.946 3.55203C123.001 3.52586 123.063 3.52239 123.12 3.54236C123.177 3.56233 123.224 3.60412 123.25 3.65856C123.547 4.35019 123.757 5.07615 123.874 5.81964C124.179 7.50894 124.24 9.92875 122.946 11.8615C122.109 13.0791 120.572 14.0226 119.004 14.0226Z" fill="#BF453F"/>
<path d="M123.038 14.2964C122.217 14.3099 121.418 14.0292 120.786 13.505C120.741 13.4617 120.714 13.4029 120.711 13.3406C120.708 13.2783 120.73 13.2173 120.77 13.1702C120.811 13.1262 120.867 13.1 120.927 13.0972C120.987 13.0943 121.045 13.1151 121.09 13.1549C121.897 13.855 123.129 14.0376 124.301 13.6115C124.358 13.5956 124.418 13.6006 124.471 13.6258C124.525 13.651 124.567 13.6946 124.59 13.7485C124.611 13.8071 124.608 13.8713 124.582 13.9278C124.557 13.9844 124.511 14.0291 124.453 14.0528C123.999 14.2147 123.52 14.297 123.038 14.2964Z" fill="#BF453F"/>
<path d="M122.017 30.5198H120.13C117.329 30.4894 114.925 30.4589 111.15 29.8045L111.272 29.1349C114.986 29.7741 117.375 29.8045 120.13 29.8197L122.032 29.8502L122.017 30.5198Z" fill="#323B6E"/>
<path d="M17.6624 20.9932C17.6155 20.9927 17.5699 20.9779 17.5318 20.9507C17.4937 20.9234 17.4649 20.8851 17.4493 20.841C16.6495 18.6102 16.7422 16.1566 17.708 13.9925C16.6579 14.2664 15.4556 14.5708 14.3142 14.2664C13.9098 14.1501 13.5349 13.9488 13.2147 13.6758C12.8945 13.4028 12.6363 13.0646 12.4575 12.6837C12.3237 12.42 12.2527 12.1289 12.2501 11.8332C12.2474 11.5375 12.3132 11.2452 12.4423 10.9791C12.9749 9.92904 14.2838 9.6551 15.5013 9.53335L19.7017 9.10722C20.0853 9.05763 20.4716 9.03222 20.8583 9.03113C20.9189 9.03113 20.9769 9.05518 21.0197 9.09799C21.0626 9.1408 21.0866 9.19887 21.0866 9.25941C21.0866 9.31996 21.0626 9.37802 21.0197 9.42083C20.9769 9.46364 20.9189 9.48769 20.8583 9.48769H20.8279C20.4664 9.48922 20.1055 9.51464 19.7473 9.56379L15.5469 9.98992C14.4664 10.0964 13.2945 10.3247 12.8532 11.1922C12.7605 11.3957 12.7139 11.6171 12.7165 11.8407C12.7191 12.0643 12.771 12.2845 12.8684 12.4858C13.0192 12.8078 13.2371 13.0939 13.5074 13.3249C13.7778 13.5558 14.0943 13.7264 14.436 13.8251C15.4861 14.099 16.597 13.8099 17.6776 13.5359L18.0885 13.4294C18.1293 13.4123 18.1749 13.4105 18.2169 13.4245C18.2589 13.4385 18.2944 13.4673 18.3168 13.5055C18.3463 13.538 18.3651 13.5788 18.3706 13.6224C18.376 13.666 18.3679 13.7102 18.3472 13.749C17.7949 14.8109 17.4678 15.9754 17.3867 17.1696C17.3055 18.3638 17.4719 19.5619 17.8754 20.6888C17.8874 20.7166 17.8933 20.7466 17.8928 20.7769C17.8923 20.8072 17.8853 20.837 17.8723 20.8643C17.8593 20.8917 17.8407 20.916 17.8176 20.9356C17.7945 20.9552 17.7676 20.9696 17.7384 20.978L17.6624 20.9932Z" fill="#BF453F"/>
<path d="M14.9676 10.0658C14.9149 10.0642 14.8642 10.0455 14.823 10.0125C14.7819 9.97961 14.7525 9.93422 14.7394 9.88317C14.4216 8.65664 13.8966 7.49342 13.187 6.4437C12.9483 6.07629 12.6784 5.73005 12.3804 5.40881C12.338 5.36441 12.315 5.30499 12.3165 5.24363C12.3179 5.18227 12.3436 5.12399 12.388 5.0816C12.4324 5.03922 12.4919 5.01621 12.5532 5.01764C12.6146 5.01907 12.6729 5.04482 12.7152 5.08922C13.0331 5.42694 13.3184 5.79381 13.5675 6.18497C14.305 7.28399 14.8553 8.49766 15.1959 9.77663C15.2097 9.83514 15.1999 9.89672 15.1685 9.948C15.1372 9.99929 15.0869 10.0361 15.0285 10.0506L14.9676 10.0658Z" fill="#BF453F"/>
<path d="M12.3044 17.2643C11.6758 17.2687 11.0623 17.0713 10.5542 16.7012C10.5302 16.6832 10.51 16.6606 10.4947 16.6348C10.4795 16.609 10.4694 16.5805 10.4652 16.5508C10.4609 16.5211 10.4626 16.4909 10.47 16.4619C10.4775 16.4328 10.4906 16.4055 10.5085 16.3816C10.5265 16.3576 10.5491 16.3374 10.5749 16.3221C10.6007 16.3068 10.6292 16.2968 10.6589 16.2925C10.6886 16.2883 10.7188 16.29 10.7478 16.2974C10.7769 16.3048 10.8042 16.3179 10.8281 16.3359C11.5282 16.8686 12.6088 16.9447 13.461 16.549C14.3133 16.1533 15.0742 15.2706 15.5308 14.1292C15.5545 14.0719 15.5992 14.0258 15.6558 14.0003C15.7124 13.9749 15.7765 13.972 15.8352 13.9922C15.8897 14.0187 15.9324 14.0645 15.9549 14.1208C15.9774 14.1771 15.9782 14.2398 15.9569 14.2966C15.4699 15.5445 14.6481 16.5033 13.6589 16.9599C13.2345 17.1575 12.7725 17.2613 12.3044 17.2643Z" fill="#BF453F"/>
<path d="M7.07008 17.8582C7.00954 17.8582 6.95147 17.8342 6.90866 17.7914C6.86585 17.7486 6.8418 17.6905 6.8418 17.6299C6.8418 17.5694 6.86585 17.5113 6.90866 17.4685C6.95147 17.4257 7.00954 17.4017 7.07008 17.4017C8.34847 17.3864 9.76382 17.2495 10.4943 16.3059C11.2248 15.3623 10.9661 13.8404 10.6922 12.8208C10.2394 11.1704 9.62253 9.56948 8.85069 8.04204C8.57675 7.47895 8.22672 6.85497 7.70927 6.45928C7.54156 6.32085 7.35101 6.2127 7.14617 6.13968C7.09277 6.11618 7.0504 6.07311 7.02775 6.01933C7.00511 5.96556 7.00392 5.90515 7.02442 5.85053C7.04505 5.79435 7.08691 5.74852 7.14099 5.72291C7.19507 5.69729 7.25705 5.69393 7.31358 5.71355C7.55424 5.80687 7.77986 5.93506 7.98321 6.09402C8.59197 6.55059 8.95722 7.23544 9.2616 7.82898C10.0436 9.38707 10.6706 11.0183 11.1335 12.699C11.4379 13.81 11.7423 15.4384 10.8596 16.5798C9.97689 17.7213 8.47022 17.843 7.07008 17.8582Z" fill="#BF453F"/>
<path d="M5.22834 18.8324C4.80683 18.8359 4.39018 18.7422 4.01083 18.5584C2.97594 18.0562 2.18456 16.9604 1.75843 15.469C1.74027 15.4105 1.7461 15.3471 1.77464 15.2929C1.80318 15.2387 1.85209 15.198 1.91062 15.1798C1.96915 15.1617 2.03249 15.1675 2.08672 15.196C2.14095 15.2246 2.18161 15.2735 2.19978 15.332C2.42806 16.1386 2.97594 17.554 4.20867 18.1475C4.50414 18.2892 4.8259 18.3678 5.15344 18.3783C5.48098 18.3888 5.8071 18.3309 6.11103 18.2084C6.33069 18.1286 6.53101 18.0033 6.69886 17.8407C6.86671 17.6781 6.99831 17.4818 7.08504 17.2648C7.23723 16.8387 7.20679 16.3365 7.14592 15.8647C6.8485 13.6327 5.96059 11.5207 4.57392 9.74668C4.3152 9.42708 3.96517 9.03139 3.55426 8.81833C3.5258 8.8071 3.50008 8.78987 3.47888 8.76782C3.45767 8.74576 3.44145 8.71939 3.43135 8.69051C3.42124 8.66163 3.41747 8.63092 3.4203 8.60045C3.42312 8.56998 3.43248 8.54048 3.44773 8.51395C3.47674 8.46213 3.5237 8.42269 3.57975 8.40307C3.63581 8.38345 3.69711 8.385 3.7521 8.40742C4.25433 8.65092 4.65002 9.10749 4.93918 9.47274C6.37665 11.3072 7.29631 13.4934 7.60248 15.8038C7.66336 16.3365 7.70902 16.8996 7.51117 17.4322C7.40317 17.7088 7.23732 17.9592 7.02472 18.1666C6.81212 18.3739 6.55769 18.5335 6.27844 18.6345C5.94435 18.7673 5.58783 18.8344 5.22834 18.8324Z" fill="#BF453F"/>
<path d="M17.2955 16.0317H17.2803C16.5196 15.9834 15.8062 15.6458 15.2866 15.0881C15.2599 15.0402 15.2502 14.9846 15.259 14.9305C15.2678 14.8763 15.2947 14.8267 15.3352 14.7898C15.3757 14.7528 15.4275 14.7305 15.4822 14.7267C15.5369 14.7228 15.5914 14.7375 15.6367 14.7685C16.0661 15.2481 16.668 15.5381 17.3108 15.5751C17.3699 15.5825 17.4243 15.6114 17.4636 15.6563C17.5029 15.7012 17.5243 15.759 17.5238 15.8186C17.52 15.8765 17.4942 15.9307 17.4518 15.9703C17.4094 16.0098 17.3535 16.0318 17.2955 16.0317Z" fill="#BF453F"/>
<path d="M79.5121 119.505C78.5556 119.515 77.601 119.418 76.6662 119.215C74.4746 118.728 72.5418 117.572 70.6699 116.446L71.0352 115.867C72.8462 116.948 74.7334 118.074 76.8184 118.546C78.9033 119.018 81.3992 118.774 83.6364 118.455L83.7277 119.139C82.333 119.361 80.9242 119.483 79.5121 119.505Z" fill="#323B6E"/>
<path d="M14.9073 38.5104L14.8008 37.8256C17.4633 37.3751 20.0091 36.3972 22.2885 34.9492L22.6537 35.5275C20.2978 37.0314 17.6634 38.0458 14.9073 38.5104Z" fill="#323B6E"/>
<path d="M121.759 149.304C121.455 147.995 121.135 146.701 120.831 145.392C121.866 126.703 131.301 96.0831 131.073 76.9834C130.845 57.8837 127.816 43.7149 122.459 25.4066C122.353 25.0717 122.277 24.7521 122.201 24.4325C117.223 24.9781 112.188 24.6328 107.332 23.4129L107.225 23.3824C109.188 39.2862 109.006 55.3117 107.743 71.185C107.088 79.5249 106.084 87.9562 103.557 95.8852C102.863 98.0507 102.045 100.175 101.107 102.247C99.1743 106.508 96.3436 110.785 91.9454 112.337C91.154 112.641 90.2409 112.383 89.5712 111.85C87.2732 114.741 83.2706 116.005 79.5724 115.548C75.8742 115.091 72.45 113.052 69.741 110.45L69.5127 110.389C69.5101 110.451 69.4998 110.512 69.4823 110.571C69.2845 111.393 68.4931 112.124 67.6712 111.956L67.5799 111.987C57.4746 106.249 53.3655 99.8117 48.5411 91.837C43.7167 83.8623 40.2316 75.1419 37.0052 66.391C32.2873 53.6376 28.0463 40.7168 24.2822 27.6285H24.2061C18.5903 29.2874 13.4616 30.5353 7.66317 30.5201C7.63273 30.3527 7.6023 30.1853 7.55664 30.0179C7.67839 31.1441 10.0982 84.6993 22.3646 108.319C26.4128 116.126 31.4807 123.431 36.4877 130.736C43.6406 141.146 50.6718 151.571 54.5373 163.518V163.548H54.5526L60.9902 184.49H73.561L130.236 184.566V184.49C127.426 172.771 124.6 161.042 121.759 149.304Z" fill="#2F80ED"/>
<path d="M73.5912 184.169H39.2422V184.857H73.5912V184.169Z" fill="#323B6E"/>
<path d="M270.706 184.2H73.5605V184.888H270.706V184.2Z" fill="#323B6E"/>
</svg>
